<?xml version="1.0" standalone="no"?>
<!DOCTYPE svg PUBLIC "-//W3C//DTD SVG 1.1//EN" "http://www.w3.org/Graphics/SVG/1.1/DTD/svg11.dtd" >
<svg xmlns="http://www.w3.org/2000/svg" xmlns:xlink="http://www.w3.org/1999/xlink" version="1.1">
<metadata>
Created by FontForge 20170731 at Tue Jul 25 17:25:49 2017
 By Aleksey,,,
Marcin Antique Copyright (c) 2015 by Mario Feliciano. All rights reserved.
</metadata>
<defs>
<font id="MarcinAnt-Light" horiz-adv-x="320" >
  <font-face 
    font-family="Marcin Ant Light"
    font-weight="350"
    font-stretch="normal"
    units-per-em="1000"
    panose-1="2 11 4 2 5 6 2 3 2 4"
    ascent="800"
    descent="-200"
    x-height="480"
    cap-height="720"
    bbox="-363 -210 1000 947"
    underline-thickness="49"
    underline-position="-225"
    unicode-range="U+000D-FB02"
  />
<missing-glyph horiz-adv-x="617" 
d="M84 0v720h449v-720h-449zM146 55h325v610h-325v-610z" />
    <glyph glyph-name="f_i" unicode="fi" horiz-adv-x="522" 
d="M103 0v432h-92v48h92v111q0 132 129 132h53v-49h-40q-43 0 -61.5 -14t-18.5 -62v-118h120v-48h-120v-432h-62zM376 0v480h62v-480h-62zM376 559v106h62v-106h-62z" />
    <glyph glyph-name="f_l" unicode="fl" horiz-adv-x="522" 
d="M103 0v432h-92v48h92v111q0 132 129 132h53v-49h-40q-43 0 -61.5 -14t-18.5 -62v-118h120v-48h-120v-432h-62zM376 0v720h62v-720h-62z" />
    <glyph glyph-name=".notdef" horiz-adv-x="617" 
d="M84 0v720h449v-720h-449zM146 55h325v610h-325v-610z" />
    <glyph glyph-name=".null" horiz-adv-x="0" 
 />
    <glyph glyph-name=".null" horiz-adv-x="0" 
 />
    <glyph glyph-name="nonmarkingreturn" horiz-adv-x="333" 
 />
    <glyph glyph-name="CR" unicode="&#xd;" horiz-adv-x="230" 
 />
    <glyph glyph-name="space" unicode=" " horiz-adv-x="230" 
 />
    <glyph glyph-name="exclam" unicode="!" horiz-adv-x="236" 
d="M93 198l-13 522h76l-13 -522h-50zM80 0v96h76v-96h-76z" />
    <glyph glyph-name="quotedbl" unicode="&#x22;" horiz-adv-x="363" 
d="M86 514l-13 206h72l-13 -206h-46zM231 514l-13 206h72l-13 -206h-46z" />
    <glyph glyph-name="numbersign" unicode="#" horiz-adv-x="540" 
d="M66 0l42 192h-98l15 59h96l56 232h-103l14 57h99l41 180h52l-39 -180h141l40 180h51l-40 -180h96l-11 -57h-97l-55 -232h99l-13 -59h-99l-44 -192h-51l43 192h-140l-42 -192h-53zM175 251h140l55 232h-141z" />
    <glyph glyph-name="dollar" unicode="$" horiz-adv-x="577" 
d="M269 -133v124q-47 2 -87 16t-74 40.5t-53.5 71t-20.5 103.5h60q0 -48 16 -83t43.5 -54.5t56 -28.5t59.5 -12v302q-46 13 -69.5 21t-55.5 24t-47.5 33t-27 44.5t-11.5 63.5q0 82 59 136.5t152 60.5v103h49v-103q85 -7 138.5 -58.5t56.5 -142.5h-61q-12 129 -134 145v-271
q109 -33 159.5 -77t50.5 -125q0 -83 -56 -142t-154 -67v-124h-49zM318 45q67 7 109.5 45t42.5 104q0 50 -37.5 83.5t-114.5 54.5v-287zM269 416v259q-71 -3 -109 -42t-38 -93q0 -23 9.5 -41.5t21 -30t35 -22.5t38 -16t43.5 -14z" />
    <glyph glyph-name="percent" unicode="%" horiz-adv-x="640" 
d="M116 -10l-40 24l443 716l40 -22zM471 -10q-68 0 -98 45.5t-30 113.5t31 117.5t98 49.5q70 0 99 -47.5t29 -116.5q0 -66 -31 -114t-98 -48zM471 24q79 0 79 127q0 131 -80 131q-77 0 -77 -132q0 -126 78 -126zM168 403q-68 0 -98 46t-30 114t31 117.5t98 49.5
q70 0 99 -47.5t29 -116.5q0 -66 -31 -114.5t-98 -48.5zM168 437q79 0 79 128q0 131 -80 131q-77 0 -77 -132q0 -127 78 -127z" />
    <glyph glyph-name="ampersand" unicode="&#x26;" horiz-adv-x="767" 
d="M691 -4q-90 0 -201 96q-99 -102 -232 -102q-99 0 -154.5 47.5t-55.5 129.5q0 76 52.5 133t138.5 90q-62 103 -62 170q0 28 8 54.5t26.5 54t56.5 44.5t90 17q77 0 124.5 -44t47.5 -112q0 -139 -193 -217q68 -95 151 -178q56 79 113 236l56 -14q-60 -170 -128 -262
q100 -86 175 -86q16 0 34 3v-56q-23 -4 -47 -4zM267 45q101 0 181 85q-90 87 -179 215q-66 -22 -110.5 -64t-44.5 -106t39.5 -97t113.5 -33zM306 402q86 29 125 68.5t39 99.5q0 48 -33.5 78t-88.5 30q-54 0 -81 -32.5t-27 -80.5q0 -63 66 -163z" />
    <glyph glyph-name="quotesingle" unicode="'" horiz-adv-x="218" 
d="M86 514l-13 206h72l-13 -206h-46z" />
    <glyph glyph-name="parenleft" unicode="(" horiz-adv-x="298" 
d="M207 -200q-65 86 -99 221.5t-34 248.5q0 259 133 450h50q-63 -125 -91 -220.5t-28 -230.5q0 -245 120 -469h-51z" />
    <glyph glyph-name="parenright" unicode=")" horiz-adv-x="298" 
d="M91 -200h-51q120 224 120 469q0 135 -28 230.5t-91 220.5h50q133 -191 133 -450q0 -113 -34 -248.5t-99 -221.5z" />
    <glyph glyph-name="asterisk" unicode="*" horiz-adv-x="415" 
d="M118 386l-40 28l88 122l-138 45l15 45l141 -47v141h49v-141l140 47l14 -45l-137 -45l88 -122l-41 -28l-90 125z" />
    <glyph glyph-name="plus" unicode="+" horiz-adv-x="540" 
d="M243 84v204h-200v52h200v203h52v-203h202v-52h-202v-204h-52z" />
    <glyph glyph-name="comma" unicode="," horiz-adv-x="220" 
d="M72 -110l31 110h-31v96h76v-94l-34 -112h-42z" />
    <glyph glyph-name="hyphen" unicode="-" horiz-adv-x="358" 
d="M44 252v65h270v-65h-270z" />
    <glyph glyph-name="period" unicode="." horiz-adv-x="220" 
d="M72 0v96h76v-96h-76z" />
    <glyph glyph-name="slash" unicode="/" horiz-adv-x="339" 
d="M46 -200h-63l302 920h62z" />
    <glyph glyph-name="zero" unicode="0" horiz-adv-x="602" 
d="M296 -10q-66 0 -117 32.5t-80.5 86.5t-44 115.5t-14.5 126.5q0 72 15 137t45 120.5t82.5 88.5t120.5 33q69 0 121.5 -33.5t81.5 -89.5t42.5 -119t13.5 -132q0 -70 -15.5 -134t-46.5 -116.5t-84 -84t-120 -31.5zM300 42q99 0 146.5 81t47.5 225q0 330 -195 330
q-192 0 -192 -330q0 -64 10.5 -117.5t32.5 -97t60 -67.5t90 -24z" />
    <glyph glyph-name="one" unicode="1" horiz-adv-x="472" 
d="M79 0v54h161v548h-4q-32 -95 -140 -109v59q69 17 102 60.5t47 109.5h57v-668h161v-54h-384z" />
    <glyph glyph-name="two" unicode="2" horiz-adv-x="545" 
d="M57 0v62l152 130q43 37 58.5 50.5t49 46t46.5 52t31 50.5t24.5 62.5t6.5 67.5q0 68 -39 111.5t-114 43.5q-76 0 -121 -41t-45 -112v-66h-61v56q0 90 61.5 153.5t171.5 63.5q104 0 159.5 -63.5t55.5 -145.5q0 -52 -19 -102t-54.5 -94t-66 -75t-73.5 -67l-150 -126v-3h363
v-54h-436z" />
    <glyph glyph-name="three" unicode="3" horiz-adv-x="553" 
d="M291 -10q-61 0 -108.5 20t-76 54.5t-44 73.5t-18.5 82h64q22 -178 182 -178q80 0 120 44.5t40 116.5q0 138 -146 138h-115v52h110q61 0 91 40.5t30 109.5q0 133 -148 133q-28 0 -54 -7.5t-51.5 -24t-41 -48.5t-15.5 -75h-56q0 90 59.5 149.5t164.5 59.5q103 0 155 -56
t52 -123q0 -64 -29 -110.5t-83 -63.5v-6q142 -27 142 -173q0 -84 -62 -146t-162 -62z" />
    <glyph glyph-name="four" unicode="4" horiz-adv-x="604" 
d="M370 0v200h-329v58l315 462h76v-466h138v-54h-138v-200h-62zM98 254h272v387h-4z" />
    <glyph glyph-name="five" unicode="5" horiz-adv-x="552" 
d="M282 -10q-99 0 -161.5 64.5t-68.5 165.5h57q22 -180 182 -180q70 0 115 49t45 161q0 101 -50 149.5t-119 48.5q-93 0 -152 -104h-57l8 376h374v-54h-325l-5 -259q62 90 164 90q107 0 165 -71.5t58 -173.5q0 -130 -65 -196t-165 -66z" />
    <glyph glyph-name="six" unicode="6" horiz-adv-x="568" 
d="M299 -10q-123 0 -191 98t-68 263q0 47 6.5 94.5t25 100t47 92.5t76.5 66t110 26q67 0 116.5 -34t71.5 -80.5t22 -96.5h-61q0 75 -42.5 117t-108.5 42q-100 0 -148 -82t-48 -228v-29q42 51 98.5 76.5t106.5 25.5q96 0 156 -61.5t60 -154.5q0 -110 -63.5 -172.5
t-165.5 -62.5zM305 388q-110 0 -195 -106q23 -240 186 -240q85 0 128 45.5t43 128.5q0 80 -41.5 126t-120.5 46z" />
    <glyph glyph-name="seven" unicode="7" horiz-adv-x="475" 
d="M176 0q0 188 56.5 362t163.5 303h-368v55h431v-52q-114 -142 -167 -293t-53 -375h-63z" />
    <glyph glyph-name="eight" unicode="8" horiz-adv-x="563" 
d="M282 -10q-104 0 -172 46.5t-68 137.5q0 54 42.5 109t119.5 87q-144 67 -144 174q0 30 11.5 61t36 60t69 47t103.5 18q103 0 159.5 -51t56.5 -123q0 -57 -40.5 -107t-116.5 -79q104 -51 143 -92t39 -99q0 -81 -62.5 -135t-176.5 -54zM282 41q89 0 132.5 35t43.5 97
q0 52 -43 88t-158 86q-64 -23 -107 -66t-43 -104q0 -136 175 -136zM292 394q67 27 103.5 69t36.5 91q0 56 -39.5 89.5t-115.5 33.5q-77 0 -116 -35.5t-39 -85.5q0 -53 38.5 -88.5t131.5 -73.5z" />
    <glyph glyph-name="nine" unicode="9" horiz-adv-x="568" 
d="M258 -10q-98 0 -158.5 62.5t-60.5 148.5h61q0 -77 47 -118t112 -41q104 0 153 80.5t49 226.5v21q-78 -94 -201 -94q-99 0 -157 60.5t-58 155.5q0 111 61 174.5t158 63.5q128 0 196 -100t68 -264t-70 -270t-200 -106zM264 327q121 0 194 97q-22 254 -188 254
q-82 0 -123 -46t-41 -128t42 -129.5t116 -47.5z" />
    <glyph glyph-name="colon" unicode=":" horiz-adv-x="220" 
d="M72 384v96h76v-96h-76zM72 0v96h76v-96h-76z" />
    <glyph glyph-name="semicolon" unicode=";" horiz-adv-x="220" 
d="M72 384v96h76v-96h-76zM72 -110l31 110h-31v96h76v-94l-34 -112h-42z" />
    <glyph glyph-name="less" unicode="&#x3c;" horiz-adv-x="540" 
d="M479 90l-443 207v42l445 203l23 -47l-393 -176l391 -183z" />
    <glyph glyph-name="equal" unicode="=" horiz-adv-x="540" 
d="M43 198v52h454v-52h-454zM43 378v52h454v-52h-454z" />
    <glyph glyph-name="greater" unicode="&#x3e;" horiz-adv-x="540" 
d="M61 90l-23 46l391 183l-393 176l23 47l445 -203v-42z" />
    <glyph glyph-name="question" unicode="?" horiz-adv-x="466" 
d="M178 0v96h76v-96h-76zM190 198l-7 133q51 25 75 39.5t51.5 39.5t38 57t10.5 78q0 62 -35 96.5t-96 34.5q-124 0 -124 -134h-61q0 84 46 136t145 52q87 0 139 -51t52 -126q0 -45 -11.5 -82t-26 -60.5t-42 -46.5t-46 -34.5t-51.5 -29.5l-7 -102h-50z" />
    <glyph glyph-name="at" unicode="@" horiz-adv-x="864" 
d="M417 -190q-170 0 -275.5 101.5t-105.5 283.5q0 205 116.5 336t311.5 131q152 0 258 -101.5t106 -273.5q0 -85 -21.5 -153t-71.5 -112.5t-122 -44.5q-49 0 -74 33t-25 86h-5q-24 -53 -65.5 -86t-87.5 -33q-65 0 -100 45.5t-35 123.5q0 152 63 250.5t153 98.5q82 0 120 -81
l11 71h66l-55 -348q-5 -30 -5 -49q0 -22 10.5 -39.5t35.5 -17.5q43 0 74 21.5t47.5 59.5t23.5 81.5t7 95.5q0 139 -87.5 231t-222.5 92q-110 0 -194.5 -54.5t-127.5 -144.5t-43 -200q0 -163 80 -257.5t248 -94.5q155 0 278 65l18 -44q-133 -72 -304 -72zM373 34
q50 0 96.5 61t56.5 129l19 127q-10 33 -41 62t-65 29q-48 0 -83 -47.5t-49.5 -111.5t-14.5 -132q0 -51 20.5 -84t60.5 -33z" />
    <glyph glyph-name="A" unicode="A" horiz-adv-x="612" 
d="M22 0l253 724h63l252 -724h-69l-62 177h-309l-60 -177h-68zM170 234h270l-134 387h-4z" />
    <glyph glyph-name="B" unicode="B" horiz-adv-x="590" 
d="M84 0v720h244q88 0 149 -46t61 -136q0 -63 -35 -109t-96 -56v-3q64 -9 106.5 -54t42.5 -115q0 -103 -66 -152t-166 -49h-240zM152 55h185q149 0 149 149q0 140 -147 140h-187v-289zM152 394h187q68 0 99.5 39t31.5 92q0 25 -5.5 46.5t-19.5 44t-45 36t-75 13.5h-173v-271
z" />
    <glyph glyph-name="C" unicode="C" horiz-adv-x="604" 
d="M317 -10q-136 0 -204.5 87.5t-68.5 272.5q0 192 72 286t204 94q111 0 169 -67.5t67 -173.5h-64q-4 40 -13.5 70.5t-28.5 58t-52 42.5t-78 15q-113 0 -158.5 -77.5t-45.5 -229.5q0 -183 51 -253t161 -70q92 0 136 61t44 157h62q-5 -125 -69.5 -199t-183.5 -74z" />
    <glyph glyph-name="D" unicode="D" horiz-adv-x="664" 
d="M84 0v720h236q144 0 222 -101t78 -256q0 -363 -283 -363h-253zM152 55h189q61 0 103 23.5t64 68.5t31 98.5t9 125.5q0 129 -56 211.5t-167 82.5h-173v-610z" />
    <glyph glyph-name="E" unicode="E" horiz-adv-x="556" 
d="M84 0v720h413v-55h-345v-262h245v-55h-245v-293h358v-55h-426z" />
    <glyph glyph-name="F" unicode="F" horiz-adv-x="529" 
d="M84 0v720h412v-55h-344v-262h245v-55h-245v-348h-68z" />
    <glyph glyph-name="G" unicode="G" horiz-adv-x="625" 
d="M307 -10q-263 0 -263 363q0 377 279 377q112 0 167 -67.5t55 -173.5h-67q0 186 -161 186q-106 0 -153.5 -71.5t-47.5 -243.5q0 -121 24.5 -191.5t67 -97t110.5 -26.5q130 0 163 132v101h-158v55h226v-333h-51l-3 91q-23 -48 -72 -74.5t-116 -26.5z" />
    <glyph glyph-name="H" unicode="H" horiz-adv-x="662" 
d="M84 0v720h68v-305h358v305h68v-720h-68v360h-358v-360h-68z" />
    <glyph glyph-name="I" unicode="I" horiz-adv-x="236" 
d="M84 0v720h68v-720h-68z" />
    <glyph glyph-name="J" unicode="J" horiz-adv-x="544" 
d="M256 -10q-120 0 -166 58.5t-46 179.5v46h68v-54q0 -91 27.5 -131.5t116.5 -40.5q84 0 114 43t30 143v486h68v-476q0 -126 -50 -190t-162 -64z" />
    <glyph glyph-name="K" unicode="K" horiz-adv-x="604" 
d="M573 720l-297 -302l306 -418h-80l-272 371l-78 -80v-291h-68v720h68v-351l344 351h77z" />
    <glyph glyph-name="L" unicode="L" horiz-adv-x="541" 
d="M84 0v720h68v-665h359v-55h-427z" />
    <glyph glyph-name="M" unicode="M" horiz-adv-x="782" 
d="M84 0v720h110l203 -599h5l190 599h106v-720h-64v650h-5l-208 -650h-54l-215 650h-6v-650h-62z" />
    <glyph glyph-name="N" unicode="N" horiz-adv-x="662" 
d="M517 -1l-369 631h-2v-630h-62v720h85l345 -587h3v587h61v-721h-61z" />
    <glyph glyph-name="O" unicode="O" horiz-adv-x="687" 
d="M341 -10q-297 0 -297 360q0 180 81 280t220 100q137 0 217.5 -97.5t80.5 -263.5q0 -379 -302 -379zM347 44q120 0 172 77.5t52 250.5q0 147 -61 225.5t-169 78.5q-112 0 -168.5 -84t-56.5 -222q0 -176 52.5 -251t178.5 -75z" />
    <glyph glyph-name="P" unicode="P" horiz-adv-x="589" 
d="M84 0v720h233q99 0 166.5 -48t67.5 -148q0 -59 -22.5 -101.5t-57.5 -63.5t-69 -30.5t-66 -9.5h-184v-319h-68zM152 374h190q137 0 137 144q0 78 -39 112.5t-117 34.5h-171v-291z" />
    <glyph glyph-name="Q" unicode="Q" horiz-adv-x="687" 
d="M224 -114l-36 38q56 59 110 69q-254 26 -254 357q0 179 80.5 279.5t215.5 100.5q142 0 222.5 -97.5t80.5 -267.5q0 -164 -63.5 -263.5t-200.5 -109.5q34 -9 81 -44t73 -35q33 0 70 40l33 -38q-45 -59 -113 -59q-37 0 -95.5 43t-87.5 43q-27 0 -49.5 -9t-33.5 -17.5
t-33 -29.5zM347 44q120 0 172 77.5t52 250.5q0 147 -61 225.5t-169 78.5q-112 0 -168.5 -84t-56.5 -222q0 -176 52.5 -251t178.5 -75z" />
    <glyph glyph-name="R" unicode="R" horiz-adv-x="655" 
d="M84 0v720h291q102 0 156 -48.5t54 -140.5q0 -69 -39 -115t-99 -56v-4q59 -12 89.5 -53t30.5 -98v-68q0 -72 12 -129v-8h-69q-10 40 -10 128v72q0 61 -35.5 95.5t-106.5 34.5h-206v-330h-68zM152 385h229q63 0 99 39t36 105q0 58 -35 97t-106 39h-223v-280z" />
    <glyph glyph-name="S" unicode="S" horiz-adv-x="577" 
d="M289 -10q-68 0 -122.5 21t-93 75t-39.5 136h60q0 -42 13 -74t33 -51.5t47 -31.5t51.5 -16.5t49.5 -4.5q78 0 130 38.5t52 111.5q0 95 -144 136l-95 27q-38 11 -63 21.5t-53 30t-42.5 49.5t-14.5 71q0 87 64 144t164 57q98 0 161 -52.5t66 -152.5h-61q-13 151 -171 151
q-76 0 -117.5 -41t-41.5 -98q0 -26 9.5 -45t30 -32t38 -20.5t48.5 -16.5l86 -26q99 -30 146.5 -72.5t47.5 -124.5q0 -89 -64 -149.5t-175 -60.5z" />
    <glyph glyph-name="T" unicode="T" horiz-adv-x="564" 
d="M248 0v665h-226v55h520v-55h-226v-665h-68z" />
    <glyph glyph-name="U" unicode="U" horiz-adv-x="648" 
d="M320 -10q-244 0 -244 242v488h68v-503q0 -168 181 -168q100 0 141.5 39.5t41.5 110.5v521h64v-504q0 -226 -252 -226z" />
    <glyph glyph-name="V" unicode="V" horiz-adv-x="592" 
d="M265 -4l-253 724h69l215 -615h4l212 615h68l-256 -724h-59z" />
    <glyph glyph-name="W" unicode="W" horiz-adv-x="862" 
d="M208 -3l-184 723h70l142 -584h5l156 584h71l158 -584h5l150 584h57l-186 -723h-50l-168 614h-3l-168 -614h-55z" />
    <glyph glyph-name="X" unicode="X" horiz-adv-x="568" 
d="M18 0l234 374l-206 346h76l171 -285l171 285h66l-206 -338l226 -382h-74l-190 322l-198 -322h-70z" />
    <glyph glyph-name="Y" unicode="Y" horiz-adv-x="558" 
d="M248 0v307l-236 413h79l195 -349l189 349h71l-230 -413v-307h-68z" />
    <glyph glyph-name="Z" unicode="Z" horiz-adv-x="544" 
d="M40 0v48l382 617h-370v55h452v-45l-386 -620h386v-55h-464z" />
    <glyph glyph-name="bracketleft" unicode="[" horiz-adv-x="298" 
d="M84 -200v920h184v-54h-120v-812h120v-54h-184z" />
    <glyph glyph-name="backslash" unicode="\" horiz-adv-x="339" 
d="M316 -200l-301 920h62l302 -920h-63z" />
    <glyph glyph-name="bracketright" unicode="]" horiz-adv-x="298" 
d="M30 -200v54h120v812h-120v54h184v-920h-184z" />
    <glyph glyph-name="asciicircum" unicode="^" horiz-adv-x="540" 
d="M81 373l156 351h75l147 -351h-66l-120 299l-127 -299h-65z" />
    <glyph glyph-name="underscore" unicode="_" horiz-adv-x="500" 
d="M0 -153v49h500v-49h-500z" />
    <glyph glyph-name="grave" unicode="`" horiz-adv-x="600" 
d="M321 564l-91 156h72l68 -156h-49z" />
    <glyph glyph-name="a" unicode="a" horiz-adv-x="520" 
d="M203 -10q-68 0 -113.5 36t-45.5 105q0 38 13.5 65t38.5 42t49.5 22.5t57.5 11.5l92 12q35 4 49 14t14 29v27q0 52 -30.5 71t-89.5 19q-121 0 -121 -81v-17h-54v17q0 66 50.5 96.5t129.5 30.5q76 0 126 -31.5t50 -103.5v-243q0 -41 21.5 -57t48.5 -16h11v-42h-19
q-33 0 -55.5 8t-34 23.5t-16 27.5t-7.5 31h-2q-21 -52 -67 -74.5t-96 -22.5zM211 34q74 0 110.5 52t36.5 123v54q-14 -15 -77 -25l-73 -10q-57 -7 -81 -26t-24 -69q0 -99 108 -99z" />
    <glyph glyph-name="b" unicode="b" horiz-adv-x="544" 
d="M84 0v720h62v-322q62 92 163 92q34 0 67.5 -14.5t63 -42.5t48 -77t18.5 -110q0 -116 -56 -186t-155 -70q-51 0 -93.5 27.5t-58.5 67.5v-85h-59zM295 33q80 0 110.5 53.5t30.5 159.5q0 201 -142 201q-91 0 -148 -103v-202q21 -51 60 -80t89 -29z" />
    <glyph glyph-name="c" unicode="c" horiz-adv-x="506" 
d="M274 -10q-112 0 -174 68.5t-62 179.5q0 117 63.5 184.5t165.5 67.5q97 0 147 -52t50 -130v-15h-58v17q0 67 -37.5 101.5t-102.5 34.5q-79 0 -118.5 -44t-39.5 -160q0 -113 41 -160.5t128 -47.5q58 0 99 32.5t45 94.5h53q-4 -71 -56.5 -121t-143.5 -50z" />
    <glyph glyph-name="d" unicode="d" horiz-adv-x="544" 
d="M235 -10q-33 0 -66 13.5t-63 41t-49 75.5t-19 109q0 126 60 193.5t151 67.5q51 0 90.5 -21.5t58.5 -57.5v309h62v-720h-56v90q-62 -100 -169 -100zM250 33q51 0 88.5 32.5t59.5 74.5v201q-45 106 -144 106q-82 0 -114 -54t-32 -164q0 -109 35 -152.5t107 -43.5z" />
    <glyph glyph-name="e" unicode="e" horiz-adv-x="512" 
d="M273 -10q-115 0 -175 68.5t-60 178.5q0 115 60 184t168 69q98 0 154 -63t56 -163v-24h-368v-7q3 -199 159 -199q61 0 102.5 31t47.5 97h55q-12 -85 -70 -128.5t-129 -43.5zM111 285h299q-12 162 -146 162q-149 0 -153 -162z" />
    <glyph glyph-name="f" unicode="f" horiz-adv-x="292" 
d="M103 0v432h-92v48h92v111q0 132 129 132h53v-49h-40q-43 0 -61.5 -14t-18.5 -62v-118h120v-48h-120v-432h-62z" />
    <glyph glyph-name="g" unicode="g" horiz-adv-x="513" 
d="M248 -203q-110 0 -165 37.5t-55 85.5q0 34 27 63.5t85 37.5q-80 21 -80 87q0 52 58 92q-41 46 -41 116q0 77 53.5 125.5t131.5 48.5q72 0 122 -45q34 91 115 91v-52q-60 0 -86 -70q29 -37 29 -90q0 -81 -48.5 -129t-133.5 -48q-64 0 -111 28q-35 -19 -35 -56
q0 -51 99 -51h138q152 0 152 -108q0 -70 -69 -116.5t-186 -46.5zM247 -157q98 0 148.5 32t50.5 82q0 55 -90 55h-132q-62 0 -97.5 -21.5t-35.5 -54.5q0 -39 40.5 -66t115.5 -27zM260 189q70 0 94 36t24 97q0 55 -29.5 90t-89.5 35q-61 0 -89.5 -37t-28.5 -96t26.5 -92
t92.5 -33z" />
    <glyph glyph-name="h" unicode="h" horiz-adv-x="526" 
d="M84 0v720h62v-336h2q25 46 72.5 76t99.5 30q126 0 126 -135v-355h-62v358q0 44 -19.5 64t-60.5 20t-89 -35t-69 -84v-323h-62z" />
    <glyph glyph-name="i" unicode="i" horiz-adv-x="230" 
d="M84 0v480h62v-480h-62zM84 559v106h62v-106h-62z" />
    <glyph glyph-name="j" unicode="j" horiz-adv-x="230" 
d="M0 -200v53h17q67 0 67 72v555h62v-540q0 -140 -130 -140h-16zM84 559v106h62v-106h-62z" />
    <glyph glyph-name="k" unicode="k" horiz-adv-x="475" 
d="M84 0v720h62v-461l221 221h70l-166 -163l178 -317h-65l-158 274l-80 -79v-195h-62z" />
    <glyph glyph-name="l" unicode="l" horiz-adv-x="230" 
d="M84 0v720h62v-720h-62z" />
    <glyph glyph-name="m" unicode="m" horiz-adv-x="826" 
d="M84 0v480h60v-99h2q24 46 73 77.5t101 31.5q110 0 124 -109h2q24 46 73 77.5t100 31.5q61 0 94 -35t33 -100v-355h-62v358q0 44 -19.5 64t-60.5 20q-46 0 -93.5 -38.5t-64.5 -80.5v-323h-62v358q0 44 -19 64t-58 20q-50 0 -95.5 -37.5t-65.5 -81.5v-323h-62z" />
    <glyph glyph-name="n" unicode="n" horiz-adv-x="526" 
d="M84 0v480h60v-99h2q25 47 73 78t101 31q62 0 94 -34t32 -98v-358h-62v358q0 44 -19.5 64t-60.5 20q-40 0 -86.5 -33t-71.5 -86v-323h-62z" />
    <glyph glyph-name="o" unicode="o" horiz-adv-x="530" 
d="M266 -10q-105 0 -166.5 69t-61.5 175q0 118 63.5 187t161.5 69q106 0 167.5 -66.5t61.5 -181.5t-62 -183.5t-164 -68.5zM267 34q86 0 120.5 47t34.5 162q0 105 -38.5 154t-121.5 49q-88 0 -121 -52t-33 -155q0 -117 41.5 -161t117.5 -44z" />
    <glyph glyph-name="p" unicode="p" horiz-adv-x="544" 
d="M84 -200v680h59v-87q58 97 165 97q33 0 66.5 -14t63.5 -41.5t49 -76.5t19 -112q0 -123 -59.5 -189.5t-148.5 -66.5q-104 0 -152 82v-272h-62zM295 33q80 0 110.5 53.5t30.5 159.5q0 201 -142 201q-91 0 -148 -103v-208q43 -103 149 -103z" />
    <glyph glyph-name="q" unicode="q" horiz-adv-x="544" 
d="M398 -200v281q-59 -91 -162 -91q-77 0 -137.5 62t-60.5 177q0 125 59 193t152 68q54 0 96 -25t58 -65v80h57v-680h-62zM250 33q51 0 88.5 32.5t59.5 74.5v201q-45 106 -144 106q-82 0 -114 -54t-32 -164q0 -109 35 -152.5t107 -43.5z" />
    <glyph glyph-name="r" unicode="r" horiz-adv-x="354" 
d="M84 0v480h52v-125h3q21 57 76.5 92t115.5 36v-57q-50 -7 -85.5 -21t-55 -33t-28 -31.5t-16.5 -31.5v-309h-62z" />
    <glyph glyph-name="s" unicode="s" horiz-adv-x="427" 
d="M224 -10q-80 0 -132 38t-63 116h60q10 -52 40 -80t94 -28q116 0 116 90q0 34 -24 52.5t-74 30.5l-67 17q-57 15 -92 42.5t-35 79.5q0 61 44 101.5t125 40.5q148 0 166 -135h-58q-5 47 -31.5 68.5t-86.5 21.5q-47 0 -74 -23t-27 -56q0 -36 20 -54t71 -31l73 -19
q60 -16 93.5 -44.5t33.5 -79.5q0 -66 -48 -107t-124 -41z" />
    <glyph glyph-name="t" unicode="t" horiz-adv-x="323" 
d="M285 0h-76q-111 0 -111 128v304h-84v48h84v133l52 41h10v-174h128v-48h-128v-303q0 -47 17 -62.5t48 -15.5h60v-51z" />
    <glyph glyph-name="u" unicode="u" horiz-adv-x="526" 
d="M209 -10q-129 0 -129 135v355h62v-358q0 -44 19.5 -64t60.5 -20q40 0 86.5 33t71.5 86v323h62v-480h-60v99h-2q-24 -47 -71.5 -78t-99.5 -31z" />
    <glyph glyph-name="v" unicode="v" horiz-adv-x="400" 
d="M176 -2l-164 482h62l131 -390h2l126 390h55l-164 -482h-48z" />
    <glyph glyph-name="w" unicode="w" horiz-adv-x="646" 
d="M157 -2l-135 482h62l102 -384h2l111 384h55l116 -384h2l97 384h55l-135 -482h-48l-116 385h-2l-118 -385h-48z" />
    <glyph glyph-name="x" unicode="x" horiz-adv-x="418" 
d="M12 0l163 251l-148 229h69l115 -180l109 180h63l-140 -224l163 -256h-67l-131 203l-130 -203h-66z" />
    <glyph glyph-name="y" unicode="y" horiz-adv-x="400" 
d="M31 -205v60q65 0 93.5 31.5t52.5 109.5l-165 484h62l131 -390h2l125 390h56l-164 -494q-33 -101 -79 -146t-114 -45z" />
    <glyph glyph-name="z" unicode="z" horiz-adv-x="416" 
d="M32 0v30l264 402h-258v48h341v-24l-272 -408h277v-48h-352z" />
    <glyph glyph-name="braceleft" unicode="{" horiz-adv-x="298" 
d="M143 -200q-26 0 -42.5 17.5t-16.5 45.5v348q0 22 -8 31.5t-28 12.5v54q36 7 36 40v305q0 30 18 48t46 18h120v-54h-104q-16 0 -16 -19v-297q0 -44 -34 -61v-4q34 -16 34 -63v-348q0 -20 16 -20h104v-54h-125z" />
    <glyph glyph-name="bar" unicode="|" horiz-adv-x="300" 
d="M120 -200v920h60v-920h-60z" />
    <glyph glyph-name="braceright" unicode="}" horiz-adv-x="298" 
d="M155 -200h-125v54h104q16 0 16 20v348q0 47 34 63v4q-34 17 -34 61v297q0 19 -16 19h-104v54h120q28 0 46 -18t18 -48v-305q0 -33 36 -40v-54q-20 -3 -28 -12.5t-8 -31.5v-348q0 -28 -16.5 -45.5t-42.5 -17.5z" />
    <glyph glyph-name="asciitilde" unicode="~" horiz-adv-x="540" 
d="M85 234l-47 9q6 71 40.5 105.5t82.5 34.5q38 0 78.5 -20.5t77 -41.5t62.5 -21q69 0 72 93l51 -9q-6 -70 -40 -103t-84 -33q-42 0 -112 41.5t-105 41.5q-66 0 -76 -97z" />
    <glyph glyph-name="uni00A0" unicode="&#xa0;" horiz-adv-x="230" 
 />
    <glyph glyph-name="exclamdown" unicode="&#xa1;" horiz-adv-x="236" 
d="M80 -200l13 522h50l13 -522h-76zM80 424v96h76v-96h-76z" />
    <glyph glyph-name="cent" unicode="&#xa2;" horiz-adv-x="506" 
d="M245 -133v124q-99 9 -153 76t-54 171q0 110 57 176.5t150 74.5v127h49v-127q84 -8 127 -57.5t43 -121.5v-15h-58v17q0 117 -112 132v-410q53 5 89 37.5t40 89.5h51q-4 -67 -51 -115.5t-129 -54.5v-124h-49zM245 35v410q-68 -5 -102.5 -50t-34.5 -153q0 -103 33 -151
t104 -56z" />
    <glyph glyph-name="sterling" unicode="&#xa3;" horiz-adv-x="706" 
d="M124 329v49h103q-36 70 -36 143q0 38 11.5 73.5t34.5 67t64 50t94 18.5q109 0 159 -53.5t50 -144.5v-56h-61v56q0 147 -144 147q-74 0 -108.5 -44t-34.5 -114q0 -55 47 -143h220v-49h-193q44 -82 44 -135q0 -43 -11 -78q116 -69 166 -69q58 0 75 31.5t19 110.5h47
q0 -111 -35 -155t-110 -44q-29 0 -64.5 12t-59 24.5t-64.5 36.5q-54 -73 -170 -73q-60 0 -95.5 29.5t-35.5 65.5q0 49 32 75.5t83 26.5q70 0 166 -47q2 16 2 27q0 56 -66 162h-129zM172 32q87 0 125 54q-95 53 -159 53q-49 0 -49 -47q0 -11 4.5 -22.5t25 -24.5t53.5 -13z
" />
    <glyph glyph-name="currency" unicode="&#xa4;" horiz-adv-x="590" 
d="M134 146l-45 44l51 52q-33 50 -33 107q0 58 33 108l-51 52l45 44l50 -51q50 36 112 36q63 0 113 -36l50 51l45 -44l-51 -52q32 -50 32 -108q0 -57 -32 -107l51 -52l-45 -44l-50 51q-50 -36 -113 -36q-62 0 -112 36zM296 213q59 0 93.5 38.5t34.5 97.5t-34.5 97.5
t-93.5 38.5t-93.5 -38.5t-34.5 -97.5t34.5 -97.5t93.5 -38.5z" />
    <glyph glyph-name="yen" unicode="&#xa5;" horiz-adv-x="558" 
d="M52 303v50h169l-209 367h79l195 -349l189 349h71l-205 -367h165v-50h-190v-104h190v-50h-190v-149h-68v149h-196v50h196v104h-196z" />
    <glyph glyph-name="brokenbar" unicode="&#xa6;" horiz-adv-x="348" 
d="M144 -200v460h60v-460h-60zM144 331v389h60v-389h-60z" />
    <glyph glyph-name="section" unicode="&#xa7;" horiz-adv-x="503" 
d="M245 -146q-85 0 -144 46t-71 134h63q11 -63 47.5 -98t115.5 -35q147 0 147 112q0 43 -30.5 69t-88.5 40l-81 20q-67 16 -107.5 49t-40.5 96q0 48 28 88.5t78 60.5q-99 42 -99 127q0 70 51 118.5t148 48.5q96 0 141.5 -41t55.5 -116h-60q-9 112 -134 112q-70 0 -105 -28
t-35 -70q0 -47 24.5 -71t92.5 -43l83 -23q67 -19 107 -50t40 -90q0 -48 -27 -89t-75 -64q95 -47 95 -127q0 -83 -59 -129.5t-160 -46.5zM298 180q53 8 82.5 41.5t29.5 71.5q0 44 -30.5 67t-90.5 38l-67 17q-46 -8 -75 -39t-29 -71q0 -45 24 -68.5t88 -39.5z" />
    <glyph glyph-name="dieresis" unicode="&#xa8;" horiz-adv-x="600" 
d="M176 569v106h62v-106h-62zM361 569v106h62v-106h-62z" />
    <glyph glyph-name="copyright" unicode="&#xa9;" horiz-adv-x="772" 
d="M384 -16q-166 0 -257 103.5t-91 270.5q0 157 96.5 264.5t251.5 107.5q161 0 256.5 -107t95.5 -265q0 -104 -40 -187.5t-121.5 -135t-190.5 -51.5zM387 31q130 0 214 89.5t84 237.5q0 151 -86.5 238t-214.5 87t-213 -88.5t-85 -236.5q0 -155 80.5 -241t220.5 -86zM392 111
q-113 0 -171.5 66t-58.5 178q0 116 61 183t162 67q94 0 142.5 -51t48.5 -128v-15h-56v17q0 65 -36 99.5t-100 34.5q-75 0 -114.5 -44.5t-39.5 -158.5q0 -111 41 -158t124 -47q57 0 96 32t43 93h52q-4 -70 -54.5 -119t-139.5 -49z" />
    <glyph glyph-name="ordfeminine" unicode="&#xaa;" horiz-adv-x="282" 
d="M112 501q35 0 52 18.5t17 46.5v30q-6 -6 -34 -10l-33 -4q-44 -6 -44 -41q0 -19 11.5 -29.5t30.5 -10.5zM109 467q-84 0 -84 70q0 66 90 76l40 5q26 3 26 20v14q0 43 -51 43q-54 0 -54 -40v-12h-42v8q0 75 99 75q92 0 92 -78v-104q0 -40 34 -40h5l-2 -35h-17q-45 0 -53 42
h-2q-21 -44 -81 -44zM39 399v36h192v-36h-192z" />
    <glyph glyph-name="guillemotleft" unicode="&#xab;" horiz-adv-x="304" 
d="M113 33l-81 193v28l81 192h51l-85 -205l84 -208h-50zM235 33l-80 193v28l81 192h50l-85 -205l85 -208h-51z" />
    <glyph glyph-name="logicalnot" unicode="&#xac;" horiz-adv-x="540" 
d="M438 141v147h-395v52h454v-199h-59z" />
    <glyph glyph-name="uni00AD" unicode="&#xad;" horiz-adv-x="358" 
d="M44 252v65h270v-65h-270z" />
    <glyph glyph-name="registered" unicode="&#xae;" horiz-adv-x="443" 
d="M221 360q-86 0 -132.5 52.5t-46.5 137.5q0 80 49.5 135t129.5 55q83 0 131.5 -54t48.5 -136q0 -80 -48.5 -135t-131.5 -55zM222 392q64 0 104.5 43.5t40.5 114.5q0 75 -41 117.5t-105 42.5t-104 -43t-40 -117q0 -75 38.5 -116.5t106.5 -41.5zM143 438v227h96q71 0 71 -60
q0 -21 -13 -36t-32 -18v-1q18 -4 29.5 -17t11.5 -30v-23q0 -27 4 -39v-3h-41q-4 13 -4 39v23q0 36 -41 36h-43v-98h-38zM181 563h52q38 0 38 40q0 15 -10 25t-29 10h-51v-75z" />
    <glyph glyph-name="macron" unicode="&#xaf;" horiz-adv-x="600" 
d="M169 594v60h262v-60h-262z" />
    <glyph glyph-name="degree" unicode="&#xb0;" horiz-adv-x="328" 
d="M163 481q-51 0 -86 33t-35 87q0 51 34 87.5t87 36.5q56 0 89.5 -34.5t33.5 -82.5q0 -56 -35 -91.5t-88 -35.5zM165 522q33 0 55 23.5t22 60.5q0 32 -21 55t-58 23q-34 0 -55.5 -24t-21.5 -59t22.5 -57t56.5 -22z" />
    <glyph glyph-name="plusminus" unicode="&#xb1;" horiz-adv-x="540" 
d="M43 0v52h454v-52h-454zM243 147v204h-200v52h200v203h52v-203h202v-52h-202v-204h-52z" />
    <glyph glyph-name="twosuperior" unicode="&#xb2;" 
d="M50 440v40l73 64q35 30 53 48t34 47t16 60t-17 50t-49 19t-51 -17.5t-19 -47.5v-34h-48v27q0 48 31.5 79t88.5 31q58 0 86.5 -31.5t28.5 -74.5q0 -47 -31 -88.5t-86 -86.5l-48 -40v-2h166v-43h-228z" />
    <glyph glyph-name="threesuperior" unicode="&#xb3;" 
d="M162 435q-60 0 -91.5 32.5t-34.5 83.5h53v-3q5 -42 24.5 -58.5t53.5 -16.5q62 0 62 69q0 62 -65 62h-55v39h54q54 0 54 66q0 58 -62 58q-26 0 -44.5 -16t-19.5 -50v-5h-49q1 50 30 80t86 30t84.5 -28.5t27.5 -61.5t-17.5 -56.5t-47.5 -30.5v-2q32 -5 55 -26t23 -56
q0 -49 -32.5 -79.5t-88.5 -30.5z" />
    <glyph glyph-name="acute" unicode="&#xb4;" horiz-adv-x="600" 
d="M230 564l68 156h72l-91 -156h-49z" />
    <glyph glyph-name="mu" unicode="&#xb5;" horiz-adv-x="537" 
d="M80 -185v665h62v-340q0 -103 85 -103q67 0 110 54.5t43 103.5v285h62v-377q0 -57 40 -57q22 0 40 7v-49q-23 -8 -54 -8q-74 0 -82 102h-7q-18 -48 -60 -78t-91 -30q-30 0 -57 13.5t-39 44.5h-3l17 -215z" />
    <glyph glyph-name="paragraph" unicode="&#xb6;" horiz-adv-x="588" 
d="M240 -148v389q-96 5 -142.5 71.5t-46.5 165.5q0 96 55.5 169t140.5 73h294v-59h-81v-809h-59v809h-103v-809h-58z" />
    <glyph glyph-name="periodcentered" unicode="&#xb7;" horiz-adv-x="220" 
d="M72 325v96h76v-96h-76z" />
    <glyph glyph-name="cedilla" unicode="&#xb8;" horiz-adv-x="600" 
d="M301 -204q-116 0 -116 93h49q3 -24 17 -37.5t51 -13.5q56 0 56 40q0 16 -18.5 28t-59.5 12v88h44v-58q48 -5 69 -27t21 -48q0 -38 -31 -57.5t-82 -19.5z" />
    <glyph glyph-name="onesuperior" unicode="&#xb9;" 
d="M54 440v41h82v250h-2q-12 -50 -76 -56v49q66 14 82 77h44v-320h82v-41h-212z" />
    <glyph glyph-name="ordmasculine" unicode="&#xba;" horiz-adv-x="298" 
d="M50 399v36h198v-36h-198zM148 468q-56 0 -87 34.5t-31 90.5q0 61 32.5 97t84.5 36q58 0 89.5 -33.5t31.5 -91.5q0 -62 -32.5 -97.5t-87.5 -35.5zM149 500q38 0 54.5 23t16.5 79q0 92 -73 92q-69 0 -69 -97q0 -54 18 -75.5t53 -21.5z" />
    <glyph glyph-name="guillemotright" unicode="&#xbb;" horiz-adv-x="304" 
d="M18 33l85 208l-85 205h50l81 -192v-28l-80 -193h-51zM141 33l84 208l-85 205h51l81 -192v-28l-81 -193h-50z" />
    <glyph glyph-name="onequarter" unicode="&#xbc;" horiz-adv-x="722" 
d="M59 359v41h82v250h-2q-12 -50 -76 -56v49q66 14 82 77h44v-320h82v-41h-212zM564 0v93h-159v42l149 227h61v-229h62v-40h-62v-93h-51zM447 133h117v172h-2zM172 -12l-37 23l443 720l37 -21z" />
    <glyph glyph-name="onehalf" unicode="&#xbd;" horiz-adv-x="722" 
d="M59 359v41h82v250h-2q-12 -50 -76 -56v49q66 14 82 77h44v-320h82v-41h-212zM453 0v40l73 64q35 30 53 48t34 47t16 60t-17 50t-49 19t-51 -17.5t-19 -47.5v-34h-48v27q0 48 31.5 79t88.5 31q58 0 86.5 -31.5t28.5 -74.5q0 -47 -31 -88.5t-86 -86.5l-48 -40v-2h166v-43
h-228zM172 -12l-37 23l443 720l37 -21z" />
    <glyph glyph-name="threequarters" unicode="&#xbe;" horiz-adv-x="722" 
d="M196 354q-60 0 -91.5 32.5t-34.5 83.5h53v-3q5 -42 24.5 -58.5t53.5 -16.5q62 0 62 69q0 62 -65 62h-55v39h54q54 0 54 66q0 58 -62 58q-26 0 -44.5 -16t-19.5 -50v-5h-49q1 50 30 80t86 30t84.5 -28.5t27.5 -61.5t-17.5 -56.5t-47.5 -30.5v-2q32 -5 55 -26t23 -56
q0 -49 -32.5 -79.5t-88.5 -30.5zM561 0v93h-159v42l149 227h61v-229h62v-40h-62v-93h-51zM444 133h117v172h-2zM180 -12l-37 23l443 720l37 -21z" />
    <glyph glyph-name="questiondown" unicode="&#xbf;" horiz-adv-x="466" 
d="M233 -210q-87 0 -139 51t-52 126q0 45 11.5 82t26 60.5t42 46.5t46 34.5t51.5 29.5l7 103h50l7 -134q-43 -22 -63.5 -33.5t-47 -31t-37.5 -38t-19 -46.5t-8 -65q0 -62 35 -96.5t96 -34.5q124 0 124 134h61q0 -84 -46 -136t-145 -52zM212 424v96h76v-96h-76z" />
    <glyph glyph-name="Agrave" unicode="&#xc0;" horiz-adv-x="612" 
d="M22 0l253 724h63l252 -724h-69l-62 177h-309l-60 -177h-68zM170 234h270l-134 387h-4zM275 780l-99 150h81l73 -150h-55z" />
    <glyph glyph-name="Aacute" unicode="&#xc1;" horiz-adv-x="612" 
d="M22 0l253 724h63l252 -724h-69l-62 177h-309l-60 -177h-68zM170 234h270l-134 387h-4zM287 780l73 150h81l-99 -150h-55z" />
    <glyph glyph-name="Acircumflex" unicode="&#xc2;" horiz-adv-x="612" 
d="M22 0l253 724h63l252 -724h-69l-62 177h-309l-60 -177h-68zM170 234h270l-134 387h-4zM177 780l104 153h54l102 -153h-61l-71 107l-72 -107h-56z" />
    <glyph glyph-name="Atilde" unicode="&#xc3;" horiz-adv-x="612" 
d="M22 0l253 724h63l252 -724h-69l-62 177h-309l-60 -177h-68zM170 234h270l-134 387h-4zM206 793l-50 8q17 92 86 92q30 0 72 -17.5t63 -17.5q15 0 23 11t13 34l51 -10q-18 -90 -85 -90q-34 0 -77.5 17t-58.5 17t-23 -10t-14 -34z" />
    <glyph glyph-name="Adieresis" unicode="&#xc4;" horiz-adv-x="612" 
d="M22 0l253 724h63l252 -724h-69l-62 177h-309l-60 -177h-68zM170 234h270l-134 387h-4zM182 802v106h62v-106h-62zM367 802v106h62v-106h-62z" />
    <glyph glyph-name="Aring" unicode="&#xc5;" horiz-adv-x="612" 
d="M22 0l253 724h63l252 -724h-69l-62 177h-309l-60 -177h-68zM170 234h270l-134 387h-4zM304 771q-40 0 -65.5 23.5t-25.5 61.5q0 40 26 65.5t67 25.5q40 0 65 -23.5t25 -62.5q0 -40 -25.5 -65t-66.5 -25zM305 807q23 0 37 14t14 38q0 23 -13.5 36.5t-37.5 13.5
q-25 0 -39 -13.5t-14 -37.5t14.5 -37.5t38.5 -13.5z" />
    <glyph glyph-name="AE" unicode="&#xc6;" horiz-adv-x="874" 
d="M16 0l353 720h446v-55h-345v-262h245v-55h-245v-293h358v-55h-426v177h-235l-85 -177h-66zM195 234h207v424h-2z" />
    <glyph glyph-name="Ccedilla" unicode="&#xc7;" horiz-adv-x="604" 
d="M310 -82v72q-133 2 -199.5 89.5t-66.5 270.5q0 192 72 286t204 94q111 0 169 -67.5t67 -173.5h-64q-4 40 -13.5 70.5t-28.5 58t-52 42.5t-78 15q-113 0 -158.5 -77.5t-45.5 -229.5q0 -183 51 -253t161 -70q92 0 136 61t44 157h62q-5 -115 -59.5 -187t-156.5 -84v-44
q48 -5 69 -27t21 -48q0 -38 -31 -57.5t-82 -19.5q-116 0 -116 93h49q3 -24 17 -37.5t51 -13.5q56 0 56 40q0 16 -18.5 28t-59.5 12z" />
    <glyph glyph-name="Egrave" unicode="&#xc8;" horiz-adv-x="556" 
d="M84 0v720h413v-55h-345v-262h245v-55h-245v-293h358v-55h-426zM276 780l-99 150h81l73 -150h-55z" />
    <glyph glyph-name="Eacute" unicode="&#xc9;" horiz-adv-x="556" 
d="M84 0v720h413v-55h-345v-262h245v-55h-245v-293h358v-55h-426zM260 780l73 150h81l-99 -150h-55z" />
    <glyph glyph-name="Ecircumflex" unicode="&#xca;" horiz-adv-x="556" 
d="M84 0v720h413v-55h-345v-262h245v-55h-245v-293h358v-55h-426zM174 780l104 153h54l102 -153h-61l-71 107l-72 -107h-56z" />
    <glyph glyph-name="Edieresis" unicode="&#xcb;" horiz-adv-x="556" 
d="M84 0v720h413v-55h-345v-262h245v-55h-245v-293h358v-55h-426zM173 802v106h62v-106h-62zM358 802v106h62v-106h-62z" />
    <glyph glyph-name="Igrave" unicode="&#xcc;" horiz-adv-x="236" 
d="M84 0v720h68v-720h-68zM90 780l-99 150h81l73 -150h-55z" />
    <glyph glyph-name="Iacute" unicode="&#xcd;" horiz-adv-x="236" 
d="M84 0v720h68v-720h-68zM89 780l73 150h81l-99 -150h-55z" />
    <glyph glyph-name="Icircumflex" unicode="&#xce;" horiz-adv-x="236" 
d="M84 0v720h68v-720h-68zM-13 780l104 153h54l102 -153h-61l-71 107l-72 -107h-56z" />
    <glyph glyph-name="Idieresis" unicode="&#xcf;" horiz-adv-x="236" 
d="M84 0v720h68v-720h-68zM-6 802v106h62v-106h-62zM179 802v106h62v-106h-62z" />
    <glyph glyph-name="Eth" unicode="&#xd0;" horiz-adv-x="664" 
d="M15 346v54h69v320h236q144 0 222 -101t78 -256q0 -363 -283 -363h-253v346h-69zM152 55h189q61 0 103 23.5t64 68.5t31 98.5t9 125.5q0 129 -56 211.5t-167 82.5h-173v-265h178v-54h-178v-291z" />
    <glyph glyph-name="Ntilde" unicode="&#xd1;" horiz-adv-x="662" 
d="M517 -1l-369 631h-2v-630h-62v720h85l345 -587h3v587h61v-721h-61zM243 793l-50 8q17 92 86 92q29 0 72 -17.5t63 -17.5q15 0 23 11t13 34l51 -10q-18 -90 -85 -90q-34 0 -77.5 17t-58.5 17t-23 -10t-14 -34z" />
    <glyph glyph-name="Ograve" unicode="&#xd2;" horiz-adv-x="687" 
d="M341 -10q-297 0 -297 360q0 180 81 280t220 100q137 0 217.5 -97.5t80.5 -263.5q0 -379 -302 -379zM347 44q120 0 172 77.5t52 250.5q0 147 -61 225.5t-169 78.5q-112 0 -168.5 -84t-56.5 -222q0 -176 52.5 -251t178.5 -75zM315 780l-99 150h81l73 -150h-55z" />
    <glyph glyph-name="Oacute" unicode="&#xd3;" horiz-adv-x="687" 
d="M341 -10q-297 0 -297 360q0 180 81 280t220 100q137 0 217.5 -97.5t80.5 -263.5q0 -379 -302 -379zM347 44q120 0 172 77.5t52 250.5q0 147 -61 225.5t-169 78.5q-112 0 -168.5 -84t-56.5 -222q0 -176 52.5 -251t178.5 -75zM308 780l73 150h81l-99 -150h-55z" />
    <glyph glyph-name="Ocircumflex" unicode="&#xd4;" horiz-adv-x="687" 
d="M341 -10q-297 0 -297 360q0 180 81 280t220 100q137 0 217.5 -97.5t80.5 -263.5q0 -379 -302 -379zM347 44q120 0 172 77.5t52 250.5q0 147 -61 225.5t-169 78.5q-112 0 -168.5 -84t-56.5 -222q0 -176 52.5 -251t178.5 -75zM212 780l104 153h54l102 -153h-61l-71 107
l-72 -107h-56z" />
    <glyph glyph-name="Otilde" unicode="&#xd5;" horiz-adv-x="687" 
d="M341 -10q-297 0 -297 360q0 180 81 280t220 100q137 0 217.5 -97.5t80.5 -263.5q0 -379 -302 -379zM347 44q120 0 172 77.5t52 250.5q0 147 -61 225.5t-169 78.5q-112 0 -168.5 -84t-56.5 -222q0 -176 52.5 -251t178.5 -75zM243 793l-50 8q17 92 86 92q29 0 72 -17.5
t63 -17.5q15 0 23 11t13 34l51 -10q-18 -90 -85 -90q-34 0 -77.5 17t-58.5 17t-23 -10t-14 -34z" />
    <glyph glyph-name="Odieresis" unicode="&#xd6;" horiz-adv-x="687" 
d="M341 -10q-297 0 -297 360q0 180 81 280t220 100q137 0 217.5 -97.5t80.5 -263.5q0 -379 -302 -379zM347 44q120 0 172 77.5t52 250.5q0 147 -61 225.5t-169 78.5q-112 0 -168.5 -84t-56.5 -222q0 -176 52.5 -251t178.5 -75zM219 802v106h62v-106h-62zM404 802v106h62
v-106h-62z" />
    <glyph glyph-name="multiply" unicode="&#xd7;" horiz-adv-x="540" 
d="M117 124l-37 36l153 153l-153 154l36 36l153 -153l154 154l37 -37l-154 -154l154 -154l-37 -37l-154 154z" />
    <glyph glyph-name="Oslash" unicode="&#xd8;" horiz-adv-x="687" 
d="M341 -10q-100 0 -168 41l-46 -72l-46 26l51 79q-88 89 -88 286q0 180 81 280t220 100q104 0 177 -59l45 70l45 -26l-52 -81q83 -97 83 -265q0 -379 -302 -379zM347 44q120 0 172 77.5t52 250.5q0 128 -48 205l-318 -496q50 -37 142 -37zM167 120l322 500q-58 56 -148 56
q-112 0 -168.5 -84t-56.5 -222q0 -176 51 -250z" />
    <glyph glyph-name="Ugrave" unicode="&#xd9;" horiz-adv-x="648" 
d="M320 -10q-244 0 -244 242v488h68v-503q0 -168 181 -168q100 0 141.5 39.5t41.5 110.5v521h64v-504q0 -226 -252 -226zM310 780l-99 150h81l73 -150h-55z" />
    <glyph glyph-name="Uacute" unicode="&#xda;" horiz-adv-x="648" 
d="M320 -10q-244 0 -244 242v488h68v-503q0 -168 181 -168q100 0 141.5 39.5t41.5 110.5v521h64v-504q0 -226 -252 -226zM291 780l73 150h81l-99 -150h-55z" />
    <glyph glyph-name="Ucircumflex" unicode="&#xdb;" horiz-adv-x="648" 
d="M320 -10q-244 0 -244 242v488h68v-503q0 -168 181 -168q100 0 141.5 39.5t41.5 110.5v521h64v-504q0 -226 -252 -226zM204 780l104 153h54l102 -153h-61l-71 107l-72 -107h-56z" />
    <glyph glyph-name="Udieresis" unicode="&#xdc;" horiz-adv-x="648" 
d="M320 -10q-244 0 -244 242v488h68v-503q0 -168 181 -168q100 0 141.5 39.5t41.5 110.5v521h64v-504q0 -226 -252 -226zM214 802v106h62v-106h-62zM399 802v106h62v-106h-62z" />
    <glyph glyph-name="Yacute" unicode="&#xdd;" horiz-adv-x="558" 
d="M248 0v307l-236 413h79l195 -349l189 349h71l-230 -413v-307h-68zM251 780l73 150h81l-99 -150h-55z" />
    <glyph glyph-name="Thorn" unicode="&#xde;" horiz-adv-x="589" 
d="M84 0v720h68v-142h165q99 0 166.5 -48t67.5 -148q0 -59 -22.5 -101.5t-57.5 -63.5t-69 -30.5t-66 -9.5h-184v-177h-68zM152 232h193q137 0 137 144q0 78 -39 112.5t-117 34.5h-174v-291z" />
    <glyph glyph-name="germandbls" unicode="&#xdf;" horiz-adv-x="558" 
d="M227 -1v43h109q65 0 95.5 38t30.5 123q0 172 -178 185v44q50 14 77.5 43.5t27.5 94.5q0 114 -116 114q-127 0 -127 -138v-546h-62v510q0 216 189 216q49 0 85 -15.5t54 -40.5t26 -50t8 -51q0 -117 -105 -149q92 -17 138.5 -78t46.5 -137q0 -97 -50.5 -151.5t-138.5 -54.5
h-110z" />
    <glyph glyph-name="agrave" unicode="&#xe0;" horiz-adv-x="520" 
d="M203 -10q-68 0 -113.5 36t-45.5 105q0 38 13.5 65t38.5 42t49.5 22.5t57.5 11.5l92 12q35 4 49 14t14 29v27q0 52 -30.5 71t-89.5 19q-121 0 -121 -81v-17h-54v17q0 66 50.5 96.5t129.5 30.5q76 0 126 -31.5t50 -103.5v-243q0 -41 21.5 -57t48.5 -16h11v-42h-19
q-33 0 -55.5 8t-34 23.5t-16 27.5t-7.5 31h-2q-21 -52 -67 -74.5t-96 -22.5zM211 34q74 0 110.5 52t36.5 123v54q-14 -15 -77 -25l-73 -10q-57 -7 -81 -26t-24 -69q0 -99 108 -99zM223 564l-91 156h72l68 -156h-49z" />
    <glyph glyph-name="aacute" unicode="&#xe1;" horiz-adv-x="520" 
d="M203 -10q-68 0 -113.5 36t-45.5 105q0 38 13.5 65t38.5 42t49.5 22.5t57.5 11.5l92 12q35 4 49 14t14 29v27q0 52 -30.5 71t-89.5 19q-121 0 -121 -81v-17h-54v17q0 66 50.5 96.5t129.5 30.5q76 0 126 -31.5t50 -103.5v-243q0 -41 21.5 -57t48.5 -16h11v-42h-19
q-33 0 -55.5 8t-34 23.5t-16 27.5t-7.5 31h-2q-21 -52 -67 -74.5t-96 -22.5zM211 34q74 0 110.5 52t36.5 123v54q-14 -15 -77 -25l-73 -10q-57 -7 -81 -26t-24 -69q0 -99 108 -99zM209 564l68 156h72l-91 -156h-49z" />
    <glyph glyph-name="acircumflex" unicode="&#xe2;" horiz-adv-x="520" 
d="M203 -10q-68 0 -113.5 36t-45.5 105q0 38 13.5 65t38.5 42t49.5 22.5t57.5 11.5l92 12q35 4 49 14t14 29v27q0 52 -30.5 71t-89.5 19q-121 0 -121 -81v-17h-54v17q0 66 50.5 96.5t129.5 30.5q76 0 126 -31.5t50 -103.5v-243q0 -41 21.5 -57t48.5 -16h11v-42h-19
q-33 0 -55.5 8t-34 23.5t-16 27.5t-7.5 31h-2q-21 -52 -67 -74.5t-96 -22.5zM211 34q74 0 110.5 52t36.5 123v54q-14 -15 -77 -25l-73 -10q-57 -7 -81 -26t-24 -69q0 -99 108 -99zM114 564l100 156h51l97 -156h-59l-65 108l-68 -108h-56z" />
    <glyph glyph-name="atilde" unicode="&#xe3;" horiz-adv-x="520" 
d="M203 -10q-68 0 -113.5 36t-45.5 105q0 38 13.5 65t38.5 42t49.5 22.5t57.5 11.5l92 12q35 4 49 14t14 29v27q0 52 -30.5 71t-89.5 19q-121 0 -121 -81v-17h-54v17q0 66 50.5 96.5t129.5 30.5q76 0 126 -31.5t50 -103.5v-243q0 -41 21.5 -57t48.5 -16h11v-42h-19
q-33 0 -55.5 8t-34 23.5t-16 27.5t-7.5 31h-2q-21 -52 -67 -74.5t-96 -22.5zM211 34q74 0 110.5 52t36.5 123v54q-14 -15 -77 -25l-73 -10q-57 -7 -81 -26t-24 -69q0 -99 108 -99zM130 562l-39 7q6 42 28 66.5t55 24.5q26 0 68.5 -21t63.5 -21q30 0 40 47l40 -8
q-4 -37 -25 -64t-54 -27q-23 0 -69 21.5t-61 21.5q-36 0 -47 -47z" />
    <glyph glyph-name="adieresis" unicode="&#xe4;" horiz-adv-x="520" 
d="M203 -10q-68 0 -113.5 36t-45.5 105q0 38 13.5 65t38.5 42t49.5 22.5t57.5 11.5l92 12q35 4 49 14t14 29v27q0 52 -30.5 71t-89.5 19q-121 0 -121 -81v-17h-54v17q0 66 50.5 96.5t129.5 30.5q76 0 126 -31.5t50 -103.5v-243q0 -41 21.5 -57t48.5 -16h11v-42h-19
q-33 0 -55.5 8t-34 23.5t-16 27.5t-7.5 31h-2q-21 -52 -67 -74.5t-96 -22.5zM211 34q74 0 110.5 52t36.5 123v54q-14 -15 -77 -25l-73 -10q-57 -7 -81 -26t-24 -69q0 -99 108 -99zM111 569v106h62v-106h-62zM296 569v106h62v-106h-62z" />
    <glyph glyph-name="aring" unicode="&#xe5;" horiz-adv-x="520" 
d="M203 -10q-68 0 -113.5 36t-45.5 105q0 38 13.5 65t38.5 42t49.5 22.5t57.5 11.5l92 12q35 4 49 14t14 29v27q0 52 -30.5 71t-89.5 19q-121 0 -121 -81v-17h-54v17q0 66 50.5 96.5t129.5 30.5q76 0 126 -31.5t50 -103.5v-243q0 -41 21.5 -57t48.5 -16h11v-42h-19
q-33 0 -55.5 8t-34 23.5t-16 27.5t-7.5 31h-2q-21 -52 -67 -74.5t-96 -22.5zM211 34q74 0 110.5 52t36.5 123v54q-14 -15 -77 -25l-73 -10q-57 -7 -81 -26t-24 -69q0 -99 108 -99zM239 550q-39 0 -64.5 23t-25.5 59q0 39 26 64t66 25q38 0 62.5 -23t24.5 -62t-25 -62.5
t-64 -23.5zM240 585q22 0 35.5 13.5t13.5 36.5t-13.5 36t-35.5 13q-25 0 -38.5 -13t-13.5 -36q0 -24 14 -37t38 -13z" />
    <glyph glyph-name="ae" unicode="&#xe6;" horiz-adv-x="822" 
d="M203 -10q-68 0 -113.5 36t-45.5 105q0 38 13.5 65t38.5 42t49.5 22.5t57.5 11.5l92 12q35 5 49 14t14 28v28q0 52 -30.5 71t-89.5 19q-121 0 -121 -81v-17h-54v17q0 66 50.5 96.5t129.5 30.5q129 0 164 -78q55 78 169 78q98 0 154 -63t56 -163v-24h-368q0 -206 159 -206
q60 0 103 31.5t47 96.5h55q-12 -85 -70 -128.5t-129 -43.5q-76 0 -127.5 32.5t-71.5 92.5q-47 -125 -181 -125zM211 34q74 0 110.5 51.5t36.5 122.5v55q-14 -16 -77 -25l-73 -10q-57 -7 -81 -26t-24 -69q0 -99 108 -99zM421 285h299q-12 162 -146 162q-149 0 -153 -162z" />
    <glyph glyph-name="ccedilla" unicode="&#xe7;" horiz-adv-x="506" 
d="M246 -82v73q-99 9 -153.5 76t-54.5 171q0 117 63.5 184.5t165.5 67.5q97 0 147 -52t50 -130v-15h-58v17q0 67 -37.5 101.5t-102.5 34.5q-79 0 -118.5 -44t-39.5 -160q0 -113 41 -160.5t128 -47.5q58 0 99 32.5t45 94.5h53q-4 -68 -52 -117t-132 -53v-43q48 -5 69 -27
t21 -48q0 -38 -31 -57.5t-82 -19.5q-116 0 -116 93h49q3 -24 17 -37.5t51 -13.5q56 0 56 40q0 16 -18.5 28t-59.5 12z" />
    <glyph glyph-name="egrave" unicode="&#xe8;" horiz-adv-x="512" 
d="M273 -10q-115 0 -175 68.5t-60 178.5q0 115 60 184t168 69q98 0 154 -63t56 -163v-24h-368v-7q3 -199 159 -199q61 0 102.5 31t47.5 97h55q-12 -85 -70 -128.5t-129 -43.5zM111 285h299q-12 162 -146 162q-149 0 -153 -162zM235 564l-91 156h72l68 -156h-49z" />
    <glyph glyph-name="eacute" unicode="&#xe9;" horiz-adv-x="512" 
d="M273 -10q-115 0 -175 68.5t-60 178.5q0 115 60 184t168 69q98 0 154 -63t56 -163v-24h-368v-7q3 -199 159 -199q61 0 102.5 31t47.5 97h55q-12 -85 -70 -128.5t-129 -43.5zM111 285h299q-12 162 -146 162q-149 0 -153 -162zM234 564l68 156h72l-91 -156h-49z" />
    <glyph glyph-name="ecircumflex" unicode="&#xea;" horiz-adv-x="512" 
d="M273 -10q-115 0 -175 68.5t-60 178.5q0 115 60 184t168 69q98 0 154 -63t56 -163v-24h-368v-7q3 -199 159 -199q61 0 102.5 31t47.5 97h55q-12 -85 -70 -128.5t-129 -43.5zM111 285h299q-12 162 -146 162q-149 0 -153 -162zM128 564l100 156h51l97 -156h-59l-65 108
l-68 -108h-56z" />
    <glyph glyph-name="edieresis" unicode="&#xeb;" horiz-adv-x="512" 
d="M273 -10q-115 0 -175 68.5t-60 178.5q0 115 60 184t168 69q98 0 154 -63t56 -163v-24h-368v-7q3 -199 159 -199q61 0 102.5 31t47.5 97h55q-12 -85 -70 -128.5t-129 -43.5zM111 285h299q-12 162 -146 162q-149 0 -153 -162zM132 569v106h62v-106h-62zM317 569v106h62
v-106h-62z" />
    <glyph glyph-name="igrave" unicode="&#xec;" horiz-adv-x="230" 
d="M84 0v480h62v-480h-62zM89 564l-91 156h72l68 -156h-49z" />
    <glyph glyph-name="iacute" unicode="&#xed;" horiz-adv-x="230" 
d="M84 0v480h62v-480h-62zM91 564l68 156h72l-91 -156h-49z" />
    <glyph glyph-name="icircumflex" unicode="&#xee;" horiz-adv-x="230" 
d="M0 564l91 156h51l88 -156h-59l-56 108l-59 -108h-56zM84 0v480h62v-480h-62z" />
    <glyph glyph-name="idieresis" unicode="&#xef;" horiz-adv-x="230" 
d="M-1 569v106h62v-106h-62zM168 569v106h62v-106h-62zM84 0v480h62v-480h-62z" />
    <glyph glyph-name="eth" unicode="&#xf0;" horiz-adv-x="530" 
d="M76 560v48l93 26l-79 86h68l65 -71l119 33v-48l-84 -24l118 -129q52 -56 57 -63q59 -80 59 -173q0 -117 -62 -186t-165 -69q-104 0 -165.5 69t-61.5 175q0 118 63.5 187t161.5 69q21 0 41 -3l-100 108zM267 34q86 0 120.5 47t34.5 162q0 105 -38.5 154t-121.5 49
q-88 0 -121 -52t-33 -155q0 -117 41.5 -161t117.5 -44z" />
    <glyph glyph-name="ntilde" unicode="&#xf1;" horiz-adv-x="526" 
d="M84 0v480h60v-99h2q25 47 73 78t101 31q62 0 94 -34t32 -98v-358h-62v358q0 44 -19.5 64t-60.5 20q-40 0 -86.5 -33t-71.5 -86v-323h-62zM174 562l-39 7q6 42 28 66.5t55 24.5q26 0 68.5 -21t63.5 -21q30 0 40 47l40 -8q-4 -37 -25 -64t-54 -27q-23 0 -69 21.5t-61 21.5
q-36 0 -47 -47z" />
    <glyph glyph-name="ograve" unicode="&#xf2;" horiz-adv-x="530" 
d="M266 -10q-105 0 -166.5 69t-61.5 175q0 118 63.5 187t161.5 69q106 0 167.5 -66.5t61.5 -181.5t-62 -183.5t-164 -68.5zM267 34q86 0 120.5 47t34.5 162q0 105 -38.5 154t-121.5 49q-88 0 -121 -52t-33 -155q0 -117 41.5 -161t117.5 -44zM239 564l-91 156h72l68 -156h-49
z" />
    <glyph glyph-name="oacute" unicode="&#xf3;" horiz-adv-x="530" 
d="M266 -10q-105 0 -166.5 69t-61.5 175q0 118 63.5 187t161.5 69q106 0 167.5 -66.5t61.5 -181.5t-62 -183.5t-164 -68.5zM267 34q86 0 120.5 47t34.5 162q0 105 -38.5 154t-121.5 49q-88 0 -121 -52t-33 -155q0 -117 41.5 -161t117.5 -44zM241 564l68 156h72l-91 -156h-49
z" />
    <glyph glyph-name="ocircumflex" unicode="&#xf4;" horiz-adv-x="530" 
d="M266 -10q-105 0 -166.5 69t-61.5 175q0 118 63.5 187t161.5 69q106 0 167.5 -66.5t61.5 -181.5t-62 -183.5t-164 -68.5zM267 34q86 0 120.5 47t34.5 162q0 105 -38.5 154t-121.5 49q-88 0 -121 -52t-33 -155q0 -117 41.5 -161t117.5 -44zM137 564l100 156h51l97 -156h-59
l-65 108l-68 -108h-56z" />
    <glyph glyph-name="otilde" unicode="&#xf5;" horiz-adv-x="530" 
d="M266 -10q-105 0 -166.5 69t-61.5 175q0 118 63.5 187t161.5 69q106 0 167.5 -66.5t61.5 -181.5t-62 -183.5t-164 -68.5zM267 34q86 0 120.5 47t34.5 162q0 105 -38.5 154t-121.5 49q-88 0 -121 -52t-33 -155q0 -117 41.5 -161t117.5 -44zM161 562l-39 7q6 42 28 66.5
t55 24.5q26 0 68.5 -21t63.5 -21q30 0 40 47l40 -8q-4 -37 -25 -64t-54 -27q-23 0 -69 21.5t-61 21.5q-36 0 -47 -47z" />
    <glyph glyph-name="odieresis" unicode="&#xf6;" horiz-adv-x="530" 
d="M266 -10q-105 0 -166.5 69t-61.5 175q0 118 63.5 187t161.5 69q106 0 167.5 -66.5t61.5 -181.5t-62 -183.5t-164 -68.5zM267 34q86 0 120.5 47t34.5 162q0 105 -38.5 154t-121.5 49q-88 0 -121 -52t-33 -155q0 -117 41.5 -161t117.5 -44zM141 569v106h62v-106h-62z
M326 569v106h62v-106h-62z" />
    <glyph glyph-name="divide" unicode="&#xf7;" horiz-adv-x="540" 
d="M231 89v104h79v-104h-79zM43 288v52h454v-52h-454zM231 434v105h79v-105h-79z" />
    <glyph glyph-name="oslash" unicode="&#xf8;" horiz-adv-x="530" 
d="M266 -10q-59 0 -111 26l-42 -68l-38 23l44 69q-81 67 -81 194q0 118 63.5 187t161.5 69q68 0 120 -30l47 74l37 -22l-49 -77q74 -68 74 -193q0 -115 -62 -183.5t-164 -68.5zM267 34q86 0 120.5 47t34.5 162q0 95 -33 145l-210 -335q34 -19 88 -19zM145 82l213 338
q-37 26 -96 26q-88 0 -121 -52t-33 -155q0 -109 37 -157z" />
    <glyph glyph-name="ugrave" unicode="&#xf9;" horiz-adv-x="526" 
d="M209 -10q-129 0 -129 135v355h62v-358q0 -44 19.5 -64t60.5 -20q40 0 86.5 33t71.5 86v323h62v-480h-60v99h-2q-24 -47 -71.5 -78t-99.5 -31zM250 564l-91 156h72l68 -156h-49z" />
    <glyph glyph-name="uacute" unicode="&#xfa;" horiz-adv-x="526" 
d="M209 -10q-129 0 -129 135v355h62v-358q0 -44 19.5 -64t60.5 -20q40 0 86.5 33t71.5 86v323h62v-480h-60v99h-2q-24 -47 -71.5 -78t-99.5 -31zM242 564l68 156h72l-91 -156h-49z" />
    <glyph glyph-name="ucircumflex" unicode="&#xfb;" horiz-adv-x="526" 
d="M209 -10q-129 0 -129 135v355h62v-358q0 -44 19.5 -64t60.5 -20q40 0 86.5 33t71.5 86v323h62v-480h-60v99h-2q-24 -47 -71.5 -78t-99.5 -31zM135 564l100 156h51l97 -156h-59l-65 108l-68 -108h-56z" />
    <glyph glyph-name="udieresis" unicode="&#xfc;" horiz-adv-x="526" 
d="M209 -10q-129 0 -129 135v355h62v-358q0 -44 19.5 -64t60.5 -20q40 0 86.5 33t71.5 86v323h62v-480h-60v99h-2q-24 -47 -71.5 -78t-99.5 -31zM139 569v106h62v-106h-62zM324 569v106h62v-106h-62z" />
    <glyph glyph-name="yacute" unicode="&#xfd;" horiz-adv-x="400" 
d="M31 -205v60q65 0 93.5 31.5t52.5 109.5l-165 484h62l131 -390h2l125 390h56l-164 -494q-33 -101 -79 -146t-114 -45zM177 564l68 156h72l-91 -156h-49z" />
    <glyph glyph-name="thorn" unicode="&#xfe;" horiz-adv-x="544" 
d="M84 -200v920h62v-321q29 46 72.5 68.5t89.5 22.5q33 0 66.5 -14t63.5 -41.5t49 -76.5t19 -112q0 -122 -60 -189t-148 -67q-51 0 -91 22.5t-61 59.5v-272h-62zM295 33q80 0 110.5 53.5t30.5 159.5q0 201 -142 201q-91 0 -148 -103v-208q43 -103 149 -103z" />
    <glyph glyph-name="ydieresis" unicode="&#xff;" horiz-adv-x="400" 
d="M31 -205v60q65 0 93.5 31.5t52.5 109.5l-165 484h62l131 -390h2l125 390h56l-164 -494q-33 -101 -79 -146t-114 -45zM76 569v106h62v-106h-62zM261 569v106h62v-106h-62z" />
    <glyph glyph-name="Amacron" unicode="&#x100;" horiz-adv-x="612" 
d="M22 0l253 724h63l252 -724h-69l-62 177h-309l-60 -177h-68zM170 234h270l-134 387h-4zM175 801v62h262v-62h-262z" />
    <glyph glyph-name="amacron" unicode="&#x101;" horiz-adv-x="520" 
d="M203 -10q-68 0 -113.5 36t-45.5 105q0 38 13.5 65t38.5 42t49.5 22.5t57.5 11.5l92 12q35 4 49 14t14 29v27q0 52 -30.5 71t-89.5 19q-121 0 -121 -81v-17h-54v17q0 66 50.5 96.5t129.5 30.5q76 0 126 -31.5t50 -103.5v-243q0 -41 21.5 -57t48.5 -16h11v-42h-19
q-33 0 -55.5 8t-34 23.5t-16 27.5t-7.5 31h-2q-21 -52 -67 -74.5t-96 -22.5zM211 34q74 0 110.5 52t36.5 123v54q-14 -15 -77 -25l-73 -10q-57 -7 -81 -26t-24 -69q0 -99 108 -99zM124 594v60h262v-60h-262z" />
    <glyph glyph-name="Abreve" unicode="&#x102;" horiz-adv-x="612" 
d="M22 0l253 724h63l252 -724h-69l-62 177h-309l-60 -177h-68zM170 234h270l-134 387h-4zM306 783q-58 0 -94 40t-36 111h49q1 -49 23.5 -76.5t57.5 -27.5q33 0 56.5 27t24.5 77h48q-4 -75 -39 -113t-90 -38z" />
    <glyph glyph-name="abreve" unicode="&#x103;" horiz-adv-x="520" 
d="M203 -10q-68 0 -113.5 36t-45.5 105q0 38 13.5 65t38.5 42t49.5 22.5t57.5 11.5l92 12q35 4 49 14t14 29v27q0 52 -30.5 71t-89.5 19q-121 0 -121 -81v-17h-54v17q0 66 50.5 96.5t129.5 30.5q76 0 126 -31.5t50 -103.5v-243q0 -41 21.5 -57t48.5 -16h11v-42h-19
q-33 0 -55.5 8t-34 23.5t-16 27.5t-7.5 31h-2q-21 -52 -67 -74.5t-96 -22.5zM211 34q74 0 110.5 52t36.5 123v54q-14 -15 -77 -25l-73 -10q-57 -7 -81 -26t-24 -69q0 -99 108 -99zM249 565q-55 0 -88 41.5t-35 113.5h49q4 -50 19.5 -78.5t55.5 -28.5t57.5 26.5t21.5 80.5h47
q-2 -75 -37 -115t-90 -40z" />
    <glyph glyph-name="Aogonek" unicode="&#x104;" horiz-adv-x="612" 
d="M509 -200q-49 0 -77.5 23t-28.5 65q0 44 30.5 77.5t80.5 52.5l-55 159h-309l-60 -177h-68l253 724h63l252 -724q-58 -10 -92 -37.5t-34 -64.5q0 -23 15.5 -36.5t43.5 -13.5q32 0 60 17l17 -43q-41 -22 -91 -22zM170 234h270l-134 387h-4z" />
    <glyph glyph-name="aogonek" unicode="&#x105;" horiz-adv-x="520" 
d="M203 -10q-68 0 -113.5 36t-45.5 105q0 38 13.5 65t38.5 42t49.5 22.5t57.5 11.5l92 12q35 4 49 14t14 29v27q0 52 -30.5 71t-89.5 19q-121 0 -121 -81v-17h-54v17q0 66 50.5 96.5t129.5 30.5q76 0 126 -31.5t50 -103.5v-243q0 -41 21.5 -57t48.5 -16h11v-42
q-60 -11 -94.5 -35.5t-34.5 -61.5q0 -52 57 -52q33 0 62 17l17 -43q-39 -22 -92 -22q-47 0 -76 23t-29 65q0 41 29 74.5t74 52.5q-37 19 -43 72h-5q-21 -52 -66.5 -74.5t-95.5 -22.5zM211 34q74 0 110.5 52t36.5 123v54q-14 -15 -77 -25l-73 -10q-57 -7 -81 -26t-24 -69
q0 -99 108 -99z" />
    <glyph glyph-name="Cacute" unicode="&#x106;" horiz-adv-x="604" 
d="M317 -10q-136 0 -204.5 87.5t-68.5 272.5q0 192 72 286t204 94q111 0 169 -67.5t67 -173.5h-64q-4 40 -13.5 70.5t-28.5 58t-52 42.5t-78 15q-113 0 -158.5 -77.5t-45.5 -229.5q0 -183 51 -253t161 -70q92 0 136 61t44 157h62q-5 -125 -69.5 -199t-183.5 -74zM277 780
l73 150h81l-99 -150h-55z" />
    <glyph glyph-name="cacute" unicode="&#x107;" horiz-adv-x="506" 
d="M274 -10q-112 0 -174 68.5t-62 179.5q0 117 63.5 184.5t165.5 67.5q97 0 147 -52t50 -130v-15h-58v17q0 67 -37.5 101.5t-102.5 34.5q-79 0 -118.5 -44t-39.5 -160q0 -113 41 -160.5t128 -47.5q58 0 99 32.5t45 94.5h53q-4 -71 -56.5 -121t-143.5 -50zM240 564l68 156h72
l-91 -156h-49z" />
    <glyph glyph-name="Ccircumflex" unicode="&#x108;" horiz-adv-x="604" 
d="M317 -10q-136 0 -204.5 87.5t-68.5 272.5q0 192 72 286t204 94q111 0 169 -67.5t67 -173.5h-64q-4 40 -13.5 70.5t-28.5 58t-52 42.5t-78 15q-113 0 -158.5 -77.5t-45.5 -229.5q0 -183 51 -253t161 -70q92 0 136 61t44 157h62q-5 -125 -69.5 -199t-183.5 -74zM182 780
l104 153h54l102 -153h-61l-71 107l-72 -107h-56z" />
    <glyph glyph-name="ccircumflex" unicode="&#x109;" horiz-adv-x="506" 
d="M274 -10q-112 0 -174 68.5t-62 179.5q0 117 63.5 184.5t165.5 67.5q97 0 147 -52t50 -130v-15h-58v17q0 67 -37.5 101.5t-102.5 34.5q-79 0 -118.5 -44t-39.5 -160q0 -113 41 -160.5t128 -47.5q58 0 99 32.5t45 94.5h53q-4 -71 -56.5 -121t-143.5 -50zM143 564l100 156
h51l97 -156h-59l-65 108l-68 -108h-56z" />
    <glyph glyph-name="Cdotaccent" unicode="&#x10a;" horiz-adv-x="604" 
d="M317 -10q-136 0 -204.5 87.5t-68.5 272.5q0 192 72 286t204 94q111 0 169 -67.5t67 -173.5h-64q-4 40 -13.5 70.5t-28.5 58t-52 42.5t-78 15q-113 0 -158.5 -77.5t-45.5 -229.5q0 -183 51 -253t161 -70q92 0 136 61t44 157h62q-5 -125 -69.5 -199t-183.5 -74zM288 800
v106h68v-106h-68z" />
    <glyph glyph-name="cdotaccent" unicode="&#x10b;" horiz-adv-x="506" 
d="M274 -10q-112 0 -174 68.5t-62 179.5q0 117 63.5 184.5t165.5 67.5q97 0 147 -52t50 -130v-15h-58v17q0 67 -37.5 101.5t-102.5 34.5q-79 0 -118.5 -44t-39.5 -160q0 -113 41 -160.5t128 -47.5q58 0 99 32.5t45 94.5h53q-4 -71 -56.5 -121t-143.5 -50zM244 569v106h62
v-106h-62z" />
    <glyph glyph-name="Ccaron" unicode="&#x10c;" horiz-adv-x="604" 
d="M317 -10q-136 0 -204.5 87.5t-68.5 272.5q0 192 72 286t204 94q111 0 169 -67.5t67 -173.5h-64q-4 40 -13.5 70.5t-28.5 58t-52 42.5t-78 15q-113 0 -158.5 -77.5t-45.5 -229.5q0 -183 51 -253t161 -70q92 0 136 61t44 157h62q-5 -125 -69.5 -199t-183.5 -74zM293 780
l-102 153h61l71 -107l72 107h56l-104 -153h-54z" />
    <glyph glyph-name="ccaron" unicode="&#x10d;" horiz-adv-x="506" 
d="M274 -10q-112 0 -174 68.5t-62 179.5q0 117 63.5 184.5t165.5 67.5q97 0 147 -52t50 -130v-15h-58v17q0 67 -37.5 101.5t-102.5 34.5q-79 0 -118.5 -44t-39.5 -160q0 -113 41 -160.5t128 -47.5q58 0 99 32.5t45 94.5h53q-4 -71 -56.5 -121t-143.5 -50zM248 563l-97 157
h59l65 -109l68 109h56l-100 -157h-51z" />
    <glyph glyph-name="Dcaron" unicode="&#x10e;" horiz-adv-x="664" 
d="M84 0v720h236q144 0 222 -101t78 -256q0 -363 -283 -363h-253zM152 55h189q61 0 103 23.5t64 68.5t31 98.5t9 125.5q0 129 -56 211.5t-167 82.5h-173v-610zM299 780l-102 153h61l71 -107l72 107h56l-104 -153h-54z" />
    <glyph glyph-name="dcaron" unicode="&#x10f;" horiz-adv-x="552" 
d="M235 -10q-33 0 -66 13.5t-63 41t-49 75.5t-19 109q0 126 60 193.5t151 67.5q51 0 90.5 -21.5t58.5 -57.5v309h62v-720h-56v90q-62 -100 -169 -100zM250 33q51 0 88.5 32.5t59.5 74.5v201q-45 106 -144 106q-82 0 -114 -54t-32 -164q0 -109 35 -152.5t107 -43.5zM516 574
l32 70h-30v76h70v-73l-36 -73h-36z" />
    <glyph glyph-name="Dcroat" unicode="&#x110;" horiz-adv-x="664" 
d="M15 346v54h69v320h236q144 0 222 -101t78 -256q0 -363 -283 -363h-253v346h-69zM152 55h189q61 0 103 23.5t64 68.5t31 98.5t9 125.5q0 129 -56 211.5t-167 82.5h-173v-265h178v-54h-178v-291z" />
    <glyph glyph-name="dcroat" unicode="&#x111;" horiz-adv-x="544" 
d="M235 -10q-33 0 -66 13.5t-63 41t-49 75.5t-19 109q0 126 60 193.5t151 67.5q51 0 90.5 -21.5t58.5 -57.5v153h-136v47h136v109h62v-109h57v-47h-57v-564h-56v90q-62 -100 -169 -100zM250 33q51 0 88.5 32.5t59.5 74.5v201q-45 106 -144 106q-82 0 -114 -54t-32 -164
q0 -109 35 -152.5t107 -43.5z" />
    <glyph glyph-name="Emacron" unicode="&#x112;" horiz-adv-x="556" 
d="M84 0v720h413v-55h-345v-262h245v-55h-245v-293h358v-55h-426zM170 801v62h262v-62h-262z" />
    <glyph glyph-name="emacron" unicode="&#x113;" horiz-adv-x="512" 
d="M273 -10q-115 0 -175 68.5t-60 178.5q0 115 60 184t168 69q98 0 154 -63t56 -163v-24h-368v-7q3 -199 159 -199q61 0 102.5 31t47.5 97h55q-12 -85 -70 -128.5t-129 -43.5zM111 285h299q-12 162 -146 162q-149 0 -153 -162zM127 594v60h262v-60h-262z" />
    <glyph glyph-name="Ebreve" unicode="&#x114;" horiz-adv-x="556" 
d="M84 0v720h413v-55h-345v-262h245v-55h-245v-293h358v-55h-426zM297 783q-58 0 -94 40t-36 111h49q1 -49 23.5 -76.5t57.5 -27.5q33 0 56.5 27t24.5 77h48q-4 -75 -39 -113t-90 -38z" />
    <glyph glyph-name="ebreve" unicode="&#x115;" horiz-adv-x="512" 
d="M273 -10q-115 0 -175 68.5t-60 178.5q0 115 60 184t168 69q98 0 154 -63t56 -163v-24h-368v-7q3 -199 159 -199q61 0 102.5 31t47.5 97h55q-12 -85 -70 -128.5t-129 -43.5zM111 285h299q-12 162 -146 162q-149 0 -153 -162zM268 565q-55 0 -88 41.5t-35 113.5h49
q4 -50 19.5 -78.5t55.5 -28.5t57.5 26.5t21.5 80.5h47q-2 -75 -37 -115t-90 -40z" />
    <glyph glyph-name="Edotaccent" unicode="&#x116;" horiz-adv-x="556" 
d="M84 0v720h413v-55h-345v-262h245v-55h-245v-293h358v-55h-426zM265 800v106h68v-106h-68z" />
    <glyph glyph-name="edotaccent" unicode="&#x117;" horiz-adv-x="512" 
d="M273 -10q-115 0 -175 68.5t-60 178.5q0 115 60 184t168 69q98 0 154 -63t56 -163v-24h-368v-7q3 -199 159 -199q61 0 102.5 31t47.5 97h55q-12 -85 -70 -128.5t-129 -43.5zM111 285h299q-12 162 -146 162q-149 0 -153 -162zM225 569v106h62v-106h-62z" />
    <glyph glyph-name="Eogonek" unicode="&#x118;" horiz-adv-x="556" 
d="M84 0v720h413v-55h-345v-262h245v-55h-245v-293h358v-55q-58 -10 -92 -37.5t-34 -64.5q0 -23 15.5 -36.5t43.5 -13.5q32 0 60 17l17 -43q-41 -22 -91 -22q-49 0 -77.5 23t-28.5 65q0 69 73 112h-312z" />
    <glyph glyph-name="eogonek" unicode="&#x119;" horiz-adv-x="512" 
d="M375 -200q-47 0 -76.5 23t-29.5 65q0 52 40 105q-18 -3 -36 -3q-115 0 -175 68.5t-60 178.5q0 115 60 184t168 69q98 0 154 -63t56 -163v-24h-368v-7q3 -199 159 -199q61 0 102.5 31t47.5 97h55q-12 -80 -74 -131q-68 -55 -68 -133q0 -50 59 -50q31 0 60 17l17 -43
q-39 -22 -91 -22zM111 285h299q-12 162 -146 162q-149 0 -153 -162z" />
    <glyph glyph-name="Ecaron" unicode="&#x11a;" horiz-adv-x="556" 
d="M84 0v720h413v-55h-345v-262h245v-55h-245v-293h358v-55h-426zM274 780l-102 153h61l71 -107l72 107h56l-104 -153h-54z" />
    <glyph glyph-name="ecaron" unicode="&#x11b;" horiz-adv-x="512" 
d="M273 -10q-115 0 -175 68.5t-60 178.5q0 115 60 184t168 69q98 0 154 -63t56 -163v-24h-368v-7q3 -199 159 -199q61 0 102.5 31t47.5 97h55q-12 -85 -70 -128.5t-129 -43.5zM111 285h299q-12 162 -146 162q-149 0 -153 -162zM229 563l-97 157h59l65 -109l68 109h56
l-100 -157h-51z" />
    <glyph glyph-name="Gcircumflex" unicode="&#x11c;" horiz-adv-x="625" 
d="M307 -10q-263 0 -263 363q0 377 279 377q112 0 167 -67.5t55 -173.5h-67q0 186 -161 186q-106 0 -153.5 -71.5t-47.5 -243.5q0 -121 24.5 -191.5t67 -97t110.5 -26.5q130 0 163 132v101h-158v55h226v-333h-51l-3 91q-23 -48 -72 -74.5t-116 -26.5zM191 780l104 153h54
l102 -153h-61l-71 107l-72 -107h-56z" />
    <glyph glyph-name="gcircumflex" unicode="&#x11d;" horiz-adv-x="513" 
d="M135 564l100 156h51l97 -156h-59l-65 108l-68 -108h-56zM248 -203q-110 0 -165 37.5t-55 85.5q0 34 27 63.5t85 37.5q-80 21 -80 87q0 52 58 92q-41 46 -41 116q0 77 53.5 125.5t131.5 48.5q72 0 122 -45q34 91 115 91v-52q-60 0 -86 -70q29 -37 29 -90q0 -81 -48.5 -129
t-133.5 -48q-64 0 -111 28q-35 -19 -35 -56q0 -51 99 -51h138q152 0 152 -108q0 -70 -69 -116.5t-186 -46.5zM247 -157q98 0 148.5 32t50.5 82q0 55 -90 55h-132q-62 0 -97.5 -21.5t-35.5 -54.5q0 -39 40.5 -66t115.5 -27zM260 189q70 0 94 36t24 97q0 55 -29.5 90t-89.5 35
q-61 0 -89.5 -37t-28.5 -96t26.5 -92t92.5 -33z" />
    <glyph glyph-name="Gbreve" unicode="&#x11e;" horiz-adv-x="625" 
d="M307 -10q-263 0 -263 363q0 377 279 377q112 0 167 -67.5t55 -173.5h-67q0 186 -161 186q-106 0 -153.5 -71.5t-47.5 -243.5q0 -121 24.5 -191.5t67 -97t110.5 -26.5q130 0 163 132v101h-158v55h226v-333h-51l-3 91q-23 -48 -72 -74.5t-116 -26.5zM318 783q-58 0 -94 40
t-36 111h49q1 -49 23.5 -76.5t57.5 -27.5q33 0 56.5 27t24.5 77h48q-4 -75 -39 -113t-90 -38z" />
    <glyph glyph-name="gbreve" unicode="&#x11f;" horiz-adv-x="513" 
d="M248 -203q-110 0 -165 37.5t-55 85.5q0 34 27 63.5t85 37.5q-80 21 -80 87q0 52 58 92q-41 46 -41 116q0 77 53.5 125.5t131.5 48.5q72 0 122 -45q34 91 115 91v-52q-60 0 -86 -70q29 -37 29 -90q0 -81 -48.5 -129t-133.5 -48q-64 0 -111 28q-35 -19 -35 -56
q0 -51 99 -51h138q152 0 152 -108q0 -70 -69 -116.5t-186 -46.5zM247 -157q98 0 148.5 32t50.5 82q0 55 -90 55h-132q-62 0 -97.5 -21.5t-35.5 -54.5q0 -39 40.5 -66t115.5 -27zM260 189q70 0 94 36t24 97q0 55 -29.5 90t-89.5 35q-61 0 -89.5 -37t-28.5 -96t26.5 -92
t92.5 -33zM265 565q-55 0 -88 41.5t-35 113.5h49q4 -50 19.5 -78.5t55.5 -28.5t57.5 26.5t21.5 80.5h47q-2 -75 -37 -115t-90 -40z" />
    <glyph glyph-name="Gdotaccent" unicode="&#x120;" horiz-adv-x="625" 
d="M307 -10q-263 0 -263 363q0 377 279 377q112 0 167 -67.5t55 -173.5h-67q0 186 -161 186q-106 0 -153.5 -71.5t-47.5 -243.5q0 -121 24.5 -191.5t67 -97t110.5 -26.5q130 0 163 132v101h-158v55h226v-333h-51l-3 91q-23 -48 -72 -74.5t-116 -26.5zM280 800v106h68v-106
h-68z" />
    <glyph glyph-name="gdotaccent" unicode="&#x121;" horiz-adv-x="513" 
d="M248 -203q-110 0 -165 37.5t-55 85.5q0 34 27 63.5t85 37.5q-80 21 -80 87q0 52 58 92q-41 46 -41 116q0 77 53.5 125.5t131.5 48.5q72 0 122 -45q34 91 115 91v-52q-60 0 -86 -70q29 -37 29 -90q0 -81 -48.5 -129t-133.5 -48q-64 0 -111 28q-35 -19 -35 -56
q0 -51 99 -51h138q152 0 152 -108q0 -70 -69 -116.5t-186 -46.5zM247 -157q98 0 148.5 32t50.5 82q0 55 -90 55h-132q-62 0 -97.5 -21.5t-35.5 -54.5q0 -39 40.5 -66t115.5 -27zM260 189q70 0 94 36t24 97q0 55 -29.5 90t-89.5 35q-61 0 -89.5 -37t-28.5 -96t26.5 -92
t92.5 -33zM233 569v106h62v-106h-62z" />
    <glyph glyph-name="Gcommaaccent" unicode="&#x122;" horiz-adv-x="625" 
d="M307 -10q-263 0 -263 363q0 377 279 377q112 0 167 -67.5t55 -173.5h-67q0 186 -161 186q-106 0 -153.5 -71.5t-47.5 -243.5q0 -121 24.5 -191.5t67 -97t110.5 -26.5q130 0 163 132v101h-158v55h226v-333h-51l-3 91q-23 -48 -72 -74.5t-116 -26.5zM280 -191l32 70h-30v76
h70v-73l-36 -73h-36z" />
    <glyph glyph-name="gcommaaccent" unicode="&#x123;" horiz-adv-x="513" 
d="M248 -203q-110 0 -165 37.5t-55 85.5q0 34 27 63.5t85 37.5q-80 21 -80 87q0 52 58 92q-41 46 -41 116q0 77 53.5 125.5t131.5 48.5q72 0 122 -45q34 91 115 91v-52q-60 0 -86 -70q29 -37 29 -90q0 -81 -48.5 -129t-133.5 -48q-64 0 -111 28q-35 -19 -35 -56
q0 -51 99 -51h138q152 0 152 -108q0 -70 -69 -116.5t-186 -46.5zM247 -157q98 0 148.5 32t50.5 82q0 55 -90 55h-132q-62 0 -97.5 -21.5t-35.5 -54.5q0 -39 40.5 -66t115.5 -27zM260 189q70 0 94 36t24 97q0 55 -29.5 90t-89.5 35q-61 0 -89.5 -37t-28.5 -96t26.5 -92
t92.5 -33zM233 560v73l36 73h36l-32 -70h30v-76h-70z" />
    <glyph glyph-name="Hcircumflex" unicode="&#x124;" horiz-adv-x="662" 
d="M84 0v720h68v-305h358v305h68v-720h-68v360h-358v-360h-68zM202 780l104 153h54l102 -153h-61l-71 107l-72 -107h-56z" />
    <glyph glyph-name="hcircumflex" unicode="&#x125;" horiz-adv-x="526" 
d="M84 0v720h62v-336h2q25 46 72.5 76t99.5 30q126 0 126 -135v-355h-62v358q0 44 -19.5 64t-60.5 20t-89 -35t-69 -84v-323h-62zM-9 784l100 156h51l97 -156h-59l-65 108l-68 -108h-56z" />
    <glyph glyph-name="Hbar" unicode="&#x126;" horiz-adv-x="662" 
d="M29 547v56h55v117h68v-117h358v117h68v-117h55v-56h-55v-547h-68v360h-358v-360h-68v547h-55zM152 415h358v132h-358v-132z" />
    <glyph glyph-name="hbar" unicode="&#x127;" horiz-adv-x="526" 
d="M84 0v564h-57v47h57v109h62v-109h136v-47h-136v-180h2q25 46 72.5 76t99.5 30q126 0 126 -135v-355h-62v358q0 44 -19.5 64t-60.5 20t-89 -35t-69 -84v-323h-62z" />
    <glyph glyph-name="Itilde" unicode="&#x128;" horiz-adv-x="236" 
d="M84 0v720h68v-720h-68zM18 793l-50 8q17 92 86 92q30 0 72 -17.5t63 -17.5q15 0 23 11t13 34l51 -10q-18 -90 -85 -90q-34 0 -77.5 17t-58.5 17t-23 -10t-14 -34z" />
    <glyph glyph-name="itilde" unicode="&#x129;" horiz-adv-x="230" 
d="M21 562l-39 7q5 42 25 66.5t49 24.5q24 0 62 -21t57 -21q14 0 21.5 11t12.5 36l38 -8q-3 -37 -22 -64t-49 -27q-21 0 -62 21.5t-55 21.5q-15 0 -23.5 -10t-14.5 -37zM84 0v480h62v-480h-62z" />
    <glyph glyph-name="Imacron" unicode="&#x12a;" horiz-adv-x="236" 
d="M84 0v720h68v-720h-68zM-13 801v62h262v-62h-262z" />
    <glyph glyph-name="imacron" unicode="&#x12b;" horiz-adv-x="230" 
d="M-3 594v60h236v-60h-236zM84 0v480h62v-480h-62z" />
    <glyph glyph-name="Ibreve" unicode="&#x12c;" horiz-adv-x="236" 
d="M84 0v720h68v-720h-68zM118 783q-58 0 -94 40t-36 111h49q1 -49 23.5 -76.5t57.5 -27.5q33 0 56.5 27t24.5 77h48q-4 -75 -39 -113t-90 -38z" />
    <glyph glyph-name="ibreve" unicode="&#x12d;" horiz-adv-x="230" 
d="M113 565q-55 0 -88 41.5t-35 113.5h49q4 -50 19.5 -78.5t55.5 -28.5t57.5 26.5t21.5 80.5h47q-2 -75 -37 -115t-90 -40zM84 0v480h62v-480h-62z" />
    <glyph glyph-name="Iogonek" unicode="&#x12e;" horiz-adv-x="236" 
d="M115 -200q-47 0 -75 23t-28 65q0 70 72 119v713h68v-725q-79 -36 -79 -97q0 -24 17 -37t42 -13q31 0 60 17l17 -43q-39 -22 -94 -22z" />
    <glyph glyph-name="iogonek" unicode="&#x12f;" horiz-adv-x="230" 
d="M117 -200q-47 0 -75.5 23t-28.5 67q0 69 71 119v471h62v-485q-72 -36 -72 -97q0 -24 16 -37t42 -13q22 0 54 13l17 -42q-38 -19 -86 -19zM84 559v106h62v-106h-62z" />
    <glyph glyph-name="Idotaccent" unicode="&#x130;" horiz-adv-x="236" 
d="M86 791v106h68v-106h-68zM84 0v720h68v-720h-68z" />
    <glyph glyph-name="dotlessi" unicode="&#x131;" horiz-adv-x="230" 
d="M84 0v480h62v-480h-62z" />
    <glyph glyph-name="IJ" unicode="&#x132;" horiz-adv-x="739" 
d="M84 0v720h68v-720h-68zM451 -10q-120 0 -166 58.5t-46 179.5v46h68v-54q0 -91 27.5 -131.5t116.5 -40.5q84 0 114 43t30 143v486h68v-476q0 -126 -50 -190t-162 -64z" />
    <glyph glyph-name="ij" unicode="&#x133;" horiz-adv-x="464" 
d="M84 0v480h62v-480h-62zM84 559v106h62v-106h-62zM234 -200v53h17q67 0 67 72v555h62v-540q0 -140 -130 -140h-16zM318 559v106h62v-106h-62z" />
    <glyph glyph-name="Jcircumflex" unicode="&#x134;" horiz-adv-x="544" 
d="M256 -10q-120 0 -166 58.5t-46 179.5v46h68v-54q0 -91 27.5 -131.5t116.5 -40.5q84 0 114 43t30 143v486h68v-476q0 -126 -50 -190t-162 -64zM298 780l104 153h54l102 -153h-61l-71 107l-72 -107h-56z" />
    <glyph glyph-name="jcircumflex" unicode="&#x135;" horiz-adv-x="230" 
d="M0 564l91 156h51l88 -156h-59l-56 108l-59 -108h-56zM0 -200v53h17q67 0 67 72v555h62v-540q0 -140 -130 -140h-16z" />
    <glyph glyph-name="Kcommaaccent" unicode="&#x136;" horiz-adv-x="604" 
d="M573 720l-297 -302l306 -418h-80l-272 371l-78 -80v-291h-68v720h68v-351l344 351h77zM278 -191l32 70h-30v76h70v-73l-36 -73h-36z" />
    <glyph glyph-name="kcommaaccent" unicode="&#x137;" horiz-adv-x="475" 
d="M84 0v720h62v-461l221 221h70l-166 -163l178 -317h-65l-158 274l-80 -79v-195h-62zM218 -191l32 70h-30v76h70v-73l-36 -73h-36z" />
    <glyph glyph-name="kgreenlandic" unicode="&#x138;" horiz-adv-x="475" 
d="M84 0v480h62v-221l221 221h70l-166 -163l178 -317h-65l-158 274l-80 -79v-195h-62z" />
    <glyph glyph-name="Lacute" unicode="&#x139;" horiz-adv-x="541" 
d="M84 0v720h68v-665h359v-55h-427zM101 780l73 150h81l-99 -150h-55z" />
    <glyph glyph-name="lacute" unicode="&#x13a;" horiz-adv-x="230" 
d="M84 0v720h62v-720h-62zM89 784l68 156h72l-91 -156h-49z" />
    <glyph glyph-name="Lcommaaccent" unicode="&#x13b;" horiz-adv-x="541" 
d="M84 0v720h68v-665h359v-55h-427zM256 -191l32 70h-30v76h70v-73l-36 -73h-36z" />
    <glyph glyph-name="lcommaaccent" unicode="&#x13c;" horiz-adv-x="230" 
d="M84 0v720h62v-720h-62zM79 -191l32 70h-30v76h70v-73l-36 -73h-36z" />
    <glyph glyph-name="Lcaron" unicode="&#x13d;" horiz-adv-x="541" 
d="M84 0v720h68v-665h359v-55h-427zM232 574l32 70h-30v76h70v-73l-36 -73h-36z" />
    <glyph glyph-name="lcaron" unicode="&#x13e;" horiz-adv-x="238" 
d="M84 0v720h62v-720h-62zM202 574l32 70h-30v76h70v-73l-36 -73h-36z" />
    <glyph glyph-name="Ldot" unicode="&#x13f;" horiz-adv-x="541" 
d="M352 345v101h74v-101h-74zM84 0v720h68v-665h359v-55h-427z" />
    <glyph glyph-name="ldot" unicode="&#x140;" horiz-adv-x="376" 
d="M268 328v97h70v-97h-70zM84 0v720h62v-720h-62z" />
    <glyph glyph-name="Lslash" unicode="&#x141;" horiz-adv-x="541" 
d="M15 218v60l69 45v397h68v-352l178 117v-60l-178 -117v-253h359v-55h-427v263z" />
    <glyph glyph-name="lslash" unicode="&#x142;" horiz-adv-x="230" 
d="M11 213v65l73 73v369h62v-307l72 72v-65l-72 -72v-348h-62v286z" />
    <glyph glyph-name="Nacute" unicode="&#x143;" horiz-adv-x="662" 
d="M517 -1l-369 631h-2v-630h-62v720h85l345 -587h3v587h61v-721h-61zM304 780l73 150h81l-99 -150h-55z" />
    <glyph glyph-name="nacute" unicode="&#x144;" horiz-adv-x="526" 
d="M84 0v480h60v-99h2q25 47 73 78t101 31q62 0 94 -34t32 -98v-358h-62v358q0 44 -19.5 64t-60.5 20q-40 0 -86.5 -33t-71.5 -86v-323h-62zM247 564l68 156h72l-91 -156h-49z" />
    <glyph glyph-name="Ncommaaccent" unicode="&#x145;" horiz-adv-x="662" 
d="M517 -1l-369 631h-2v-630h-62v720h85l345 -587h3v587h61v-721h-61zM304 -191l32 70h-30v76h70v-73l-36 -73h-36z" />
    <glyph glyph-name="ncommaaccent" unicode="&#x146;" horiz-adv-x="526" 
d="M84 0v480h60v-99h2q25 47 73 78t101 31q62 0 94 -34t32 -98v-358h-62v358q0 44 -19.5 64t-60.5 20q-40 0 -86.5 -33t-71.5 -86v-323h-62zM233 -191l32 70h-30v76h70v-73l-36 -73h-36z" />
    <glyph glyph-name="Ncaron" unicode="&#x147;" horiz-adv-x="662" 
d="M517 -1l-369 631h-2v-630h-62v720h85l345 -587h3v587h61v-721h-61zM316 780l-102 153h61l71 -107l72 107h56l-104 -153h-54z" />
    <glyph glyph-name="ncaron" unicode="&#x148;" horiz-adv-x="526" 
d="M84 0v480h60v-99h2q25 47 73 78t101 31q62 0 94 -34t32 -98v-358h-62v358q0 44 -19.5 64t-60.5 20q-40 0 -86.5 -33t-71.5 -86v-323h-62zM264 563l-97 157h59l65 -109l68 109h56l-100 -157h-51z" />
    <glyph glyph-name="Eng" unicode="&#x14a;" horiz-adv-x="662" 
d="M432 -139v55h17q68 0 68 70v13l-369 631h-2v-630h-62v720h85l345 -587h3v587h61v-711q0 -77 -31 -112.5t-99 -35.5h-16z" />
    <glyph glyph-name="eng" unicode="&#x14b;" horiz-adv-x="526" 
d="M84 0v480h60v-99h2q24 47 71.5 78t99.5 31q61 0 95 -35t34 -100v-346q0 -75 -31.5 -111.5t-98.5 -36.5h-16v54h17q67 0 67 71v372q0 44 -19.5 64t-60.5 20q-40 0 -86.5 -33t-71.5 -86v-323h-62z" />
    <glyph glyph-name="Omacron" unicode="&#x14c;" horiz-adv-x="687" 
d="M341 -10q-297 0 -297 360q0 180 81 280t220 100q137 0 217.5 -97.5t80.5 -263.5q0 -379 -302 -379zM347 44q120 0 172 77.5t52 250.5q0 147 -61 225.5t-169 78.5q-112 0 -168.5 -84t-56.5 -222q0 -176 52.5 -251t178.5 -75zM212 801v62h262v-62h-262z" />
    <glyph glyph-name="omacron" unicode="&#x14d;" horiz-adv-x="530" 
d="M266 -10q-105 0 -166.5 69t-61.5 175q0 118 63.5 187t161.5 69q106 0 167.5 -66.5t61.5 -181.5t-62 -183.5t-164 -68.5zM267 34q86 0 120.5 47t34.5 162q0 105 -38.5 154t-121.5 49q-88 0 -121 -52t-33 -155q0 -117 41.5 -161t117.5 -44zM134 594v60h262v-60h-262z" />
    <glyph glyph-name="Obreve" unicode="&#x14e;" horiz-adv-x="687" 
d="M341 -10q-297 0 -297 360q0 180 81 280t220 100q137 0 217.5 -97.5t80.5 -263.5q0 -379 -302 -379zM347 44q120 0 172 77.5t52 250.5q0 147 -61 225.5t-169 78.5q-112 0 -168.5 -84t-56.5 -222q0 -176 52.5 -251t178.5 -75zM343 783q-58 0 -94 40t-36 111h49
q1 -49 23.5 -76.5t57.5 -27.5q33 0 56.5 27t24.5 77h48q-4 -75 -39 -113t-90 -38z" />
    <glyph glyph-name="obreve" unicode="&#x14f;" horiz-adv-x="530" 
d="M266 -10q-105 0 -166.5 69t-61.5 175q0 118 63.5 187t161.5 69q106 0 167.5 -66.5t61.5 -181.5t-62 -183.5t-164 -68.5zM267 34q86 0 120.5 47t34.5 162q0 105 -38.5 154t-121.5 49q-88 0 -121 -52t-33 -155q0 -117 41.5 -161t117.5 -44zM266 565q-55 0 -88 41.5
t-35 113.5h49q4 -50 19.5 -78.5t55.5 -28.5t57.5 26.5t21.5 80.5h47q-2 -75 -37 -115t-90 -40z" />
    <glyph glyph-name="Ohungarumlaut" unicode="&#x150;" horiz-adv-x="687" 
d="M341 -10q-297 0 -297 360q0 180 81 280t220 100q137 0 217.5 -97.5t80.5 -263.5q0 -379 -302 -379zM347 44q120 0 172 77.5t52 250.5q0 147 -61 225.5t-169 78.5q-112 0 -168.5 -84t-56.5 -222q0 -176 52.5 -251t178.5 -75zM241 791l64 128h70l-84 -128h-50zM378 791
l65 128h70l-85 -128h-50z" />
    <glyph glyph-name="ohungarumlaut" unicode="&#x151;" horiz-adv-x="530" 
d="M266 -10q-105 0 -166.5 69t-61.5 175q0 118 63.5 187t161.5 69q106 0 167.5 -66.5t61.5 -181.5t-62 -183.5t-164 -68.5zM267 34q86 0 120.5 47t34.5 162q0 105 -38.5 154t-121.5 49q-88 0 -121 -52t-33 -155q0 -117 41.5 -161t117.5 -44zM162 558l68 148h70l-88 -148h-50
zM308 558l69 148h70l-89 -148h-50z" />
    <glyph glyph-name="OE" unicode="&#x152;" horiz-adv-x="978" 
d="M327 0q-283 0 -283 363q0 155 80.5 256t229.5 101h565v-55h-345v-262h245v-55h-245v-293h358v-55h-605zM323 55h183v610h-167q-111 0 -167 -82.5t-56 -211.5q0 -72 9 -125.5t31 -98.5t64 -68.5t103 -23.5z" />
    <glyph glyph-name="oe" unicode="&#x153;" horiz-adv-x="898" 
d="M266 -10q-105 0 -166.5 69t-61.5 175q0 118 63.5 187t161.5 69q135 0 195 -106q59 106 194 106q98 0 154 -63t56 -163v-24h-368q0 -206 159 -206q61 0 103 31.5t47 96.5h55q-12 -85 -70 -128.5t-129 -43.5q-143 0 -202 105q-62 -105 -191 -105zM267 34q86 0 120.5 47
t34.5 162q0 105 -38.5 154t-121.5 49q-88 0 -121 -52t-33 -155q0 -117 41.5 -161t117.5 -44zM497 285h299q-12 162 -146 162q-149 0 -153 -162z" />
    <glyph glyph-name="Racute" unicode="&#x154;" horiz-adv-x="655" 
d="M84 0v720h291q102 0 156 -48.5t54 -140.5q0 -69 -39 -115t-99 -56v-4q59 -12 89.5 -53t30.5 -98v-68q0 -72 12 -129v-8h-69q-10 40 -10 128v72q0 61 -35.5 95.5t-106.5 34.5h-206v-330h-68zM152 385h229q63 0 99 39t36 105q0 58 -35 97t-106 39h-223v-280zM280 780
l73 150h81l-99 -150h-55z" />
    <glyph glyph-name="racute" unicode="&#x155;" horiz-adv-x="354" 
d="M84 0v480h52v-125h3q21 57 76.5 92t115.5 36v-57q-50 -7 -85.5 -21t-55 -33t-28 -31.5t-16.5 -31.5v-309h-62zM177 564l68 156h72l-91 -156h-49z" />
    <glyph glyph-name="Rcommaaccent" unicode="&#x156;" horiz-adv-x="655" 
d="M84 0v720h291q102 0 156 -48.5t54 -140.5q0 -69 -39 -115t-99 -56v-4q59 -12 89.5 -53t30.5 -98v-68q0 -72 12 -129v-8h-69q-10 40 -10 128v72q0 61 -35.5 95.5t-106.5 34.5h-206v-330h-68zM152 385h229q63 0 99 39t36 105q0 58 -35 97t-106 39h-223v-280zM282 -191
l32 70h-30v76h70v-73l-36 -73h-36z" />
    <glyph glyph-name="rcommaaccent" unicode="&#x157;" horiz-adv-x="354" 
d="M84 0v480h52v-125h3q21 57 76.5 92t115.5 36v-57q-50 -7 -85.5 -21t-55 -33t-28 -31.5t-16.5 -31.5v-309h-62zM77 -191l32 70h-30v76h70v-73l-36 -73h-36z" />
    <glyph glyph-name="Rcaron" unicode="&#x158;" horiz-adv-x="655" 
d="M84 0v720h291q102 0 156 -48.5t54 -140.5q0 -69 -39 -115t-99 -56v-4q59 -12 89.5 -53t30.5 -98v-68q0 -72 12 -129v-8h-69q-10 40 -10 128v72q0 61 -35.5 95.5t-106.5 34.5h-206v-330h-68zM152 385h229q63 0 99 39t36 105q0 58 -35 97t-106 39h-223v-280zM298 780
l-102 153h61l71 -107l72 107h56l-104 -153h-54z" />
    <glyph glyph-name="rcaron" unicode="&#x159;" horiz-adv-x="354" 
d="M84 0v480h52v-125h3q21 57 76.5 92t115.5 36v-57q-50 -7 -85.5 -21t-55 -33t-28 -31.5t-16.5 -31.5v-309h-62zM177 563l-97 157h59l65 -109l68 109h56l-100 -157h-51z" />
    <glyph glyph-name="Sacute" unicode="&#x15a;" horiz-adv-x="577" 
d="M289 -10q-68 0 -122.5 21t-93 75t-39.5 136h60q0 -42 13 -74t33 -51.5t47 -31.5t51.5 -16.5t49.5 -4.5q78 0 130 38.5t52 111.5q0 95 -144 136l-95 27q-38 11 -63 21.5t-53 30t-42.5 49.5t-14.5 71q0 87 64 144t164 57q98 0 161 -52.5t66 -152.5h-61q-13 151 -171 151
q-76 0 -117.5 -41t-41.5 -98q0 -26 9.5 -45t30 -32t38 -20.5t48.5 -16.5l86 -26q99 -30 146.5 -72.5t47.5 -124.5q0 -89 -64 -149.5t-175 -60.5zM255 780l73 150h81l-99 -150h-55z" />
    <glyph glyph-name="sacute" unicode="&#x15b;" horiz-adv-x="427" 
d="M224 -10q-80 0 -132 38t-63 116h60q10 -52 40 -80t94 -28q116 0 116 90q0 34 -24 52.5t-74 30.5l-67 17q-57 15 -92 42.5t-35 79.5q0 61 44 101.5t125 40.5q148 0 166 -135h-58q-5 47 -31.5 68.5t-86.5 21.5q-47 0 -74 -23t-27 -56q0 -36 20 -54t71 -31l73 -19
q60 -16 93.5 -44.5t33.5 -79.5q0 -66 -48 -107t-124 -41zM188 564l68 156h72l-91 -156h-49z" />
    <glyph glyph-name="Scircumflex" unicode="&#x15c;" horiz-adv-x="577" 
d="M289 -10q-68 0 -122.5 21t-93 75t-39.5 136h60q0 -42 13 -74t33 -51.5t47 -31.5t51.5 -16.5t49.5 -4.5q78 0 130 38.5t52 111.5q0 95 -144 136l-95 27q-38 11 -63 21.5t-53 30t-42.5 49.5t-14.5 71q0 87 64 144t164 57q98 0 161 -52.5t66 -152.5h-61q-13 151 -171 151
q-76 0 -117.5 -41t-41.5 -98q0 -26 9.5 -45t30 -32t38 -20.5t48.5 -16.5l86 -26q99 -30 146.5 -72.5t47.5 -124.5q0 -89 -64 -149.5t-175 -60.5zM160 780l104 153h54l102 -153h-61l-71 107l-72 -107h-56z" />
    <glyph glyph-name="scircumflex" unicode="&#x15d;" horiz-adv-x="427" 
d="M224 -10q-80 0 -132 38t-63 116h60q10 -52 40 -80t94 -28q116 0 116 90q0 34 -24 52.5t-74 30.5l-67 17q-57 15 -92 42.5t-35 79.5q0 61 44 101.5t125 40.5q148 0 166 -135h-58q-5 47 -31.5 68.5t-86.5 21.5q-47 0 -74 -23t-27 -56q0 -36 20 -54t71 -31l73 -19
q60 -16 93.5 -44.5t33.5 -79.5q0 -66 -48 -107t-124 -41zM88 564l100 156h51l97 -156h-59l-65 108l-68 -108h-56z" />
    <glyph glyph-name="Scedilla" unicode="&#x15e;" horiz-adv-x="577" 
d="M269 -82v73q-47 2 -87 16t-74 40.5t-53.5 71t-20.5 103.5h60q0 -42 13 -74t33 -51.5t47 -31.5t51.5 -16.5t49.5 -4.5q78 0 130 38.5t52 111.5q0 95 -144 136l-95 27q-38 11 -63 21.5t-53 30t-42.5 49.5t-14.5 71q0 87 64 144t164 57q98 0 161 -52.5t66 -152.5h-61
q-13 151 -171 151q-76 0 -117.5 -41t-41.5 -98q0 -26 10 -45.5t30 -32.5t38 -20t48 -16l86 -26q99 -30 146.5 -72.5t47.5 -124.5q0 -84 -57 -143t-158 -66v-43q48 -5 69 -27t21 -48q0 -38 -31 -57.5t-82 -19.5q-116 0 -116 93h49q3 -24 17 -37.5t51 -13.5q56 0 56 40
q0 16 -18.5 28t-59.5 12z" />
    <glyph glyph-name="scedilla" unicode="&#x15f;" horiz-adv-x="427" 
d="M191 -82v74q-67 7 -110 45t-52 107h60q10 -52 40 -80t94 -28q116 0 116 90q0 34 -24 52.5t-74 30.5l-67 17q-57 15 -92 42.5t-35 79.5q0 61 44 101.5t125 40.5q148 0 166 -135h-58q-5 47 -31.5 68.5t-86.5 21.5q-47 0 -74 -23t-27 -56q0 -36 20 -54t71 -31l73 -19
q60 -16 93.5 -44.5t33.5 -79.5q0 -63 -44.5 -104t-116.5 -44v-42q48 -5 69 -27t21 -48q0 -38 -31 -57.5t-82 -19.5q-116 0 -116 93h49q3 -24 17 -37.5t51 -13.5q56 0 56 40q0 16 -18.5 28t-59.5 12z" />
    <glyph glyph-name="Scaron" unicode="&#x160;" horiz-adv-x="577" 
d="M289 -10q-68 0 -122.5 21t-93 75t-39.5 136h60q0 -42 13 -74t33 -51.5t47 -31.5t51.5 -16.5t49.5 -4.5q78 0 130 38.5t52 111.5q0 95 -144 136l-95 27q-38 11 -63 21.5t-53 30t-42.5 49.5t-14.5 71q0 87 64 144t164 57q98 0 161 -52.5t66 -152.5h-61q-13 151 -171 151
q-76 0 -117.5 -41t-41.5 -98q0 -26 9.5 -45t30 -32t38 -20.5t48.5 -16.5l86 -26q99 -30 146.5 -72.5t47.5 -124.5q0 -89 -64 -149.5t-175 -60.5zM259 780l-102 153h61l71 -107l72 107h56l-104 -153h-54z" />
    <glyph glyph-name="scaron" unicode="&#x161;" horiz-adv-x="427" 
d="M224 -10q-80 0 -132 38t-63 116h60q10 -52 40 -80t94 -28q116 0 116 90q0 34 -24 52.5t-74 30.5l-67 17q-57 15 -92 42.5t-35 79.5q0 61 44 101.5t125 40.5q148 0 166 -135h-58q-5 47 -31.5 68.5t-86.5 21.5q-47 0 -74 -23t-27 -56q0 -36 20 -54t71 -31l73 -19
q60 -16 93.5 -44.5t33.5 -79.5q0 -66 -48 -107t-124 -41zM189 563l-97 157h59l65 -109l68 109h56l-100 -157h-51z" />
    <glyph glyph-name="Tcommaaccent" unicode="&#x162;" horiz-adv-x="564" 
d="M281 -204q-116 0 -116 93h49q3 -24 17 -37.5t51 -13.5q56 0 56 40q0 16 -18.5 28t-59.5 12v82h-12v665h-226v55h520v-55h-226v-665h-12v-52q48 -5 69 -27t21 -48q0 -38 -31 -57.5t-82 -19.5z" />
    <glyph glyph-name="tcommaaccent" unicode="&#x163;" horiz-adv-x="323" 
d="M179 -204q-116 0 -116 93h49q3 -24 17 -37.5t51 -13.5q56 0 56 40q0 16 -18.5 28t-59.5 12v91q-60 24 -60 119v304h-84v48h84v133l52 41h10v-174h128v-48h-128v-303q0 -47 17 -62.5t48 -15.5h60v-51h-83v-52q48 -5 69 -27t21 -48q0 -38 -31 -57.5t-82 -19.5z" />
    <glyph glyph-name="Tcaron" unicode="&#x164;" horiz-adv-x="564" 
d="M248 0v665h-226v55h520v-55h-226v-665h-68zM253 780l-102 153h61l71 -107l72 107h56l-104 -153h-54z" />
    <glyph glyph-name="tcaron" unicode="&#x165;" horiz-adv-x="330" 
d="M285 0h-76q-111 0 -111 128v304h-84v48h84v133l52 41h10v-174h128v-48h-128v-303q0 -47 17 -62.5t48 -15.5h60v-51zM235 574l32 70h-30v76h70v-73l-36 -73h-36z" />
    <glyph glyph-name="Tbar" unicode="&#x166;" horiz-adv-x="564" 
d="M134 320v56h114v289h-226v55h520v-55h-226v-289h114v-56h-114v-320h-68v320h-114z" />
    <glyph glyph-name="tbar" unicode="&#x167;" horiz-adv-x="323" 
d="M209 0q-111 0 -111 128v110h-63v47h63v147h-84v48h84v133l52 41h10v-174h128v-48h-128v-147h100v-47h-100v-109q0 -47 17 -62.5t48 -15.5h60v-51h-76z" />
    <glyph glyph-name="Utilde" unicode="&#x168;" horiz-adv-x="648" 
d="M320 -10q-244 0 -244 242v488h68v-503q0 -168 181 -168q100 0 141.5 39.5t41.5 110.5v521h64v-504q0 -226 -252 -226zM233 793l-50 8q17 92 86 92q29 0 72 -17.5t63 -17.5q15 0 23 11t13 34l51 -10q-18 -90 -85 -90q-34 0 -77.5 17t-58.5 17t-23 -10t-14 -34z" />
    <glyph glyph-name="utilde" unicode="&#x169;" horiz-adv-x="526" 
d="M209 -10q-129 0 -129 135v355h62v-358q0 -44 19.5 -64t60.5 -20q40 0 86.5 33t71.5 86v323h62v-480h-60v99h-2q-24 -47 -71.5 -78t-99.5 -31zM171 562l-39 7q6 42 28 66.5t55 24.5q26 0 68.5 -21t63.5 -21q30 0 40 47l40 -8q-4 -37 -25 -64t-54 -27q-23 0 -69 21.5
t-61 21.5q-36 0 -47 -47z" />
    <glyph glyph-name="Umacron" unicode="&#x16a;" horiz-adv-x="648" 
d="M320 -10q-244 0 -244 242v488h68v-503q0 -168 181 -168q100 0 141.5 39.5t41.5 110.5v521h64v-504q0 -226 -252 -226zM200 801v62h262v-62h-262z" />
    <glyph glyph-name="umacron" unicode="&#x16b;" horiz-adv-x="526" 
d="M209 -10q-129 0 -129 135v355h62v-358q0 -44 19.5 -64t60.5 -20q40 0 86.5 33t71.5 86v323h62v-480h-60v99h-2q-24 -47 -71.5 -78t-99.5 -31zM142 594v60h262v-60h-262z" />
    <glyph glyph-name="Ubreve" unicode="&#x16c;" horiz-adv-x="648" 
d="M320 -10q-244 0 -244 242v488h68v-503q0 -168 181 -168q100 0 141.5 39.5t41.5 110.5v521h64v-504q0 -226 -252 -226zM345 783q-58 0 -94 40t-36 111h49q1 -49 23.5 -76.5t57.5 -27.5q33 0 56.5 27t24.5 77h48q-4 -75 -39 -113t-90 -38z" />
    <glyph glyph-name="ubreve" unicode="&#x16d;" horiz-adv-x="526" 
d="M209 -10q-129 0 -129 135v355h62v-358q0 -44 19.5 -64t60.5 -20q40 0 86.5 33t71.5 86v323h62v-480h-60v99h-2q-24 -47 -71.5 -78t-99.5 -31zM271 565q-55 0 -88 41.5t-35 113.5h49q4 -50 19.5 -78.5t55.5 -28.5t57.5 26.5t21.5 80.5h47q-2 -75 -37 -115t-90 -40z" />
    <glyph glyph-name="Uring" unicode="&#x16e;" horiz-adv-x="648" 
d="M320 -10q-244 0 -244 242v488h68v-503q0 -168 181 -168q100 0 141.5 39.5t41.5 110.5v521h64v-504q0 -226 -252 -226zM327 771q-40 0 -65.5 23.5t-25.5 61.5q0 40 26 65.5t67 25.5q40 0 65 -23.5t25 -62.5q0 -40 -25.5 -65t-66.5 -25zM328 807q23 0 37 14t14 38
q0 23 -13.5 36.5t-37.5 13.5q-25 0 -39 -13.5t-14 -37.5t14.5 -37.5t38.5 -13.5z" />
    <glyph glyph-name="uring" unicode="&#x16f;" horiz-adv-x="526" 
d="M209 -10q-129 0 -129 135v355h62v-358q0 -44 19.5 -64t60.5 -20q40 0 86.5 33t71.5 86v323h62v-480h-60v99h-2q-24 -47 -71.5 -78t-99.5 -31zM273 550q-39 0 -64.5 23t-25.5 59q0 39 26 64t66 25q38 0 62.5 -23t24.5 -62t-25 -62.5t-64 -23.5zM274 585q22 0 35.5 13.5
t13.5 36.5t-13.5 36t-35.5 13q-25 0 -38.5 -13t-13.5 -36q0 -24 14 -37t38 -13z" />
    <glyph glyph-name="Uhungarumlaut" unicode="&#x170;" horiz-adv-x="648" 
d="M320 -10q-244 0 -244 242v488h68v-503q0 -168 181 -168q100 0 141.5 39.5t41.5 110.5v521h64v-504q0 -226 -252 -226zM222 791l64 128h70l-84 -128h-50zM359 791l65 128h70l-85 -128h-50z" />
    <glyph glyph-name="uhungarumlaut" unicode="&#x171;" horiz-adv-x="526" 
d="M209 -10q-129 0 -129 135v355h62v-358q0 -44 19.5 -64t60.5 -20q40 0 86.5 33t71.5 86v323h62v-480h-60v99h-2q-24 -47 -71.5 -78t-99.5 -31zM159 558l68 148h70l-88 -148h-50zM305 558l69 148h70l-89 -148h-50z" />
    <glyph glyph-name="Uogonek" unicode="&#x172;" horiz-adv-x="648" 
d="M365 -200q-47 0 -74.5 22.5t-27.5 64.5q0 64 55 103q-242 2 -242 242v488h68v-503q0 -168 181 -168q100 0 141.5 39.5t41.5 110.5v521h64v-504q0 -175 -147 -214q-101 -26 -101 -104q0 -50 61 -50q29 0 58 17l17 -43q-39 -22 -95 -22z" />
    <glyph glyph-name="uogonek" unicode="&#x173;" horiz-adv-x="526" 
d="M363 -200q-49 0 -77.5 23t-28.5 65q0 48 34 82.5t91 52.5v76h-2q-24 -47 -71.5 -78t-99.5 -31q-129 0 -129 135v355h62v-358q0 -44 19.5 -64t60.5 -20q40 0 86.5 33t71.5 86v323h62v-480q-60 -10 -92 -37t-32 -65q0 -23 15.5 -36.5t43.5 -13.5q32 0 60 17l17 -43
q-41 -22 -91 -22z" />
    <glyph glyph-name="Wcircumflex" unicode="&#x174;" horiz-adv-x="862" 
d="M208 -3l-184 723h70l142 -584h5l156 584h71l158 -584h5l150 584h57l-186 -723h-50l-168 614h-3l-168 -614h-55zM305 780l104 153h54l102 -153h-61l-71 107l-72 -107h-56z" />
    <glyph glyph-name="wcircumflex" unicode="&#x175;" horiz-adv-x="646" 
d="M157 -2l-135 482h62l102 -384h2l111 384h55l116 -384h2l97 384h55l-135 -482h-48l-116 385h-2l-118 -385h-48zM199 564l100 156h51l97 -156h-59l-65 108l-68 -108h-56z" />
    <glyph glyph-name="Ycircumflex" unicode="&#x176;" horiz-adv-x="558" 
d="M248 0v307l-236 413h79l195 -349l189 349h71l-230 -413v-307h-68zM161 780l104 153h54l102 -153h-61l-71 107l-72 -107h-56z" />
    <glyph glyph-name="ycircumflex" unicode="&#x177;" horiz-adv-x="400" 
d="M31 -205v60q65 0 93.5 31.5t52.5 109.5l-165 484h62l131 -390h2l125 390h56l-164 -494q-33 -101 -79 -146t-114 -45zM80 564l100 156h51l97 -156h-59l-65 108l-68 -108h-56z" />
    <glyph glyph-name="Ydieresis" unicode="&#x178;" horiz-adv-x="558" 
d="M248 0v307l-236 413h79l195 -349l189 349h71l-230 -413v-307h-68zM165 802v106h62v-106h-62zM350 802v106h62v-106h-62z" />
    <glyph glyph-name="Zacute" unicode="&#x179;" horiz-adv-x="544" 
d="M40 0v48l382 617h-370v55h452v-45l-386 -620h386v-55h-464zM235 780l73 150h81l-99 -150h-55z" />
    <glyph glyph-name="zacute" unicode="&#x17a;" horiz-adv-x="416" 
d="M32 0v30l264 402h-258v48h341v-24l-272 -408h277v-48h-352zM178 564l68 156h72l-91 -156h-49z" />
    <glyph glyph-name="Zdotaccent" unicode="&#x17b;" horiz-adv-x="544" 
d="M40 0v48l382 617h-370v55h452v-45l-386 -620h386v-55h-464zM250 800v106h68v-106h-68z" />
    <glyph glyph-name="zdotaccent" unicode="&#x17c;" horiz-adv-x="416" 
d="M32 0v30l264 402h-258v48h341v-24l-272 -408h277v-48h-352zM177 569v106h62v-106h-62z" />
    <glyph glyph-name="Zcaron" unicode="&#x17d;" horiz-adv-x="544" 
d="M40 0v48l382 617h-370v55h452v-45l-386 -620h386v-55h-464zM243 780l-102 153h61l71 -107l72 107h56l-104 -153h-54z" />
    <glyph glyph-name="zcaron" unicode="&#x17e;" horiz-adv-x="416" 
d="M32 0v30l264 402h-258v48h341v-24l-272 -408h277v-48h-352zM184 563l-97 157h59l65 -109l68 109h56l-100 -157h-51z" />
    <glyph glyph-name="uni018F" unicode="&#x18f;" horiz-adv-x="614" 
d="M294 -11q-116 0 -182 83t-69 238v24h454q1 9 1 36q0 155 -48.5 230t-157.5 75q-178 0 -188 -215h-60q5 130 74 200t182 70q270 0 270 -362q0 -178 -69.5 -278.5t-206.5 -100.5zM299 45q91 0 139 59t58 179h-386q5 -113 52 -175.5t137 -62.5z" />
    <glyph glyph-name="florin" unicode="&#x192;" horiz-adv-x="395" 
d="M-17 -200l9 51h20q68 0 78 63l65 446h-107l6 50h108l26 175q10 66 51.5 100.5t105.5 34.5h40l-10 -50h-41q-75 0 -87 -80l-27 -180h124l-6 -50h-125l-63 -433q-9 -66 -42.5 -96.5t-103.5 -30.5h-21z" />
    <glyph glyph-name="uni01B5" unicode="&#x1b5;" horiz-adv-x="544" 
d="M105 338v56h149l168 271h-370v55h452v-45l-175 -281h112v-56h-147l-176 -283h386v-55h-464v48l179 290h-114z" />
    <glyph glyph-name="uni01B6" unicode="&#x1b6;" horiz-adv-x="416" 
d="M32 0v30l131 200h-95v47h126l102 155h-258v48h341v-24l-120 -179h94v-47h-125l-121 -182h277v-48h-352z" />
    <glyph glyph-name="AEacute" unicode="&#x1fc;" horiz-adv-x="874" 
d="M16 0l353 720h446v-55h-345v-262h245v-55h-245v-293h358v-55h-426v177h-235l-85 -177h-66zM195 234h207v424h-2zM483 780l73 150h81l-99 -150h-55z" />
    <glyph glyph-name="aeacute" unicode="&#x1fd;" horiz-adv-x="822" 
d="M203 -10q-68 0 -113.5 36t-45.5 105q0 38 13.5 65t38.5 42t49.5 22.5t57.5 11.5l92 12q35 5 49 14t14 28v28q0 52 -30.5 71t-89.5 19q-121 0 -121 -81v-17h-54v17q0 66 50.5 96.5t129.5 30.5q129 0 164 -78q55 78 169 78q98 0 154 -63t56 -163v-24h-368q0 -206 159 -206
q60 0 103 31.5t47 96.5h55q-12 -85 -70 -128.5t-129 -43.5q-76 0 -127.5 32.5t-71.5 92.5q-47 -125 -181 -125zM211 34q74 0 110.5 51.5t36.5 122.5v55q-14 -16 -77 -25l-73 -10q-57 -7 -81 -26t-24 -69q0 -99 108 -99zM421 285h299q-12 162 -146 162q-149 0 -153 -162z
M379 564l68 156h72l-91 -156h-49z" />
    <glyph glyph-name="Oslashacute" unicode="&#x1fe;" horiz-adv-x="687" 
d="M291 780l73 150h81l-99 -150h-55zM341 -10q-100 0 -168 41l-46 -72l-46 26l51 79q-88 89 -88 286q0 180 81 280t220 100q104 0 177 -59l45 70l45 -26l-52 -81q83 -97 83 -265q0 -379 -302 -379zM347 44q120 0 172 77.5t52 250.5q0 128 -48 205l-318 -496q50 -37 142 -37z
M167 120l322 500q-58 56 -148 56q-112 0 -168.5 -84t-56.5 -222q0 -176 51 -250z" />
    <glyph glyph-name="oslashacute" unicode="&#x1ff;" horiz-adv-x="530" 
d="M241 564l68 156h72l-91 -156h-49zM266 -10q-59 0 -111 26l-42 -68l-38 23l44 69q-81 67 -81 194q0 118 63.5 187t161.5 69q68 0 120 -30l47 74l37 -22l-49 -77q74 -68 74 -193q0 -115 -62 -183.5t-164 -68.5zM267 34q86 0 120.5 47t34.5 162q0 95 -33 145l-210 -335
q34 -19 88 -19zM145 82l213 338q-37 26 -96 26q-88 0 -121 -52t-33 -155q0 -109 37 -157z" />
    <glyph glyph-name="Scommaaccent" unicode="&#x218;" horiz-adv-x="577" 
d="M289 -10q-68 0 -122.5 21t-93 75t-39.5 136h60q0 -42 13 -74t33 -51.5t47 -31.5t51.5 -16.5t49.5 -4.5q78 0 130 38.5t52 111.5q0 95 -144 136l-95 27q-38 11 -63 21.5t-53 30t-42.5 49.5t-14.5 71q0 87 64 144t164 57q98 0 161 -52.5t66 -152.5h-61q-13 151 -171 151
q-76 0 -117.5 -41t-41.5 -98q0 -26 9.5 -45t30 -32t38 -20.5t48.5 -16.5l86 -26q99 -30 146.5 -72.5t47.5 -124.5q0 -89 -64 -149.5t-175 -60.5zM250 -191l32 70h-30v76h70v-73l-36 -73h-36z" />
    <glyph glyph-name="scommaaccent" unicode="&#x219;" horiz-adv-x="427" 
d="M224 -10q-80 0 -132 38t-63 116h60q10 -52 40 -80t94 -28q116 0 116 90q0 34 -24 52.5t-74 30.5l-67 17q-57 15 -92 42.5t-35 79.5q0 61 44 101.5t125 40.5q148 0 166 -135h-58q-5 47 -31.5 68.5t-86.5 21.5q-47 0 -74 -23t-27 -56q0 -36 20 -54t71 -31l73 -19
q60 -16 93.5 -44.5t33.5 -79.5q0 -66 -48 -107t-124 -41zM182 -191l32 70h-30v76h70v-73l-36 -73h-36z" />
    <glyph glyph-name="uni021A" unicode="&#x21a;" horiz-adv-x="564" 
d="M248 0v665h-226v55h520v-55h-226v-665h-68zM242 -191l32 70h-30v76h70v-73l-36 -73h-36z" />
    <glyph glyph-name="uni021B" unicode="&#x21b;" horiz-adv-x="323" 
d="M285 0h-76q-111 0 -111 128v304h-84v48h84v133l52 41h10v-174h128v-48h-128v-303q0 -47 17 -62.5t48 -15.5h60v-51zM161 -191l32 70h-30v76h70v-73l-36 -73h-36z" />
    <glyph glyph-name="dotlessj" unicode="&#x237;" horiz-adv-x="230" 
d="M0 -200v53h17q67 0 67 72v555h62v-540q0 -140 -130 -140h-16z" />
    <glyph glyph-name="uni0259" unicode="&#x259;" horiz-adv-x="512" 
d="M239 490q115 0 175 -68.5t60 -178.5q0 -115 -60 -184t-168 -69q-98 0 -154 63t-56 163v24h368v7q-3 199 -159 199q-61 0 -102.5 -31t-47.5 -97h-55q12 85 70 128.5t129 43.5zM401 195h-299q12 -162 146 -162q149 0 153 162z" />
    <glyph glyph-name="circumflex" unicode="&#x2c6;" horiz-adv-x="600" 
d="M176 564l100 156h51l97 -156h-59l-65 108l-68 -108h-56z" />
    <glyph glyph-name="caron" unicode="&#x2c7;" horiz-adv-x="600" 
d="M273 563l-97 157h59l65 -109l68 109h56l-100 -157h-51z" />
    <glyph glyph-name="breve" unicode="&#x2d8;" horiz-adv-x="600" 
d="M301 565q-55 0 -88 41.5t-35 113.5h49q4 -50 19.5 -78.5t55.5 -28.5t57.5 26.5t21.5 80.5h47q-2 -75 -37 -115t-90 -40z" />
    <glyph glyph-name="dotaccent" unicode="&#x2d9;" horiz-adv-x="600" 
d="M269 569v106h62v-106h-62z" />
    <glyph glyph-name="ring" unicode="&#x2da;" horiz-adv-x="600" 
d="M302 550q-39 0 -64.5 23t-25.5 59q0 39 26 64t66 25q38 0 62.5 -23t24.5 -62t-25 -62.5t-64 -23.5zM303 585q22 0 35.5 13.5t13.5 36.5t-13 36t-36 13q-25 0 -38.5 -13t-13.5 -36q0 -24 14 -37t38 -13z" />
    <glyph glyph-name="ogonek" unicode="&#x2db;" horiz-adv-x="600" 
d="M314 -200q-49 0 -77.5 23t-28.5 65q0 56 48.5 94.5t120.5 51.5l18 -34q-58 -10 -92 -37.5t-34 -64.5q0 -23 15.5 -36.5t43.5 -13.5q32 0 60 17l17 -43q-41 -22 -91 -22z" />
    <glyph glyph-name="tilde" unicode="&#x2dc;" horiz-adv-x="600" 
d="M193 562l-39 7q6 42 28 66.5t55 24.5q26 0 68.5 -21t63.5 -21q30 0 40 47l40 -8q-4 -37 -25 -64t-54 -27q-23 0 -69 21.5t-61 21.5q-36 0 -47 -47z" />
    <glyph glyph-name="hungarumlaut" unicode="&#x2dd;" horiz-adv-x="600" 
d="M157 558l68 148h70l-88 -148h-50zM303 558l69 148h70l-89 -148h-50z" />
    <glyph glyph-name="gravecomb" unicode="&#x300;" horiz-adv-x="1" 
d="M-61 564l-91 156h72l68 -156h-49z" />
    <glyph glyph-name="acutecomb" unicode="&#x301;" horiz-adv-x="1" 
d="M-147 564l68 156h72l-91 -156h-49z" />
    <glyph glyph-name="uni0302" unicode="&#x302;" horiz-adv-x="1" 
d="M-326 564l100 156h51l97 -156h-59l-65 108l-68 -108h-56z" />
    <glyph glyph-name="tildecomb" unicode="&#x303;" horiz-adv-x="1" 
d="M-322 562l-39 7q6 42 28 66.5t55 24.5q26 0 68.5 -21t63.5 -21q30 0 40 47l40 -8q-4 -37 -25 -64t-54 -27q-23 0 -69 21.5t-61 21.5q-36 0 -47 -47z" />
    <glyph glyph-name="uni0304" unicode="&#x304;" horiz-adv-x="1" 
d="M-329 594v60h262v-60h-262z" />
    <glyph glyph-name="uni0306" unicode="&#x306;" horiz-adv-x="1" 
d="M-204 565q-55 0 -88 41.5t-35 113.5h49q4 -50 19.5 -78.5t55.5 -28.5t57.5 26.5t21.5 80.5h47q-2 -75 -37 -115t-90 -40z" />
    <glyph glyph-name="uni0307" unicode="&#x307;" horiz-adv-x="1" 
d="M-112 569v106h62v-106h-62z" />
    <glyph glyph-name="uni0308" unicode="&#x308;" horiz-adv-x="1" 
d="M-297 569v106h62v-106h-62zM-112 569v106h62v-106h-62z" />
    <glyph glyph-name="uni030A" unicode="&#x30a;" horiz-adv-x="1" 
d="M-144 550q-39 0 -64.5 23t-25.5 59q0 39 26 64t66 25q38 0 62.5 -23t24.5 -62t-25 -62.5t-64 -23.5zM-143 585q22 0 35.5 13.5t13.5 36.5t-13 36t-36 13q-25 0 -38.5 -13t-13.5 -36q0 -24 14 -37t38 -13z" />
    <glyph glyph-name="uni030B" unicode="&#x30b;" horiz-adv-x="1" 
d="M-321 558l68 148h70l-88 -148h-50zM-175 558l69 148h70l-89 -148h-50z" />
    <glyph glyph-name="uni030C" unicode="&#x30c;" horiz-adv-x="1" 
d="M-222 563l-97 157h59l65 -109l68 109h56l-100 -157h-51z" />
    <glyph glyph-name="uni0312" unicode="&#x312;" horiz-adv-x="1" 
d="M-162 560v73l36 73h36l-32 -70h30v-76h-70z" />
    <glyph glyph-name="uni0313" unicode="&#x313;" horiz-adv-x="1" 
d="M-162 574l32 70h-30v76h70v-73l-36 -73h-36z" />
    <glyph glyph-name="uni0326" unicode="&#x326;" horiz-adv-x="1" 
d="M-165 -191l32 70h-30v76h70v-73l-36 -73h-36z" />
    <glyph glyph-name="uni0327" unicode="&#x327;" horiz-adv-x="1" 
d="M-167 -204q-116 0 -116 93h49q3 -24 17 -37.5t51 -13.5q56 0 56 40q0 16 -18.5 28t-59.5 12v88h44v-58q48 -5 69 -27t21 -48q0 -38 -31 -57.5t-82 -19.5z" />
    <glyph glyph-name="uni0328" unicode="&#x328;" horiz-adv-x="1" 
d="M-229 -200q-49 0 -77.5 23t-28.5 65q0 56 48.5 94.5t120.5 51.5l18 -34q-58 -10 -92 -37.5t-34 -64.5q0 -23 15.5 -36.5t43.5 -13.5q32 0 60 17l17 -43q-41 -22 -91 -22z" />
    <glyph glyph-name="uni0394" unicode="&#x394;" horiz-adv-x="612" 
d="M32 0v28l243 696h63l242 -696v-28h-548zM111 60h389l-194 561h-4z" />
    <glyph glyph-name="uni03A9" unicode="&#x3a9;" horiz-adv-x="704" 
d="M71 0v55l160 -4v5q-85 59 -131.5 151.5t-46.5 186.5q0 156 84.5 246t214.5 90q125 0 212 -88t87 -235q0 -97 -51.5 -197t-123.5 -154v-5l159 4v-55h-243v42q187 156 187 356q0 124 -62 201t-168 77t-165 -78t-59 -197q0 -205 190 -359v-42h-244z" />
    <glyph glyph-name="uni03BC" unicode="&#x3bc;" horiz-adv-x="537" 
d="M80 -185v665h62v-340q0 -103 85 -103q67 0 110 54.5t43 103.5v285h62v-377q0 -57 40 -57q22 0 40 7v-49q-23 -8 -54 -8q-74 0 -82 102h-7q-18 -48 -60 -78t-91 -30q-30 0 -57 13.5t-39 44.5h-3l17 -215z" />
    <glyph glyph-name="pi" unicode="&#x3c0;" horiz-adv-x="509" 
d="M460 0h-27q-50 0 -71 27t-21 82v318h-166q-5 -188 -26 -427h-65q22 221 28 427h-74l12 53h425v-53h-72v-321q0 -18 2 -28t12.5 -18.5t30.5 -8.5h12v-51z" />
    <glyph glyph-name="Wgrave" unicode="&#x1e80;" horiz-adv-x="862" 
d="M208 -3l-184 723h70l142 -584h5l156 584h71l158 -584h5l150 584h57l-186 -723h-50l-168 614h-3l-168 -614h-55zM409 780l-99 150h81l73 -150h-55z" />
    <glyph glyph-name="wgrave" unicode="&#x1e81;" horiz-adv-x="646" 
d="M157 -2l-135 482h62l102 -384h2l111 384h55l116 -384h2l97 384h55l-135 -482h-48l-116 385h-2l-118 -385h-48zM298 564l-91 156h72l68 -156h-49z" />
    <glyph glyph-name="Wacute" unicode="&#x1e82;" horiz-adv-x="862" 
d="M208 -3l-184 723h70l142 -584h5l156 584h71l158 -584h5l150 584h57l-186 -723h-50l-168 614h-3l-168 -614h-55zM404 780l73 150h81l-99 -150h-55z" />
    <glyph glyph-name="wacute" unicode="&#x1e83;" horiz-adv-x="646" 
d="M157 -2l-135 482h62l102 -384h2l111 384h55l116 -384h2l97 384h55l-135 -482h-48l-116 385h-2l-118 -385h-48zM304 564l68 156h72l-91 -156h-49z" />
    <glyph glyph-name="Wdieresis" unicode="&#x1e84;" horiz-adv-x="862" 
d="M208 -3l-184 723h70l142 -584h5l156 584h71l158 -584h5l150 584h57l-186 -723h-50l-168 614h-3l-168 -614h-55zM307 802v106h62v-106h-62zM492 802v106h62v-106h-62z" />
    <glyph glyph-name="wdieresis" unicode="&#x1e85;" horiz-adv-x="646" 
d="M157 -2l-135 482h62l102 -384h2l111 384h55l116 -384h2l97 384h55l-135 -482h-48l-116 385h-2l-118 -385h-48zM199 569v106h62v-106h-62zM384 569v106h62v-106h-62z" />
    <glyph glyph-name="uni1E8A" unicode="&#x1e8a;" horiz-adv-x="568" 
d="M18 0l234 374l-206 346h76l171 -285l171 285h66l-206 -338l226 -382h-74l-190 322l-198 -322h-70zM259 800v106h68v-106h-68z" />
    <glyph glyph-name="uni1E8B" unicode="&#x1e8b;" horiz-adv-x="418" 
d="M12 0l163 251l-148 229h69l115 -180l109 180h63l-140 -224l163 -256h-67l-131 203l-130 -203h-66zM178 569v106h62v-106h-62z" />
    <glyph glyph-name="Ygrave" unicode="&#x1ef2;" horiz-adv-x="558" 
d="M248 0v307l-236 413h79l195 -349l189 349h71l-230 -413v-307h-68zM262 780l-99 150h81l73 -150h-55z" />
    <glyph glyph-name="ygrave" unicode="&#x1ef3;" horiz-adv-x="400" 
d="M31 -205v60q65 0 93.5 31.5t52.5 109.5l-165 484h62l131 -390h2l125 390h56l-164 -494q-33 -101 -79 -146t-114 -45zM188 564l-91 156h72l68 -156h-49z" />
    <glyph glyph-name="endash" unicode="&#x2013;" horiz-adv-x="500" 
d="M0 269v49h500v-49h-500z" />
    <glyph glyph-name="emdash" unicode="&#x2014;" horiz-adv-x="1000" 
d="M0 269v49h1000v-49h-1000z" />
    <glyph glyph-name="quoteleft" unicode="&#x2018;" horiz-adv-x="220" 
d="M106 720h42l-31 -110h31v-96h-76v94z" />
    <glyph glyph-name="quoteright" unicode="&#x2019;" horiz-adv-x="220" 
d="M72 514l31 110h-31v96h76v-94l-34 -112h-42z" />
    <glyph glyph-name="quotesinglbase" unicode="&#x201a;" horiz-adv-x="220" 
d="M72 -110l31 110h-31v96h76v-94l-34 -112h-42z" />
    <glyph glyph-name="quotedblleft" unicode="&#x201c;" horiz-adv-x="367" 
d="M106 720h42l-31 -110h31v-96h-76v94zM253 722h42l-31 -110h31v-96h-76v94z" />
    <glyph glyph-name="quotedblright" unicode="&#x201d;" horiz-adv-x="367" 
d="M72 514l31 110h-31v96h76v-94l-34 -112h-42zM219 514l31 110h-31v96h76v-94l-34 -112h-42z" />
    <glyph glyph-name="quotedblbase" unicode="&#x201e;" horiz-adv-x="367" 
d="M72 -110l31 110h-31v96h76v-94l-34 -112h-42zM219 -110l31 110h-31v96h76v-94l-34 -112h-42z" />
    <glyph glyph-name="dagger" unicode="&#x2020;" horiz-adv-x="584" 
d="M261 -148v585h-195v57h195v226h64v-226h193v-57h-193v-585h-64z" />
    <glyph glyph-name="daggerdbl" unicode="&#x2021;" horiz-adv-x="584" 
d="M261 -148v233h-195v57h195v295h-195v57h195v226h64v-226h193v-57h-193v-295h193v-57h-193v-233h-64z" />
    <glyph glyph-name="bullet" unicode="&#x2022;" horiz-adv-x="449" 
d="M225 175q-61 0 -103 43t-42 104q0 60 42 102t103 42q60 0 102 -42.5t42 -101.5q0 -61 -42 -104t-102 -43z" />
    <glyph glyph-name="ellipsis" unicode="&#x2026;" horiz-adv-x="660" 
d="M72 0v96h76v-96h-76zM292 0v96h76v-96h-76zM512 0v96h76v-96h-76z" />
    <glyph glyph-name="perthousand" unicode="&#x2030;" horiz-adv-x="952" 
d="M783 -10q-68 0 -98 45.5t-30 113.5t31 117.5t98 49.5q70 0 99 -47.5t29 -116.5q0 -66 -31 -114t-98 -48zM783 24q79 0 79 127q0 131 -80 131q-77 0 -77 -132q0 -126 78 -126zM116 -10l-40 24l443 716l40 -22zM471 -10q-68 0 -98 45.5t-30 113.5t31 117.5t98 49.5
q70 0 99 -47.5t29 -116.5q0 -66 -31 -114t-98 -48zM471 24q79 0 79 127q0 131 -80 131q-77 0 -77 -132q0 -126 78 -126zM168 403q-68 0 -98 46t-30 114t31 117.5t98 49.5q70 0 99 -47.5t29 -116.5q0 -66 -31 -114.5t-98 -48.5zM168 437q79 0 79 128q0 131 -80 131
q-77 0 -77 -132q0 -127 78 -127z" />
    <glyph glyph-name="guilsinglleft" unicode="&#x2039;" horiz-adv-x="181" 
d="M112 33l-80 193v28l81 192h50l-85 -205l85 -208h-51z" />
    <glyph glyph-name="guilsinglright" unicode="&#x203a;" horiz-adv-x="181" 
d="M18 33l85 208l-85 205h50l81 -192v-28l-80 -193h-51z" />
    <glyph glyph-name="fraction" unicode="&#x2044;" horiz-adv-x="220" 
d="M-94 -12l-37 23l443 720l37 -21z" />
    <glyph glyph-name="uni2070" unicode="&#x2070;" 
d="M160 435q-65 0 -98.5 51.5t-33.5 130.5q0 80 34 134.5t98 54.5q66 0 99 -54t33 -130q0 -80 -34 -133.5t-98 -53.5zM160 474q78 0 78 142q0 151 -79 151q-41 0 -59 -37.5t-18 -114.5q0 -141 78 -141z" />
    <glyph glyph-name="i.superior" unicode="&#x2071;" horiz-adv-x="159" 
d="M58 438v243h43v-243h-43zM58 725v61h43v-61h-43z" />
    <glyph glyph-name="uni2074" unicode="&#x2074;" 
d="M183 440v93h-159v42l149 227h61v-229h62v-40h-62v-93h-51zM66 573h117v172h-2z" />
    <glyph glyph-name="uni2075" unicode="&#x2075;" 
d="M159 435q-51 0 -85 30.5t-36 83.5h49q5 -41 23 -58t52 -17q68 0 68 87q0 45 -20.5 68t-51.5 23q-40 0 -65 -43l-43 2l5 190h198v-41h-155l-3 -110q28 38 75 38q50 0 81 -34t31 -88q0 -63 -33.5 -97t-89.5 -34z" />
    <glyph glyph-name="uni2076" unicode="&#x2076;" 
d="M167 435q-66 0 -101 51t-35 135q0 45 12 85t44.5 70t80.5 30q50 0 80.5 -31.5t31.5 -76.5h-50q-1 33 -18.5 50.5t-44.5 17.5q-82 0 -82 -141v-3q38 44 91 44q50 0 81.5 -29t31.5 -80q0 -59 -35.5 -90.5t-86.5 -31.5zM168 628q-47 0 -82 -47q11 -107 83 -107
q34 0 51.5 20.5t17.5 57.5q0 76 -70 76z" />
    <glyph glyph-name="uni2077" unicode="&#x2077;" 
d="M115 440q2 90 30 175t79 143h-177v43h225v-38q-53 -63 -78 -136t-27 -187h-52z" />
    <glyph glyph-name="uni2078" unicode="&#x2078;" 
d="M157 435q-50 0 -86 23.5t-36 69.5q0 26 19.5 52t54.5 42q-65 30 -65 86q0 35 28.5 66.5t86.5 31.5q56 0 84.5 -27t28.5 -66q0 -25 -17.5 -47.5t-52.5 -35.5q45 -23 64 -45t19 -50q0 -44 -33.5 -72t-94.5 -28zM161 474q74 0 74 54q0 23 -19.5 38t-70.5 38q-26 -9 -44 -28
t-18 -44q0 -58 78 -58zM167 649q27 10 42 27.5t15 35.5q0 25 -16.5 40.5t-48.5 15.5q-31 0 -48 -15.5t-17 -35.5q0 -22 17.5 -36.5t55.5 -31.5z" />
    <glyph glyph-name="uni2079" unicode="&#x2079;" 
d="M149 435q-50 0 -82 29.5t-33 76.5h50q0 -34 20 -50.5t48 -16.5q45 0 63.5 34t18.5 107v3q-34 -43 -93 -43q-46 0 -77 29t-31 78q0 60 35 92t86 32q65 0 99.5 -50t34.5 -136q0 -72 -34 -128.5t-105 -56.5zM149 611q54 0 83 46q-8 110 -78 110t-70 -77q0 -37 18 -58t47 -21
z" />
    <glyph glyph-name="uni207A" unicode="&#x207a;" 
d="M139 490v109h-107v40h107v109h41v-109h108v-40h-108v-109h-41z" />
    <glyph glyph-name="uni207B" unicode="&#x207b;" 
d="M34 599v40h252v-40h-252z" />
    <glyph glyph-name="uni207C" unicode="&#x207c;" 
d="M32 550v40h256v-40h-256zM32 648v40h256v-40h-256z" />
    <glyph glyph-name="uni207D" unicode="&#x207d;" horiz-adv-x="180" 
d="M109 394q-28 38 -43 99t-15 111q0 116 58 202h46q-29 -57 -41.5 -99t-12.5 -103q0 -110 54 -210h-46z" />
    <glyph glyph-name="uni207E" unicode="&#x207e;" horiz-adv-x="180" 
d="M71 394h-46q54 100 54 210q0 61 -12.5 103t-41.5 99h46q58 -86 58 -202q0 -50 -15 -111t-43 -99z" />
    <glyph glyph-name="n.superior" unicode="&#x207f;" horiz-adv-x="307" 
d="M58 438v243h41v-47h1q34 52 89 52q67 0 67 -68v-180h-43v172q0 37 -33 37q-24 0 -47 -19t-32 -42v-148h-43z" />
    <glyph glyph-name="uni2080" unicode="&#x2080;" 
d="M160 -113q-65 0 -98.5 51.5t-33.5 130.5q0 80 34 134.5t98 54.5q66 0 99 -54t33 -130q0 -80 -34 -133.5t-98 -53.5zM160 -74q78 0 78 142q0 151 -79 151q-41 0 -59 -37.5t-18 -114.5q0 -141 78 -141z" />
    <glyph glyph-name="uni2081" unicode="&#x2081;" 
d="M54 -108v41h82v250h-2q-12 -50 -76 -56v49q66 14 82 77h44v-320h82v-41h-212z" />
    <glyph glyph-name="uni2082" unicode="&#x2082;" 
d="M50 -108v40l73 64q35 30 53 48t34 47t16 60t-17 50t-49 19t-51 -17.5t-19 -47.5v-34h-48v27q0 48 31.5 79t88.5 31q58 0 86.5 -31.5t28.5 -74.5q0 -47 -31 -88.5t-86 -86.5l-48 -40v-2h166v-43h-228z" />
    <glyph glyph-name="uni2083" unicode="&#x2083;" 
d="M162 -113q-60 0 -91.5 32.5t-34.5 83.5h53v-3q5 -42 24.5 -58.5t53.5 -16.5q62 0 62 69q0 62 -65 62h-55v39h54q54 0 54 66q0 58 -62 58q-26 0 -44.5 -16t-19.5 -50v-5h-49q1 50 30 80t86 30t84.5 -28.5t27.5 -61.5t-17.5 -56.5t-47.5 -30.5v-2q32 -5 55 -26t23 -56
q0 -49 -32.5 -79.5t-88.5 -30.5z" />
    <glyph glyph-name="uni2084" unicode="&#x2084;" 
d="M183 -108v93h-159v42l149 227h61v-229h62v-40h-62v-93h-51zM66 25h117v172h-2z" />
    <glyph glyph-name="uni2085" unicode="&#x2085;" 
d="M159 -113q-51 0 -85 30.5t-36 83.5h49q5 -41 23 -58t52 -17q68 0 68 87q0 45 -20.5 68t-51.5 23q-40 0 -65 -43l-43 2l5 190h198v-41h-155l-3 -110q28 38 75 38q50 0 81 -34t31 -88q0 -63 -33.5 -97t-89.5 -34z" />
    <glyph glyph-name="uni2086" unicode="&#x2086;" 
d="M167 -113q-66 0 -101 51t-35 135q0 45 12 85t44.5 70t80.5 30q50 0 80.5 -31.5t31.5 -76.5h-50q-1 33 -18.5 50.5t-44.5 17.5q-82 0 -82 -141v-3q38 44 91 44q50 0 81.5 -29t31.5 -80q0 -59 -35.5 -90.5t-86.5 -31.5zM168 80q-47 0 -82 -47q11 -107 83 -107
q34 0 51.5 20.5t17.5 57.5q0 76 -70 76z" />
    <glyph glyph-name="uni2087" unicode="&#x2087;" 
d="M115 -108q2 90 30 175t79 143h-177v43h225v-38q-53 -63 -78 -136t-27 -187h-52z" />
    <glyph glyph-name="uni2088" unicode="&#x2088;" 
d="M157 -113q-50 0 -86 23.5t-36 69.5q0 26 19.5 52t54.5 42q-65 30 -65 86q0 35 28.5 66.5t86.5 31.5q56 0 84.5 -27t28.5 -66q0 -25 -17.5 -47.5t-52.5 -35.5q45 -23 64 -45t19 -50q0 -44 -33.5 -72t-94.5 -28zM161 -74q74 0 74 54q0 23 -19.5 38t-70.5 38q-26 -9 -44 -28
t-18 -44q0 -58 78 -58zM167 101q27 10 42 27.5t15 35.5q0 25 -16.5 40.5t-48.5 15.5q-31 0 -48 -15.5t-17 -35.5q0 -22 17.5 -36.5t55.5 -31.5z" />
    <glyph glyph-name="uni2089" unicode="&#x2089;" 
d="M149 -113q-50 0 -82 29.5t-33 76.5h50q0 -34 20 -50.5t48 -16.5q45 0 63.5 34t18.5 107v3q-34 -43 -93 -43q-46 0 -77 29t-31 78q0 60 35 92t86 32q65 0 99.5 -50t34.5 -136q0 -72 -34 -128.5t-105 -56.5zM149 63q54 0 83 46q-8 110 -78 110t-70 -77q0 -37 18 -58t47 -21
z" />
    <glyph glyph-name="uni208A" unicode="&#x208a;" 
d="M139 -58v109h-107v40h107v109h41v-109h108v-40h-108v-109h-41z" />
    <glyph glyph-name="uni208B" unicode="&#x208b;" 
d="M34 51v40h252v-40h-252z" />
    <glyph glyph-name="uni208C" unicode="&#x208c;" 
d="M32 2v40h256v-40h-256zM32 100v40h256v-40h-256z" />
    <glyph glyph-name="uni208D" unicode="&#x208d;" horiz-adv-x="180" 
d="M109 -154q-28 38 -43 99t-15 111q0 116 58 202h46q-29 -57 -41.5 -99t-12.5 -103q0 -110 54 -210h-46z" />
    <glyph glyph-name="uni208E" unicode="&#x208e;" horiz-adv-x="180" 
d="M71 -154h-46q54 100 54 210q0 61 -12.5 103t-41.5 99h46q58 -86 58 -202q0 -50 -15 -111t-43 -99z" />
    <glyph glyph-name="Euro" unicode="&#x20ac;" horiz-adv-x="687" 
d="M32 395v50h95q18 144 87.5 214.5t183.5 70.5q111 0 169 -67.5t67 -173.5h-64q-4 40 -13.5 70.5t-28.5 58t-52 42.5t-78 15q-98 0 -145 -58t-56 -172h289v-50h-292v-27q0 -31 2 -77h247v-50h-241q16 -108 65.5 -152t138.5 -44q92 0 135.5 61t43.5 157h63q-5 -125 -70 -199
t-186 -74q-227 0 -263 251h-97v50h92q-2 19 -2 59q0 8 0.5 23t0.5 22h-91z" />
    <glyph glyph-name="uni2117" unicode="&#x2117;" horiz-adv-x="772" 
d="M384 -16q-166 0 -257 103.5t-91 270.5q0 157 96.5 264.5t251.5 107.5q161 0 256.5 -107t95.5 -265q0 -104 -40 -187.5t-121.5 -135t-190.5 -51.5zM387 31q130 0 214 89.5t84 237.5q0 151 -86.5 238t-214.5 87t-213 -88.5t-85 -236.5q0 -155 80.5 -241t220.5 -86zM251 113
v490h167q68 0 114.5 -33.5t46.5 -102.5q0 -41 -15.5 -71t-40 -44.5t-47.5 -21t-45 -6.5h-126v-211h-54zM305 362h124q94 0 94 100q0 55 -26 78.5t-80 23.5h-112v-202z" />
    <glyph glyph-name="trademark" unicode="&#x2122;" horiz-adv-x="595" 
d="M115 475v210h-70v35h188v-35h-70v-210h-48zM275 475v245h64l54 -178h1l54 178h67v-245h-45v193h-1l-57 -193h-40l-56 193h-1v-193h-40z" />
    <glyph glyph-name="Omega" unicode="&#x2126;" horiz-adv-x="704" 
d="M71 0v55l160 -4v5q-85 59 -131.5 151.5t-46.5 186.5q0 156 84.5 246t214.5 90q125 0 212 -88t87 -235q0 -97 -51.5 -197t-123.5 -154v-5l159 4v-55h-243v42q187 156 187 356q0 124 -62 201t-168 77t-165 -78t-59 -197q0 -205 190 -359v-42h-244z" />
    <glyph glyph-name="onethird" unicode="&#x2153;" horiz-adv-x="722" 
d="M59 359v41h82v250h-2q-12 -50 -76 -56v49q66 14 82 77h44v-320h82v-41h-212zM565 -5q-60 0 -91.5 32.5t-34.5 83.5h53v-3q5 -42 24.5 -58.5t53.5 -16.5q62 0 62 69q0 62 -65 62h-55v39h54q54 0 54 66q0 58 -62 58q-26 0 -44.5 -16t-19.5 -50v-5h-49q1 50 30 80t86 30
t84.5 -28.5t27.5 -61.5t-17.5 -56.5t-47.5 -30.5v-2q32 -5 55 -26t23 -56q0 -49 -32.5 -79.5t-88.5 -30.5zM172 -12l-37 23l443 720l37 -21z" />
    <glyph glyph-name="twothirds" unicode="&#x2154;" horiz-adv-x="722" 
d="M63 359v40l73 64q35 30 53 48t34 47t16 60t-17 50t-49 19t-51 -17.5t-19 -47.5v-34h-48v27q0 48 31.5 79t88.5 31q58 0 86.5 -31.5t28.5 -74.5q0 -47 -31 -88.5t-86 -86.5l-48 -40v-2h166v-43h-228zM565 -5q-60 0 -91.5 32.5t-34.5 83.5h53v-3q5 -42 24.5 -58.5
t53.5 -16.5q62 0 62 69q0 62 -65 62h-55v39h54q54 0 54 66q0 58 -62 58q-26 0 -44.5 -16t-19.5 -50v-5h-49q1 50 30 80t86 30t84.5 -28.5t27.5 -61.5t-17.5 -56.5t-47.5 -30.5v-2q32 -5 55 -26t23 -56q0 -49 -32.5 -79.5t-88.5 -30.5zM172 -12l-37 23l443 720l37 -21z" />
    <glyph glyph-name="uni2155" unicode="&#x2155;" horiz-adv-x="722" 
d="M59 359v41h82v250h-2q-12 -50 -76 -56v49q66 14 82 77h44v-320h82v-41h-212zM562 -5q-51 0 -85 30.5t-36 83.5h49q5 -41 23 -58t52 -17q68 0 68 87q0 45 -20.5 68t-51.5 23q-40 0 -65 -43l-43 2l5 190h198v-41h-155l-3 -110q28 38 75 38q50 0 81 -34t31 -88
q0 -63 -33.5 -97t-89.5 -34zM172 -12l-37 23l443 720l37 -21z" />
    <glyph glyph-name="uni2156" unicode="&#x2156;" horiz-adv-x="722" 
d="M69 359v40l73 64q35 30 53 48t34 47t16 60t-17 50t-49 19t-51 -17.5t-19 -47.5v-34h-48v27q0 48 31.5 79t88.5 31q58 0 86.5 -31.5t28.5 -74.5q0 -47 -31 -88.5t-86 -86.5l-48 -40v-2h166v-43h-228zM562 -5q-51 0 -85 30.5t-36 83.5h49q5 -41 23 -58t52 -17q68 0 68 87
q0 45 -20.5 68t-51.5 23q-40 0 -65 -43l-43 2l5 190h198v-41h-155l-3 -110q28 38 75 38q50 0 81 -34t31 -88q0 -63 -33.5 -97t-89.5 -34zM172 -12l-37 23l443 720l37 -21z" />
    <glyph glyph-name="uni2157" unicode="&#x2157;" horiz-adv-x="722" 
d="M191 354q-60 0 -91.5 32.5t-34.5 83.5h53v-3q5 -42 24.5 -58.5t53.5 -16.5q62 0 62 69q0 62 -65 62h-55v39h54q54 0 54 66q0 58 -62 58q-26 0 -44.5 -16t-19.5 -50v-5h-49q1 50 30 80t86 30t84.5 -28.5t27.5 -61.5t-17.5 -56.5t-47.5 -30.5v-2q32 -5 55 -26t23 -56
q0 -49 -32.5 -79.5t-88.5 -30.5zM562 -5q-51 0 -85 30.5t-36 83.5h49q5 -41 23 -58t52 -17q68 0 68 87q0 45 -20.5 68t-51.5 23q-40 0 -65 -43l-43 2l5 190h198v-41h-155l-3 -110q28 38 75 38q50 0 81 -34t31 -88q0 -63 -33.5 -97t-89.5 -34zM172 -12l-37 23l443 720l37 -21
z" />
    <glyph glyph-name="uni2158" unicode="&#x2158;" horiz-adv-x="722" 
d="M202 359v93h-159v42l149 227h61v-229h62v-40h-62v-93h-51zM85 492h117v172h-2zM562 -5q-51 0 -85 30.5t-36 83.5h49q5 -41 23 -58t52 -17q68 0 68 87q0 45 -20.5 68t-51.5 23q-40 0 -65 -43l-43 2l5 190h198v-41h-155l-3 -110q28 38 75 38q50 0 81 -34t31 -88
q0 -63 -33.5 -97t-89.5 -34zM172 -12l-37 23l443 720l37 -21z" />
    <glyph glyph-name="uni2159" unicode="&#x2159;" horiz-adv-x="722" 
d="M59 359v41h82v250h-2q-12 -50 -76 -56v49q66 14 82 77h44v-320h82v-41h-212zM570 -5q-66 0 -101 51t-35 135q0 45 12 85t44.5 70t80.5 30q50 0 80.5 -31.5t31.5 -76.5h-50q-1 33 -18.5 50.5t-44.5 17.5q-82 0 -82 -141v-3q38 44 91 44q50 0 81.5 -29t31.5 -80
q0 -59 -35.5 -90.5t-86.5 -31.5zM571 188q-47 0 -82 -47q11 -107 83 -107q34 0 51.5 20.5t17.5 57.5q0 76 -70 76zM172 -12l-37 23l443 720l37 -21z" />
    <glyph glyph-name="uni215A" unicode="&#x215a;" horiz-adv-x="722" 
d="M176 354q-51 0 -85 30.5t-36 83.5h49q5 -41 23 -58t52 -17q68 0 68 87q0 45 -20.5 68t-51.5 23q-40 0 -65 -43l-43 2l5 190h198v-41h-155l-3 -110q28 38 75 38q50 0 81 -34t31 -88q0 -63 -33.5 -97t-89.5 -34zM570 -5q-66 0 -101 51t-35 135q0 45 12 85t44.5 70t80.5 30
q50 0 80.5 -31.5t31.5 -76.5h-50q-1 33 -18.5 50.5t-44.5 17.5q-82 0 -82 -141v-3q38 44 91 44q50 0 81.5 -29t31.5 -80q0 -59 -35.5 -90.5t-86.5 -31.5zM571 188q-47 0 -82 -47q11 -107 83 -107q34 0 51.5 20.5t17.5 57.5q0 76 -70 76zM172 -12l-37 23l443 720l37 -21z" />
    <glyph glyph-name="oneeighth" unicode="&#x215b;" horiz-adv-x="722" 
d="M59 359v41h82v250h-2q-12 -50 -76 -56v49q66 14 82 77h44v-320h82v-41h-212zM560 -5q-50 0 -86 23.5t-36 69.5q0 26 19.5 52t54.5 42q-65 30 -65 86q0 35 28.5 66.5t86.5 31.5q56 0 84.5 -27t28.5 -66q0 -25 -17.5 -47.5t-52.5 -35.5q45 -23 64 -45t19 -50
q0 -44 -33.5 -72t-94.5 -28zM564 34q74 0 74 54q0 23 -19.5 38t-70.5 38q-26 -9 -44 -28t-18 -44q0 -58 78 -58zM570 209q27 10 42 27.5t15 35.5q0 25 -16.5 40.5t-48.5 15.5q-31 0 -48 -15.5t-17 -35.5q0 -22 17.5 -36.5t55.5 -31.5zM172 -12l-37 23l443 720l37 -21z" />
    <glyph glyph-name="threeeighths" unicode="&#x215c;" horiz-adv-x="722" 
d="M181 354q-60 0 -91.5 32.5t-34.5 83.5h53v-3q5 -42 24.5 -58.5t53.5 -16.5q62 0 62 69q0 62 -65 62h-55v39h54q54 0 54 66q0 58 -62 58q-26 0 -44.5 -16t-19.5 -50v-5h-49q1 50 30 80t86 30t84.5 -28.5t27.5 -61.5t-17.5 -56.5t-47.5 -30.5v-2q32 -5 55 -26t23 -56
q0 -49 -32.5 -79.5t-88.5 -30.5zM560 -5q-50 0 -86 23.5t-36 69.5q0 26 19.5 52t54.5 42q-65 30 -65 86q0 35 28.5 66.5t86.5 31.5q56 0 84.5 -27t28.5 -66q0 -25 -17.5 -47.5t-52.5 -35.5q45 -23 64 -45t19 -50q0 -44 -33.5 -72t-94.5 -28zM564 34q74 0 74 54
q0 23 -19.5 38t-70.5 38q-26 -9 -44 -28t-18 -44q0 -58 78 -58zM570 209q27 10 42 27.5t15 35.5q0 25 -16.5 40.5t-48.5 15.5q-31 0 -48 -15.5t-17 -35.5q0 -22 17.5 -36.5t55.5 -31.5zM172 -12l-37 23l443 720l37 -21z" />
    <glyph glyph-name="fiveeighths" unicode="&#x215d;" horiz-adv-x="722" 
d="M178 354q-51 0 -85 30.5t-36 83.5h49q5 -41 23 -58t52 -17q68 0 68 87q0 45 -20.5 68t-51.5 23q-40 0 -65 -43l-43 2l5 190h198v-41h-155l-3 -110q28 38 75 38q50 0 81 -34t31 -88q0 -63 -33.5 -97t-89.5 -34zM560 -5q-50 0 -86 23.5t-36 69.5q0 26 19.5 52t54.5 42
q-65 30 -65 86q0 35 28.5 66.5t86.5 31.5q56 0 84.5 -27t28.5 -66q0 -25 -17.5 -47.5t-52.5 -35.5q45 -23 64 -45t19 -50q0 -44 -33.5 -72t-94.5 -28zM564 34q74 0 74 54q0 23 -19.5 38t-70.5 38q-26 -9 -44 -28t-18 -44q0 -58 78 -58zM570 209q27 10 42 27.5t15 35.5
q0 25 -16.5 40.5t-48.5 15.5q-31 0 -48 -15.5t-17 -35.5q0 -22 17.5 -36.5t55.5 -31.5zM172 -12l-37 23l443 720l37 -21z" />
    <glyph glyph-name="seveneighths" unicode="&#x215e;" horiz-adv-x="722" 
d="M174 359q2 90 30 175t79 143h-177v43h225v-38q-53 -63 -78 -136t-27 -187h-52zM560 -5q-50 0 -86 23.5t-36 69.5q0 26 19.5 52t54.5 42q-65 30 -65 86q0 35 28.5 66.5t86.5 31.5q56 0 84.5 -27t28.5 -66q0 -25 -17.5 -47.5t-52.5 -35.5q45 -23 64 -45t19 -50
q0 -44 -33.5 -72t-94.5 -28zM564 34q74 0 74 54q0 23 -19.5 38t-70.5 38q-26 -9 -44 -28t-18 -44q0 -58 78 -58zM570 209q27 10 42 27.5t15 35.5q0 25 -16.5 40.5t-48.5 15.5q-31 0 -48 -15.5t-17 -35.5q0 -22 17.5 -36.5t55.5 -31.5zM172 -12l-37 23l443 720l37 -21z" />
    <glyph glyph-name="uni2190" unicode="&#x2190;" horiz-adv-x="536" 
d="M185 239l-137 129l137 129l29 -27l-89 -81h340v-41h-339l88 -81z" />
    <glyph glyph-name="uni2191" unicode="&#x2191;" horiz-adv-x="536" 
d="M248 159v341l-81 -89l-28 29l130 138l128 -138l-27 -29l-81 89v-341h-41z" />
    <glyph glyph-name="uni2192" unicode="&#x2192;" horiz-adv-x="536" 
d="M351 239l-29 28l88 80h-339v41h340l-89 82l29 27l137 -129z" />
    <glyph glyph-name="uni2193" unicode="&#x2193;" horiz-adv-x="536" 
d="M267 159l-128 138l27 28l81 -88v341h41v-341l81 89l28 -29z" />
    <glyph glyph-name="uni2196" unicode="&#x2196;" horiz-adv-x="536" 
d="M409 216l-241 239l6 -119l-41 1l-6 189l189 -6l1 -41l-120 5l240 -240z" />
    <glyph glyph-name="uni2197" unicode="&#x2197;" horiz-adv-x="536" 
d="M127 216l-28 28l240 240l-120 -5l1 41l189 6l-6 -189l-41 -1l6 119z" />
    <glyph glyph-name="uni2198" unicode="&#x2198;" horiz-adv-x="536" 
d="M409 216l-189 6l-1 40l120 -5l-240 240l28 29l241 -240l-6 120l41 -1z" />
    <glyph glyph-name="uni2199" unicode="&#x2199;" horiz-adv-x="536" 
d="M127 216l6 189l41 1l-6 -120l241 240l28 -29l-240 -240l120 5l-1 -40z" />
    <glyph glyph-name="partialdiff" unicode="&#x2202;" horiz-adv-x="530" 
d="M266 -10q-105 0 -166.5 69t-61.5 175q0 118 63.5 187t161.5 69q21 0 41 -3l-214 233h68l185 -203q4 -4 25 -26t32.5 -34.5t28 -33.5t27.5 -39q36 -63 36 -157q0 -107 -63 -172t-163 -65zM267 34q86 0 120.5 47t34.5 162q0 105 -38.5 154t-121.5 49q-88 0 -121 -52
t-33 -155q0 -117 41.5 -161t117.5 -44z" />
    <glyph glyph-name="Delta" unicode="&#x2206;" horiz-adv-x="612" 
d="M32 0v28l243 696h63l242 -696v-28h-548zM111 60h389l-194 561h-4z" />
    <glyph glyph-name="product" unicode="&#x220f;" horiz-adv-x="646" 
d="M119 -108v773h-97v56h602v-56h-91v-773h-67v773h-279v-773h-68z" />
    <glyph glyph-name="summation" unicode="&#x2211;" horiz-adv-x="528" 
d="M41 -108l-1 57l268 376l-268 336v59h456v-55h-382l251 -312v-50l-259 -357h394v-54h-459z" />
    <glyph glyph-name="minus" unicode="&#x2212;" horiz-adv-x="540" 
d="M43 288v52h454v-52h-454z" />
    <glyph glyph-name="radical" unicode="&#x221a;" horiz-adv-x="562" 
d="M256 -108l-133 495l-113 -12v56l165 17l122 -454l197 756h63l-239 -858h-62z" />
    <glyph glyph-name="infinity" unicode="&#x221e;" horiz-adv-x="740" 
d="M193 183q-61 0 -99 39t-38 96q0 59 42 99t101 40q93 0 174 -97q34 38 78.5 65.5t87.5 27.5q67 0 106 -34.5t39 -93.5q0 -63 -43 -102.5t-109 -39.5q-87 0 -164 93q-85 -93 -175 -93zM198 229q34 0 67.5 23.5t75.5 66.5q-65 90 -137 90q-40 0 -67.5 -24t-27.5 -62t24 -66
t65 -28zM533 228q42 0 70 26t28 65t-23.5 63t-68.5 24q-52 0 -139 -89q33 -42 63.5 -65.5t69.5 -23.5z" />
    <glyph glyph-name="integral" unicode="&#x222b;" horiz-adv-x="364" 
d="M87 -166q-36 0 -59 6l10 55q28 -6 45 -6q46 0 72.5 33.5t26.5 103.5q0 64 -40 250.5t-40 240.5q0 99 44 153t118 54q27 0 52 -5l-9 -56q-22 6 -47 6q-98 0 -98 -145q0 -46 40 -234t40 -259q0 -90 -43 -143.5t-112 -53.5z" />
    <glyph glyph-name="approxequal" unicode="&#x2248;" horiz-adv-x="540" 
d="M85 147l-47 9q6 71 40.5 105.5t82.5 34.5q38 0 78.5 -21t77 -41.5t62.5 -20.5q69 0 72 93l51 -9q-6 -70 -40 -103t-84 -33q-42 0 -112 41.5t-105 41.5q-66 0 -76 -97zM85 330l-47 9q6 71 40.5 105.5t82.5 34.5q38 0 78.5 -20.5t77 -41.5t62.5 -21q69 0 72 93l51 -9
q-6 -70 -40 -103t-84 -33q-42 0 -112 41.5t-105 41.5q-66 0 -76 -97z" />
    <glyph glyph-name="notequal" unicode="&#x2260;" horiz-adv-x="540" 
d="M43 378v52h247l40 114h52l-40 -114h155v-52h-173l-45 -128h218v-52h-236l-46 -129h-52l46 129h-166v52h184l45 128h-229z" />
    <glyph glyph-name="lessequal" unicode="&#x2264;" horiz-adv-x="540" 
d="M43 0v52h454v-52h-454zM479 153l-443 207v42l445 203l23 -47l-393 -176l391 -183z" />
    <glyph glyph-name="greaterequal" unicode="&#x2265;" horiz-adv-x="540" 
d="M43 0v52h454v-52h-454zM61 153l-23 46l391 183l-393 176l23 47l445 -203v-42z" />
    <glyph glyph-name="uni22A0" unicode="&#x22a0;" horiz-adv-x="777" 
d="M60 0v720h657v-720h-657zM110 41h558v634h-558v-634zM213 133l-45 42l176 191l-177 192l48 41l172 -186l176 190l47 -41l-180 -195l176 -192l-44 -43l-176 185z" />
    <glyph glyph-name="uni25A0" unicode="&#x25a0;" horiz-adv-x="747" 
d="M50 0v720h647v-720h-647z" />
    <glyph glyph-name="uni25A1" unicode="&#x25a1;" horiz-adv-x="747" 
d="M50 0v720h647v-720h-647zM99 41h549v635h-549v-635z" />
    <glyph glyph-name="uni25AA" unicode="&#x25aa;" horiz-adv-x="597" 
d="M50 0v512h497v-512h-497z" />
    <glyph glyph-name="uni25AB" unicode="&#x25ab;" horiz-adv-x="597" 
d="M50 0v512h497v-512h-497zM99 41h400v429h-400v-429z" />
    <glyph glyph-name="lozenge" unicode="&#x25ca;" horiz-adv-x="560" 
d="M252 -1l-202 354v12l202 355h56l202 -355v-12l-202 -354h-56zM283 56l167 300l-172 307l-166 -302z" />
    <glyph glyph-name="fi" unicode="&#xfb01;" horiz-adv-x="522" 
d="M103 0v432h-92v48h92v111q0 132 129 132h53v-49h-40q-43 0 -61.5 -14t-18.5 -62v-118h120v-48h-120v-432h-62zM376 0v480h62v-480h-62zM376 559v106h62v-106h-62z" />
    <glyph glyph-name="fl" unicode="&#xfb02;" horiz-adv-x="522" 
d="M103 0v432h-92v48h92v111q0 132 129 132h53v-49h-40q-43 0 -61.5 -14t-18.5 -62v-118h120v-48h-120v-432h-62zM376 0v720h62v-720h-62z" />
    <glyph glyph-name="zero.tf" horiz-adv-x="600" 
d="M295 -10q-66 0 -117 32.5t-80.5 86.5t-44 115.5t-14.5 126.5q0 72 15 137t45 120.5t82.5 88.5t120.5 33q69 0 121.5 -33.5t81.5 -89.5t42.5 -119t13.5 -132q0 -70 -15.5 -134t-46.5 -116.5t-84 -84t-120 -31.5zM299 42q99 0 146.5 81t47.5 225q0 330 -195 330
q-192 0 -192 -330q0 -64 10.5 -117.5t32.5 -97t60 -67.5t90 -24z" />
    <glyph glyph-name="one.tf" horiz-adv-x="600" 
d="M126 0v54h161v548h-4q-32 -95 -140 -109v59q69 17 102 60.5t47 109.5h57v-668h161v-54h-384z" />
    <glyph glyph-name="two.tf" horiz-adv-x="600" 
d="M90 0v62l152 130q43 37 58.5 50.5t49 46t46.5 52t31 50.5t24.5 62.5t6.5 67.5q0 68 -39 111.5t-114 43.5q-76 0 -121 -41t-45 -112v-66h-61v56q0 90 61.5 153.5t171.5 63.5q104 0 159.5 -63.5t55.5 -145.5q0 -52 -19 -102t-54.5 -94t-66 -75t-73.5 -67l-150 -126v-3h363
v-54h-436z" />
    <glyph glyph-name="three.tf" horiz-adv-x="600" 
d="M314 -10q-61 0 -108.5 20t-76 54.5t-44 73.5t-18.5 82h64q22 -178 182 -178q80 0 120 44.5t40 116.5q0 138 -146 138h-115v52h110q61 0 91 40.5t30 109.5q0 133 -148 133q-28 0 -54 -7.5t-51.5 -24t-41 -48.5t-15.5 -75h-56q0 90 59.5 149.5t164.5 59.5q103 0 155 -56
t52 -123q0 -64 -29 -110.5t-83 -63.5v-6q142 -27 142 -173q0 -84 -62 -146t-162 -62z" />
    <glyph glyph-name="four.tf" horiz-adv-x="600" 
d="M369 0v200h-329v58l315 462h76v-466h138v-54h-138v-200h-62zM97 254h272v387h-4z" />
    <glyph glyph-name="five.tf" horiz-adv-x="600" 
d="M310 -10q-99 0 -161.5 64.5t-68.5 165.5h57q22 -180 182 -180q70 0 115 49t45 161q0 101 -50 149.5t-119 48.5q-93 0 -152 -104h-57l8 376h374v-54h-325l-5 -259q62 90 164 90q107 0 165 -71.5t58 -173.5q0 -130 -65 -196t-165 -66z" />
    <glyph glyph-name="six.tf" horiz-adv-x="600" 
d="M315 -10q-123 0 -191 98t-68 263q0 47 6.5 94.5t25 100t47 92.5t76.5 66t110 26q67 0 116.5 -34t71.5 -80.5t22 -96.5h-61q0 75 -42.5 117t-108.5 42q-100 0 -148 -82t-48 -228v-29q42 51 98.5 76.5t106.5 25.5q96 0 156 -61.5t60 -154.5q0 -110 -63.5 -172.5
t-165.5 -62.5zM321 388q-110 0 -195 -106q23 -240 186 -240q85 0 128 45.5t43 128.5q0 80 -41.5 126t-120.5 46z" />
    <glyph glyph-name="seven.tf" horiz-adv-x="600" 
d="M232 0q0 188 56.5 362t163.5 303h-368v55h431v-52q-114 -142 -167 -293t-53 -375h-63z" />
    <glyph glyph-name="eight.tf" horiz-adv-x="600" 
d="M300 -10q-104 0 -172 46.5t-68 137.5q0 54 42.5 109t119.5 87q-144 67 -144 174q0 30 11.5 61t36 60t69 47t103.5 18q103 0 159.5 -51t56.5 -123q0 -57 -40.5 -107t-116.5 -79q104 -51 143 -92t39 -99q0 -81 -62.5 -135t-176.5 -54zM300 41q89 0 132.5 35t43.5 97
q0 52 -43 88t-158 86q-64 -23 -107 -66t-43 -104q0 -136 175 -136zM310 394q67 27 103.5 69t36.5 91q0 56 -39.5 89.5t-115.5 33.5q-77 0 -116 -35.5t-39 -85.5q0 -53 38.5 -88.5t131.5 -73.5z" />
    <glyph glyph-name="nine.tf" horiz-adv-x="600" 
d="M274 -10q-98 0 -158.5 62.5t-60.5 148.5h61q0 -77 47 -118t112 -41q104 0 153 80.5t49 226.5v21q-78 -94 -201 -94q-99 0 -157 60.5t-58 155.5q0 111 61 174.5t158 63.5q128 0 196 -100t68 -264t-70 -270t-200 -106zM280 327q121 0 194 97q-22 254 -188 254
q-82 0 -123 -46t-41 -128t42 -129.5t116 -47.5z" />
    <glyph glyph-name="zero.osf" horiz-adv-x="573" 
d="M285 -8q-66 0 -115.5 21t-77.5 58.5t-41.5 83.5t-13.5 102q0 120 61.5 196.5t188.5 76.5q68 0 118 -22.5t77.5 -62t40.5 -86t13 -101.5q0 -115 -61 -190.5t-190 -75.5zM286 40q184 0 184 220q0 222 -182 222q-185 0 -185 -221t183 -221z" />
    <glyph glyph-name="one.osf" horiz-adv-x="494" 
d="M79 0v54h161v346h-4q-32 -95 -140 -109v59q69 17 102 60.5t47 109.5h57v-466h161v-54h-384z" />
    <glyph glyph-name="two.osf" horiz-adv-x="530" 
d="M57 0v62q30 16 80.5 41t83 41t72.5 40.5t63 46.5t39.5 52t16.5 62q0 131 -149 131q-77 0 -119.5 -38.5t-42.5 -113.5v-25h-61v24q0 87 61.5 147t163.5 60q108 0 159.5 -47.5t51.5 -126.5q0 -43 -17.5 -80t-43.5 -65t-73 -56.5t-89 -49t-109 -48.5v-3h345v-54h-432z" />
    <glyph glyph-name="three.osf" horiz-adv-x="553" 
d="M291 -210q-61 0 -108.5 20t-76 54.5t-44 73.5t-18.5 82h64q22 -178 182 -178q80 0 120 44.5t40 116.5q0 138 -146 138h-115v52h110q61 0 91 40.5t30 109.5q0 133 -148 133q-28 0 -54 -7.5t-51.5 -24t-41 -48.5t-15.5 -75h-56q0 90 59.5 149.5t164.5 59.5q103 0 155 -56
t52 -123q0 -64 -29 -110.5t-83 -63.5v-6q142 -27 142 -173q0 -84 -62 -146t-162 -62z" />
    <glyph glyph-name="four.osf" horiz-adv-x="604" 
d="M370 -200v200h-329v58l315 462h76v-466h138v-54h-138v-200h-62zM98 54h272v387h-4z" />
    <glyph glyph-name="five.osf" horiz-adv-x="552" 
d="M282 -210q-99 0 -161.5 64.5t-68.5 165.5h57q22 -180 182 -180q70 0 115 49t45 161q0 101 -50 149.5t-119 48.5q-93 0 -152 -104h-57l8 376h374v-54h-325l-5 -259q62 90 164 90q107 0 165 -71.5t58 -173.5q0 -130 -65 -196t-165 -66z" />
    <glyph glyph-name="six.osf" horiz-adv-x="568" 
d="M299 -10q-123 0 -191 98t-68 263q0 47 6.5 94.5t25 100t47 92.5t76.5 66t110 26q67 0 116.5 -34t71.5 -80.5t22 -96.5h-61q0 75 -42.5 117t-108.5 42q-100 0 -148 -82t-48 -228v-29q42 51 98.5 76.5t106.5 25.5q96 0 156 -61.5t60 -154.5q0 -110 -63.5 -172.5
t-165.5 -62.5zM305 388q-110 0 -195 -106q23 -240 186 -240q85 0 128 45.5t43 128.5q0 80 -41.5 126t-120.5 46z" />
    <glyph glyph-name="seven.osf" horiz-adv-x="475" 
d="M176 -200q0 188 56.5 362t163.5 303h-368v55h431v-52q-114 -142 -167 -293t-53 -375h-63z" />
    <glyph glyph-name="eight.osf" horiz-adv-x="563" 
d="M282 -10q-104 0 -172 46.5t-68 137.5q0 54 42.5 109t119.5 87q-144 67 -144 174q0 30 11.5 61t36 60t69 47t103.5 18q103 0 159.5 -51t56.5 -123q0 -57 -40.5 -107t-116.5 -79q104 -51 143 -92t39 -99q0 -81 -62.5 -135t-176.5 -54zM282 41q89 0 132.5 35t43.5 97
q0 52 -43 88t-158 86q-64 -23 -107 -66t-43 -104q0 -136 175 -136zM292 394q67 27 103.5 69t36.5 91q0 56 -39.5 89.5t-115.5 33.5q-77 0 -116 -35.5t-39 -85.5q0 -53 38.5 -88.5t131.5 -73.5z" />
    <glyph glyph-name="nine.osf" horiz-adv-x="568" 
d="M258 -210q-98 0 -158.5 62.5t-60.5 148.5h61q0 -77 47 -118t112 -41q104 0 153 80.5t49 226.5v21q-78 -94 -201 -94q-99 0 -157 60.5t-58 155.5q0 111 61 174.5t158 63.5q128 0 196 -100t68 -264t-70 -270t-200 -106zM264 127q121 0 194 97q-22 254 -188 254
q-82 0 -123 -46t-41 -128t42 -129.5t116 -47.5z" />
    <glyph glyph-name="zero.tosf" horiz-adv-x="600" 
d="M298 -8q-66 0 -115.5 21t-77.5 58.5t-41.5 83.5t-13.5 102q0 120 61.5 196.5t188.5 76.5q68 0 118 -22.5t77.5 -62t40.5 -86t13 -101.5q0 -115 -61 -190.5t-190 -75.5zM299 40q184 0 184 220q0 222 -182 222q-185 0 -185 -221t183 -221z" />
    <glyph glyph-name="one.tosf" horiz-adv-x="600" 
d="M108 0v54h161v346h-4q-32 -95 -140 -109v59q69 17 102 60.5t47 109.5h57v-466h161v-54h-384z" />
    <glyph glyph-name="two.tosf" horiz-adv-x="600" 
d="M92 0v62q30 16 80.5 41t83 41t72.5 40.5t63 46.5t39.5 52t16.5 62q0 131 -149 131q-77 0 -119.5 -38.5t-42.5 -113.5v-25h-61v24q0 87 61.5 147t163.5 60q108 0 159.5 -47.5t51.5 -126.5q0 -43 -17.5 -80t-43.5 -65t-73 -56.5t-89 -49t-109 -48.5v-3h345v-54h-432z" />
    <glyph glyph-name="three.tosf" horiz-adv-x="600" 
d="M319 -210q-61 0 -108.5 20t-76 54.5t-44 73.5t-18.5 82h64q22 -178 182 -178q80 0 120 44.5t40 116.5q0 138 -146 138h-115v52h110q61 0 91 40.5t30 109.5q0 133 -148 133q-28 0 -54 -7.5t-51.5 -24t-41 -48.5t-15.5 -75h-56q0 90 59.5 149.5t164.5 59.5q103 0 155 -56
t52 -123q0 -64 -29 -110.5t-83 -63.5v-6q142 -27 142 -173q0 -84 -62 -146t-162 -62z" />
    <glyph glyph-name="four.tosf" horiz-adv-x="600" 
d="M375 -200v200h-329v58l315 462h76v-466h138v-54h-138v-200h-62zM103 54h272v387h-4z" />
    <glyph glyph-name="five.tosf" horiz-adv-x="600" 
d="M307 -210q-99 0 -161.5 64.5t-68.5 165.5h57q22 -180 182 -180q70 0 115 49t45 161q0 101 -50 149.5t-119 48.5q-93 0 -152 -104h-57l8 376h374v-54h-325l-5 -259q62 90 164 90q107 0 165 -71.5t58 -173.5q0 -130 -65 -196t-165 -66z" />
    <glyph glyph-name="six.tosf" horiz-adv-x="600" 
d="M319 -10q-123 0 -191 98t-68 263q0 47 6.5 94.5t25 100t47 92.5t76.5 66t110 26q67 0 116.5 -34t71.5 -80.5t22 -96.5h-61q0 75 -42.5 117t-108.5 42q-100 0 -148 -82t-48 -228v-29q42 51 98.5 76.5t106.5 25.5q96 0 156 -61.5t60 -154.5q0 -110 -63.5 -172.5
t-165.5 -62.5zM325 388q-110 0 -195 -106q23 -240 186 -240q85 0 128 45.5t43 128.5q0 80 -41.5 126t-120.5 46z" />
    <glyph glyph-name="seven.tosf" horiz-adv-x="600" 
d="M240 -200q0 188 56.5 362t163.5 303h-368v55h431v-52q-114 -142 -167 -293t-53 -375h-63z" />
    <glyph glyph-name="eight.tosf" horiz-adv-x="600" 
d="M305 -10q-104 0 -172 46.5t-68 137.5q0 54 42.5 109t119.5 87q-144 67 -144 174q0 30 11.5 61t36 60t69 47t103.5 18q103 0 159.5 -51t56.5 -123q0 -57 -40.5 -107t-116.5 -79q104 -51 143 -92t39 -99q0 -81 -62.5 -135t-176.5 -54zM305 41q89 0 132.5 35t43.5 97
q0 52 -43 88t-158 86q-64 -23 -107 -66t-43 -104q0 -136 175 -136zM315 394q67 27 103.5 69t36.5 91q0 56 -39.5 89.5t-115.5 33.5q-77 0 -116 -35.5t-39 -85.5q0 -53 38.5 -88.5t131.5 -73.5z" />
    <glyph glyph-name="nine.tosf" horiz-adv-x="600" 
d="M278 -210q-98 0 -158.5 62.5t-60.5 148.5h61q0 -77 47 -118t112 -41q104 0 153 80.5t49 226.5v21q-78 -94 -201 -94q-99 0 -157 60.5t-58 155.5q0 111 61 174.5t158 63.5q128 0 196 -100t68 -264t-70 -270t-200 -106zM284 127q121 0 194 97q-22 254 -188 254
q-82 0 -123 -46t-41 -128t42 -129.5t116 -47.5z" />
    <glyph glyph-name="zero.numr" 
d="M160 354q-65 0 -98.5 51.5t-33.5 130.5q0 80 34 134.5t98 54.5q66 0 99 -54t33 -130q0 -80 -34 -133.5t-98 -53.5zM160 393q78 0 78 142q0 151 -79 151q-41 0 -59 -37.5t-18 -114.5q0 -141 78 -141z" />
    <glyph glyph-name="one.numr" 
d="M54 359v41h82v250h-2q-12 -50 -76 -56v49q66 14 82 77h44v-320h82v-41h-212z" />
    <glyph glyph-name="two.numr" 
d="M50 359v40l73 64q35 30 53 48t34 47t16 60t-17 50t-49 19t-51 -17.5t-19 -47.5v-34h-48v27q0 48 31.5 79t88.5 31q58 0 86.5 -31.5t28.5 -74.5q0 -47 -31 -88.5t-86 -86.5l-48 -40v-2h166v-43h-228z" />
    <glyph glyph-name="three.numr" 
d="M162 354q-60 0 -91.5 32.5t-34.5 83.5h53v-3q5 -42 24.5 -58.5t53.5 -16.5q62 0 62 69q0 62 -65 62h-55v39h54q54 0 54 66q0 58 -62 58q-26 0 -44.5 -16t-19.5 -50v-5h-49q1 50 30 80t86 30t84.5 -28.5t27.5 -61.5t-17.5 -56.5t-47.5 -30.5v-2q32 -5 55 -26t23 -56
q0 -49 -32.5 -79.5t-88.5 -30.5z" />
    <glyph glyph-name="four.numr" 
d="M183 359v93h-159v42l149 227h61v-229h62v-40h-62v-93h-51zM66 492h117v172h-2z" />
    <glyph glyph-name="five.numr" 
d="M159 354q-51 0 -85 30.5t-36 83.5h49q5 -41 23 -58t52 -17q68 0 68 87q0 45 -20.5 68t-51.5 23q-40 0 -65 -43l-43 2l5 190h198v-41h-155l-3 -110q28 38 75 38q50 0 81 -34t31 -88q0 -63 -33.5 -97t-89.5 -34z" />
    <glyph glyph-name="six.numr" 
d="M167 354q-66 0 -101 51t-35 135q0 45 12 85t44.5 70t80.5 30q50 0 80.5 -31.5t31.5 -76.5h-50q-1 33 -18.5 50.5t-44.5 17.5q-82 0 -82 -141v-3q38 44 91 44q50 0 81.5 -29t31.5 -80q0 -59 -35.5 -90.5t-86.5 -31.5zM168 547q-47 0 -82 -47q11 -107 83 -107
q34 0 51.5 20.5t17.5 57.5q0 76 -70 76z" />
    <glyph glyph-name="seven.numr" 
d="M115 359q2 90 30 175t79 143h-177v43h225v-38q-53 -63 -78 -136t-27 -187h-52z" />
    <glyph glyph-name="eight.numr" 
d="M157 354q-50 0 -86 23.5t-36 69.5q0 26 19.5 52t54.5 42q-65 30 -65 86q0 35 28.5 66.5t86.5 31.5q56 0 84.5 -27t28.5 -66q0 -25 -17.5 -47.5t-52.5 -35.5q45 -23 64 -45t19 -50q0 -44 -33.5 -72t-94.5 -28zM161 393q74 0 74 54q0 23 -19.5 38t-70.5 38q-26 -9 -44 -28
t-18 -44q0 -58 78 -58zM167 568q27 10 42 27.5t15 35.5q0 25 -16.5 40.5t-48.5 15.5q-31 0 -48 -15.5t-17 -35.5q0 -22 17.5 -36.5t55.5 -31.5z" />
    <glyph glyph-name="nine.numr" 
d="M149 354q-50 0 -82 29.5t-33 76.5h50q0 -34 20 -50.5t48 -16.5q45 0 63.5 34t18.5 107v3q-34 -43 -93 -43q-46 0 -77 29t-31 78q0 60 35 92t86 32q65 0 99.5 -50t34.5 -136q0 -72 -34 -128.5t-105 -56.5zM149 530q54 0 83 46q-8 110 -78 110t-70 -77q0 -37 18 -58t47 -21
z" />
    <glyph glyph-name="zero.dnom" 
d="M160 -5q-65 0 -98.5 51.5t-33.5 130.5q0 80 34 134.5t98 54.5q66 0 99 -54t33 -130q0 -80 -34 -133.5t-98 -53.5zM160 34q78 0 78 142q0 151 -79 151q-41 0 -59 -37.5t-18 -114.5q0 -141 78 -141z" />
    <glyph glyph-name="one.dnom" 
d="M54 0v41h82v250h-2q-12 -50 -76 -56v49q66 14 82 77h44v-320h82v-41h-212z" />
    <glyph glyph-name="two.dnom" 
d="M50 0v40l73 64q35 30 53 48t34 47t16 60t-17 50t-49 19t-51 -17.5t-19 -47.5v-34h-48v27q0 48 31.5 79t88.5 31q58 0 86.5 -31.5t28.5 -74.5q0 -47 -31 -88.5t-86 -86.5l-48 -40v-2h166v-43h-228z" />
    <glyph glyph-name="three.dnom" 
d="M162 -5q-60 0 -91.5 32.5t-34.5 83.5h53v-3q5 -42 24.5 -58.5t53.5 -16.5q62 0 62 69q0 62 -65 62h-55v39h54q54 0 54 66q0 58 -62 58q-26 0 -44.5 -16t-19.5 -50v-5h-49q1 50 30 80t86 30t84.5 -28.5t27.5 -61.5t-17.5 -56.5t-47.5 -30.5v-2q32 -5 55 -26t23 -56
q0 -49 -32.5 -79.5t-88.5 -30.5z" />
    <glyph glyph-name="four.dnom" 
d="M183 0v93h-159v42l149 227h61v-229h62v-40h-62v-93h-51zM66 133h117v172h-2z" />
    <glyph glyph-name="five.dnom" 
d="M159 -5q-51 0 -85 30.5t-36 83.5h49q5 -41 23 -58t52 -17q68 0 68 87q0 45 -20.5 68t-51.5 23q-40 0 -65 -43l-43 2l5 190h198v-41h-155l-3 -110q28 38 75 38q50 0 81 -34t31 -88q0 -63 -33.5 -97t-89.5 -34z" />
    <glyph glyph-name="six.dnom" 
d="M167 -5q-66 0 -101 51t-35 135q0 45 12 85t44.5 70t80.5 30q50 0 80.5 -31.5t31.5 -76.5h-50q-1 33 -18.5 50.5t-44.5 17.5q-82 0 -82 -141v-3q38 44 91 44q50 0 81.5 -29t31.5 -80q0 -59 -35.5 -90.5t-86.5 -31.5zM168 188q-47 0 -82 -47q11 -107 83 -107
q34 0 51.5 20.5t17.5 57.5q0 76 -70 76z" />
    <glyph glyph-name="seven.dnom" 
d="M115 0q2 90 30 175t79 143h-177v43h225v-38q-53 -63 -78 -136t-27 -187h-52z" />
    <glyph glyph-name="eight.dnom" 
d="M157 -5q-50 0 -86 23.5t-36 69.5q0 26 19.5 52t54.5 42q-65 30 -65 86q0 35 28.5 66.5t86.5 31.5q56 0 84.5 -27t28.5 -66q0 -25 -17.5 -47.5t-52.5 -35.5q45 -23 64 -45t19 -50q0 -44 -33.5 -72t-94.5 -28zM161 34q74 0 74 54q0 23 -19.5 38t-70.5 38q-26 -9 -44 -28
t-18 -44q0 -58 78 -58zM167 209q27 10 42 27.5t15 35.5q0 25 -16.5 40.5t-48.5 15.5q-31 0 -48 -15.5t-17 -35.5q0 -22 17.5 -36.5t55.5 -31.5z" />
    <glyph glyph-name="nine.dnom" 
d="M149 -5q-50 0 -82 29.5t-33 76.5h50q0 -34 20 -50.5t48 -16.5q45 0 63.5 34t18.5 107v3q-34 -43 -93 -43q-46 0 -77 29t-31 78q0 60 35 92t86 32q65 0 99.5 -50t34.5 -136q0 -72 -34 -128.5t-105 -56.5zM149 171q54 0 83 46q-8 110 -78 110t-70 -77q0 -37 18 -58t47 -21z
" />
    <glyph glyph-name="i.latn_TRK" horiz-adv-x="230" 
d="M84 0v480h62v-480h-62zM84 559v106h62v-106h-62z" />
    <glyph glyph-name="gravecomb.case" horiz-adv-x="1" 
d="M-135 780l-99 150h81l73 -150h-55z" />
    <glyph glyph-name="acutecomb.case" horiz-adv-x="1" 
d="M-255 780l73 150h81l-99 -150h-55z" />
    <glyph glyph-name="uni0302.case" horiz-adv-x="1" 
d="M-329 780l104 153h54l102 -153h-61l-71 107l-72 -107h-56z" />
    <glyph glyph-name="tildecomb.case" horiz-adv-x="1" 
d="M-313 793l-50 8q17 92 86 92q29 0 72 -17.5t63 -17.5q15 0 23 11t13 34l51 -10q-18 -90 -85 -90q-34 0 -77.5 17t-58.5 17t-23 -10t-14 -34z" />
    <glyph glyph-name="uni0304.case" horiz-adv-x="1" 
d="M-329 801v62h262v-62h-262z" />
    <glyph glyph-name="uni0306.case" horiz-adv-x="1" 
d="M-205 783q-58 0 -94 40t-36 111h49q1 -49 23.5 -76.5t57.5 -27.5q33 0 56.5 27t24.5 77h48q-4 -75 -39 -113t-90 -38z" />
    <glyph glyph-name="uni0307.case" horiz-adv-x="1" 
d="M-118 800v106h68v-106h-68z" />
    <glyph glyph-name="uni0308.case" horiz-adv-x="1" 
d="M-297 802v106h62v-106h-62zM-112 802v106h62v-106h-62z" />
    <glyph glyph-name="uni030A.case" horiz-adv-x="1" 
d="M-148 771q-40 0 -65.5 23.5t-25.5 61.5q0 40 26 65.5t67 25.5q40 0 65 -23.5t25 -62.5q0 -40 -25.5 -65t-66.5 -25zM-147 807q23 0 37 14t14 38q0 23 -13.5 36.5t-37.5 13.5q-25 0 -39 -13.5t-14 -37.5t14.5 -37.5t38.5 -13.5z" />
    <glyph glyph-name="uni030B.case" horiz-adv-x="1" 
d="M-321 791l64 128h70l-84 -128h-50zM-184 791l65 128h70l-85 -128h-50z" />
    <glyph glyph-name="uni030C.case" horiz-adv-x="1" 
d="M-227 780l-102 153h61l71 -107l72 107h56l-104 -153h-54z" />
    <glyph glyph-name="orn001" horiz-adv-x="1012" 
d="M204 618v-196h29v89h24v27h-24v53h29v27h-58zM273 618v-196h61v27h-31v62h23v27h-23v53h30v27h-60zM346 618v-196h60v27h-31v169h-29zM415 618v-196h27v196h-27zM456 454q0 -15 9 -25t26 -10q32 0 32 35v41h-27v-41q0 -8 -5 -8q-8 0 -8 8v133q0 7 8 7q5 0 5 -7v-41h27v43
q0 14 -8.5 23t-23.5 9q-16 0 -25.5 -9.5t-9.5 -24.5v-133zM536 618v-196h27v196h-27zM595 618l-22 -196h24l6 46h19l2 -46h30l-22 196h-37zM619 491h-14l6 76zM664 618v-196h21v113h2l25 -113h27v196h-24v-99l-21 99h-30zM752 457q0 -38 35 -38t35 38v126q0 38 -35 38
t-35 -38v-126zM793 454q0 -8 -6 -8q-3 0 -5.5 3t-2.5 5v133q0 7 8 7q6 0 6 -7v-133zM222 349v-169h31v169h20v28h-75v-28h24zM319 258v-78h30v78l24 119h-24l-11 -70h-4l-9 70h-30zM395 377v-197h29v84h10q33 0 33 35v48q0 13 -9.5 21.5t-23.5 8.5h-39zM430 291h-6v62h6
q8 0 8 -12v-40q0 -10 -8 -10zM494 377v-197h58v28h-29v61h25v27h-25v53h29v28h-58zM204 138v-199h29v91h24v28h-24v53h29v27h-58zM279 -23q0 -41 35 -41q37 0 37 41v126q0 37 -37 37q-35 0 -35 -37v-126zM322 -26q0 -8 -8 -8q-6 0 -6 8v131q0 8 6 8q8 0 8 -8v-131zM370 -30
q0 -34 36 -34q15 0 24.5 9.5t9.5 24.5v168h-26v-164q0 -8 -8 -8q-7 0 -7 8v164h-29v-168zM459 138v-199h24v115l27 -115h26v199h-24v-100h-2l-22 100h-29zM555 138v-199h40q33 0 33 38v123q0 17 -8.5 27.5t-24.5 10.5h-40zM591 -34h-6v145h6q8 0 8 -8v-126q0 -11 -8 -11z
M647 138v-199h29v86h6q8 0 8 -12v-53q0 -16 3 -21h29v2q-2 6 -2 21l-3 51q0 22 -14 25q14 5 14 29v36q2 15 -6.5 25t-23.5 10h-40zM682 49h-6v62h6q8 0 8 -11v-41q0 -10 -8 -10zM757 17v-78h27v78l27 121h-24l-14 -73l-13 73h-30zM66 -207v960h880v-960h-880z" />
    <glyph glyph-name="Q.salt" horiz-adv-x="687" 
d="M341 -10q-297 0 -297 360q0 180 81 280t220 100q137 0 217.5 -97.5t80.5 -263.5q0 -193 -80 -289q36 -40 80 -41v-58q-71 0 -124 58q-70 -49 -178 -49zM347 44q87 0 137 40q-49 65 -83.5 94.5t-79.5 35.5l18 57q55 -8 94 -40t91 -102q47 77 47 243q0 147 -61 225.5
t-169 78.5q-112 0 -168.5 -84t-56.5 -222q0 -176 52.5 -251t178.5 -75z" />
    <glyph glyph-name="R.salt" horiz-adv-x="611" 
d="M84 0v720h257q104 0 166 -49.5t62 -144.5q0 -82 -46.5 -131t-128.5 -58l180 -337h-71l-176 331h-175v-331h-68zM152 386h186q159 0 159 138q0 141 -163 141h-182v-279z" />
    <glyph glyph-name="Racute.salt" horiz-adv-x="611" 
d="M84 0v720h257q104 0 166 -49.5t62 -144.5q0 -82 -46.5 -131t-128.5 -58l180 -337h-71l-176 331h-175v-331h-68zM152 386h186q159 0 159 138q0 141 -163 141h-182v-279zM266 780l73 150h81l-99 -150h-55z" />
    <glyph glyph-name="Rcaron.salt" horiz-adv-x="611" 
d="M84 0v720h257q104 0 166 -49.5t62 -144.5q0 -82 -46.5 -131t-128.5 -58l180 -337h-71l-176 331h-175v-331h-68zM152 386h186q159 0 159 138q0 141 -163 141h-182v-279zM272 780l-102 153h61l71 -107l72 107h56l-104 -153h-54z" />
    <glyph glyph-name="Rcommaaccent.salt" horiz-adv-x="611" 
d="M84 0v720h257q104 0 166 -49.5t62 -144.5q0 -82 -46.5 -131t-128.5 -58l180 -337h-71l-176 331h-175v-331h-68zM152 386h186q159 0 159 138q0 141 -163 141h-182v-279zM276 -191l32 70h-30v76h70v-73l-36 -73h-36z" />
    <glyph glyph-name="a.salt" horiz-adv-x="495" 
d="M200 -10q-66 0 -111.5 36t-45.5 105q0 38 13.5 65t38.5 42t49.5 22.5t57.5 11.5l92 12q35 4 49 14t14 29v27q0 52 -30.5 71t-89.5 19q-121 0 -121 -81v-17h-54v17q0 66 50.5 96.5t129.5 30.5q76 0 126 -31.5t50 -103.5v-252q0 -59 9 -102v-1h-54q-8 50 -9 76h-3
q-40 -86 -161 -86zM210 34q66 0 106.5 42.5t40.5 100.5v86q-16 -17 -77 -25l-73 -10q-57 -7 -81 -26t-24 -69q0 -99 108 -99z" />
    <glyph glyph-name="agrave.salt" horiz-adv-x="495" 
d="M200 -10q-66 0 -111.5 36t-45.5 105q0 38 13.5 65t38.5 42t49.5 22.5t57.5 11.5l92 12q35 4 49 14t14 29v27q0 52 -30.5 71t-89.5 19q-121 0 -121 -81v-17h-54v17q0 66 50.5 96.5t129.5 30.5q76 0 126 -31.5t50 -103.5v-252q0 -59 9 -102v-1h-54q-8 50 -9 76h-3
q-40 -86 -161 -86zM210 34q66 0 106.5 42.5t40.5 100.5v86q-16 -17 -77 -25l-73 -10q-57 -7 -81 -26t-24 -69q0 -99 108 -99zM218 564l-91 156h72l68 -156h-49z" />
    <glyph glyph-name="aacute.salt" horiz-adv-x="495" 
d="M200 -10q-66 0 -111.5 36t-45.5 105q0 38 13.5 65t38.5 42t49.5 22.5t57.5 11.5l92 12q35 4 49 14t14 29v27q0 52 -30.5 71t-89.5 19q-121 0 -121 -81v-17h-54v17q0 66 50.5 96.5t129.5 30.5q76 0 126 -31.5t50 -103.5v-252q0 -59 9 -102v-1h-54q-8 50 -9 76h-3
q-40 -86 -161 -86zM210 34q66 0 106.5 42.5t40.5 100.5v86q-16 -17 -77 -25l-73 -10q-57 -7 -81 -26t-24 -69q0 -99 108 -99zM209 564l68 156h72l-91 -156h-49z" />
    <glyph glyph-name="acircumflex.salt" horiz-adv-x="495" 
d="M200 -10q-66 0 -111.5 36t-45.5 105q0 38 13.5 65t38.5 42t49.5 22.5t57.5 11.5l92 12q35 4 49 14t14 29v27q0 52 -30.5 71t-89.5 19q-121 0 -121 -81v-17h-54v17q0 66 50.5 96.5t129.5 30.5q76 0 126 -31.5t50 -103.5v-252q0 -59 9 -102v-1h-54q-8 50 -9 76h-3
q-40 -86 -161 -86zM210 34q66 0 106.5 42.5t40.5 100.5v86q-16 -17 -77 -25l-73 -10q-57 -7 -81 -26t-24 -69q0 -99 108 -99zM114 564l100 156h51l97 -156h-59l-65 108l-68 -108h-56z" />
    <glyph glyph-name="atilde.salt" horiz-adv-x="495" 
d="M200 -10q-66 0 -111.5 36t-45.5 105q0 38 13.5 65t38.5 42t49.5 22.5t57.5 11.5l92 12q35 4 49 14t14 29v27q0 52 -30.5 71t-89.5 19q-121 0 -121 -81v-17h-54v17q0 66 50.5 96.5t129.5 30.5q76 0 126 -31.5t50 -103.5v-252q0 -59 9 -102v-1h-54q-8 50 -9 76h-3
q-40 -86 -161 -86zM210 34q66 0 106.5 42.5t40.5 100.5v86q-16 -17 -77 -25l-73 -10q-57 -7 -81 -26t-24 -69q0 -99 108 -99zM132 562l-39 7q6 42 28 66.5t55 24.5q26 0 68.5 -21t63.5 -21q30 0 40 47l40 -8q-4 -37 -25 -64t-54 -27q-23 0 -69 21.5t-61 21.5q-36 0 -47 -47z
" />
    <glyph glyph-name="adieresis.salt" horiz-adv-x="495" 
d="M200 -10q-66 0 -111.5 36t-45.5 105q0 38 13.5 65t38.5 42t49.5 22.5t57.5 11.5l92 12q35 4 49 14t14 29v27q0 52 -30.5 71t-89.5 19q-121 0 -121 -81v-17h-54v17q0 66 50.5 96.5t129.5 30.5q76 0 126 -31.5t50 -103.5v-252q0 -59 9 -102v-1h-54q-8 50 -9 76h-3
q-40 -86 -161 -86zM210 34q66 0 106.5 42.5t40.5 100.5v86q-16 -17 -77 -25l-73 -10q-57 -7 -81 -26t-24 -69q0 -99 108 -99zM118 569v106h62v-106h-62zM303 569v106h62v-106h-62z" />
    <glyph glyph-name="aring.salt" horiz-adv-x="495" 
d="M200 -10q-66 0 -111.5 36t-45.5 105q0 38 13.5 65t38.5 42t49.5 22.5t57.5 11.5l92 12q35 4 49 14t14 29v27q0 52 -30.5 71t-89.5 19q-121 0 -121 -81v-17h-54v17q0 66 50.5 96.5t129.5 30.5q76 0 126 -31.5t50 -103.5v-252q0 -59 9 -102v-1h-54q-8 50 -9 76h-3
q-40 -86 -161 -86zM210 34q66 0 106.5 42.5t40.5 100.5v86q-16 -17 -77 -25l-73 -10q-57 -7 -81 -26t-24 -69q0 -99 108 -99zM244 550q-39 0 -64.5 23t-25.5 59q0 39 26 64t66 25q38 0 62.5 -23t24.5 -62t-25 -62.5t-64 -23.5zM245 585q22 0 35.5 13.5t13.5 36.5t-13 36
t-36 13q-25 0 -38.5 -13t-13.5 -36q0 -24 14 -37t38 -13z" />
    <glyph glyph-name="amacron.salt" horiz-adv-x="495" 
d="M200 -10q-66 0 -111.5 36t-45.5 105q0 38 13.5 65t38.5 42t49.5 22.5t57.5 11.5l92 12q35 4 49 14t14 29v27q0 52 -30.5 71t-89.5 19q-121 0 -121 -81v-17h-54v17q0 66 50.5 96.5t129.5 30.5q76 0 126 -31.5t50 -103.5v-252q0 -59 9 -102v-1h-54q-8 50 -9 76h-3
q-40 -86 -161 -86zM210 34q66 0 106.5 42.5t40.5 100.5v86q-16 -17 -77 -25l-73 -10q-57 -7 -81 -26t-24 -69q0 -99 108 -99zM119 594v60h262v-60h-262z" />
    <glyph glyph-name="abreve.salt" horiz-adv-x="495" 
d="M200 -10q-66 0 -111.5 36t-45.5 105q0 38 13.5 65t38.5 42t49.5 22.5t57.5 11.5l92 12q35 4 49 14t14 29v27q0 52 -30.5 71t-89.5 19q-121 0 -121 -81v-17h-54v17q0 66 50.5 96.5t129.5 30.5q76 0 126 -31.5t50 -103.5v-252q0 -59 9 -102v-1h-54q-8 50 -9 76h-3
q-40 -86 -161 -86zM210 34q66 0 106.5 42.5t40.5 100.5v86q-16 -17 -77 -25l-73 -10q-57 -7 -81 -26t-24 -69q0 -99 108 -99zM248 565q-55 0 -88 41.5t-35 113.5h49q4 -50 19.5 -78.5t55.5 -28.5t57.5 26.5t21.5 80.5h47q-2 -75 -37 -115t-90 -40z" />
    <glyph glyph-name="aogonek.salt" horiz-adv-x="495" 
d="M210 34q66 0 106.5 42.5t40.5 100.5v86q-16 -17 -77 -25l-73 -10q-57 -7 -81 -26t-24 -69q0 -99 108 -99zM347 -200q-49 0 -77.5 23t-28.5 65q0 78 128 131q-5 22 -5 57h-3q-40 -86 -161 -86q-66 0 -111.5 36t-45.5 105q0 38 13.5 65t38.5 42t49.5 22.5t57.5 11.5l92 12
q35 4 49 14t14 29v27q0 52 -30.5 71t-89.5 19q-121 0 -121 -81v-17h-54v17q0 66 50.5 96.5t129.5 30.5q76 0 126 -31.5t50 -103.5v-252q0 -59 9 -102v-1q-125 -42 -125 -102q0 -23 15.5 -36.5t43.5 -13.5q32 0 60 17l17 -43q-41 -22 -91 -22z" />
    <glyph glyph-name="g.salt" horiz-adv-x="544" 
d="M255 -210q-86 0 -139.5 31.5t-53.5 92.5v16h70v-10q0 -48 29 -67.5t93 -19.5q78 0 111 37.5t33 125.5v87q-55 -91 -160 -91q-78 0 -139 61t-61 179q0 122 59 190t149 68q55 0 97 -24t60 -66v80h57v-469q0 -117 -51.5 -169t-153.5 -52zM256 35q87 0 142 107v199
q-44 106 -140 106q-79 0 -114.5 -48.5t-35.5 -163.5q0 -112 36 -156t112 -44z" />
    <glyph glyph-name="gcircumflex.salt" horiz-adv-x="544" 
d="M255 -210q-86 0 -139.5 31.5t-53.5 92.5v16h70v-10q0 -48 29 -67.5t93 -19.5q78 0 111 37.5t33 125.5v87q-55 -91 -160 -91q-78 0 -139 61t-61 179q0 122 59 190t149 68q55 0 97 -24t60 -66v80h57v-469q0 -117 -51.5 -169t-153.5 -52zM256 35q87 0 142 107v199
q-44 106 -140 106q-79 0 -114.5 -48.5t-35.5 -163.5q0 -112 36 -156t112 -44zM129 564l100 156h51l97 -156h-59l-65 108l-68 -108h-56z" />
    <glyph glyph-name="gcommaaccent.salt" horiz-adv-x="544" 
d="M255 -210q-86 0 -139.5 31.5t-53.5 92.5v16h70v-10q0 -48 29 -67.5t93 -19.5q78 0 111 37.5t33 125.5v87q-55 -91 -160 -91q-78 0 -139 61t-61 179q0 122 59 190t149 68q55 0 97 -24t60 -66v80h57v-469q0 -117 -51.5 -169t-153.5 -52zM256 35q87 0 142 107v199
q-44 106 -140 106q-79 0 -114.5 -48.5t-35.5 -163.5q0 -112 36 -156t112 -44zM223 560v73l36 73h36l-32 -70h30v-76h-70z" />
    <glyph glyph-name="gbreve.salt" horiz-adv-x="544" 
d="M255 -210q-86 0 -139.5 31.5t-53.5 92.5v16h70v-10q0 -48 29 -67.5t93 -19.5q78 0 111 37.5t33 125.5v87q-55 -91 -160 -91q-78 0 -139 61t-61 179q0 122 59 190t149 68q55 0 97 -24t60 -66v80h57v-469q0 -117 -51.5 -169t-153.5 -52zM256 35q87 0 142 107v199
q-44 106 -140 106q-79 0 -114.5 -48.5t-35.5 -163.5q0 -112 36 -156t112 -44zM265 565q-55 0 -88 41.5t-35 113.5h49q4 -50 19.5 -78.5t55.5 -28.5t57.5 26.5t21.5 80.5h47q-2 -75 -37 -115t-90 -40z" />
    <glyph glyph-name="gdotaccent.salt" horiz-adv-x="544" 
d="M255 -210q-86 0 -139.5 31.5t-53.5 92.5v16h70v-10q0 -48 29 -67.5t93 -19.5q78 0 111 37.5t33 125.5v87q-55 -91 -160 -91q-78 0 -139 61t-61 179q0 122 59 190t149 68q55 0 97 -24t60 -66v80h57v-469q0 -117 -51.5 -169t-153.5 -52zM256 35q87 0 142 107v199
q-44 106 -140 106q-79 0 -114.5 -48.5t-35.5 -163.5q0 -112 36 -156t112 -44zM233 569v106h62v-106h-62z" />
    <glyph glyph-name="period.dnom" horiz-adv-x="130" 
d="M39 0v66h52v-66h-52z" />
    <glyph glyph-name="comma.dnom" horiz-adv-x="130" 
d="M39 -70l20 70h-20v66h52v-65l-23 -71h-29z" />
    <glyph glyph-name="plus.dnom" 
d="M139 50v109h-107v40h107v109h41v-109h108v-40h-108v-109h-41z" />
    <glyph glyph-name="minus.dnom" 
d="M34 159v40h252v-40h-252z" />
    <glyph glyph-name="equal.dnom" 
d="M32 110v40h256v-40h-256zM32 208v40h256v-40h-256z" />
    <glyph glyph-name="parenleft.dnom" horiz-adv-x="180" 
d="M109 -46q-28 38 -43 99t-15 111q0 116 58 202h46q-29 -57 -41.5 -99t-12.5 -103q0 -110 54 -210h-46z" />
    <glyph glyph-name="parenright.dnom" horiz-adv-x="180" 
d="M71 -46h-46q54 100 54 210q0 61 -12.5 103t-41.5 99h46q58 -86 58 -202q0 -50 -15 -111t-43 -99z" />
    <glyph glyph-name="plus.numr" 
d="M139 410v109h-107v40h107v109h41v-109h108v-40h-108v-109h-41z" />
    <glyph glyph-name="minus.numr" 
d="M34 519v40h252v-40h-252z" />
    <glyph glyph-name="equal.numr" 
d="M32 470v40h256v-40h-256zM32 568v40h256v-40h-256z" />
    <glyph glyph-name="period.numr" horiz-adv-x="130" 
d="M39 360v66h52v-66h-52z" />
    <glyph glyph-name="comma.numr" horiz-adv-x="130" 
d="M39 290l20 70h-20v66h52v-65l-23 -71h-29z" />
    <glyph glyph-name="parenleft.numr" horiz-adv-x="180" 
d="M109 314q-28 38 -43 99t-15 111q0 116 58 202h46q-29 -57 -41.5 -99t-12.5 -103q0 -110 54 -210h-46z" />
    <glyph glyph-name="parenright.numr" horiz-adv-x="180" 
d="M71 314h-46q54 100 54 210q0 61 -12.5 103t-41.5 99h46q58 -86 58 -202q0 -50 -15 -111t-43 -99z" />
    <glyph glyph-name="period.sups" horiz-adv-x="130" 
d="M39 440v66h52v-66h-52z" />
    <glyph glyph-name="comma.sups" horiz-adv-x="130" 
d="M39 370l20 70h-20v66h52v-65l-23 -71h-29z" />
    <glyph glyph-name="period.subs" horiz-adv-x="130" 
d="M39 -108v66h52v-66h-52z" />
    <glyph glyph-name="comma.subs" horiz-adv-x="130" 
d="M39 -178l20 70h-20v66h52v-65l-23 -71h-29z" />
    <glyph glyph-name="inverted" horiz-adv-x="220" 
d="M106 96h42l-31 -110h31v-96h-76v94z" />
    <glyph glyph-name="hyphen.case" horiz-adv-x="334" 
d="M44 314v65h270v-65h-270z" />
    <glyph glyph-name="emdash.case" horiz-adv-x="1000" 
d="M0 331v49h1000v-49h-1000z" />
    <glyph glyph-name="endash.case" horiz-adv-x="500" 
d="M0 331v49h500v-49h-500z" />
    <glyph glyph-name="questiondown.case" horiz-adv-x="466" 
d="M233 -10q-87 0 -139 51t-52 126q0 45 11.5 82t26 60.5t42 46.5t46 34.5t51.5 29.5l7 103h50l7 -134q-43 -22 -63.5 -33.5t-47 -31t-37.5 -38t-19 -46.5t-8 -65q0 -62 35 -96.5t96 -34.5q124 0 124 134h61q0 -84 -46 -136t-145 -52zM212 624v96h76v-96h-76z" />
    <glyph glyph-name="exclamdown.case" horiz-adv-x="236" 
d="M80 0l13 522h50l13 -522h-76zM80 624v96h76v-96h-76z" />
    <glyph glyph-name="guillemotleft.case" horiz-adv-x="304" 
d="M113 153l-81 193v28l81 192h51l-85 -205l84 -208h-50zM235 153l-80 193v28l81 192h50l-85 -205l85 -208h-51z" />
    <glyph glyph-name="guillemotright.case" horiz-adv-x="304" 
d="M18 153l85 208l-85 205h50l81 -192v-28l-80 -193h-51zM141 153l84 208l-85 205h51l81 -192v-28l-81 -193h-50z" />
    <glyph glyph-name="guilsinglleft.case" horiz-adv-x="181" 
d="M112 153l-80 193v28l81 192h50l-85 -205l85 -208h-51z" />
    <glyph glyph-name="guilsinglright.case" horiz-adv-x="181" 
d="M18 153l85 208l-85 205h50l81 -192v-28l-80 -193h-51z" />
    <glyph glyph-name="Euro.tf" horiz-adv-x="600" 
d="M344 -10q-107 0 -174 65.5t-81 185.5h-72v50h67q-2 19 -2 59q0 8 0.5 23t0.5 22h-66v50h70q17 142 88 213.5t176 71.5q202 0 223 -241h-62q-4 41 -12.5 71t-25 58t-46 42.5t-70.5 14.5q-98 0 -145 -58t-56 -172h266v-50h-269v-27q0 -31 2 -77h224v-50h-218
q16 -107 63 -151.5t122 -44.5q91 0 132.5 60.5t41.5 157.5h63q-5 -127 -64 -200t-176 -73z" />
    <glyph glyph-name="dollar.tf" horiz-adv-x="600" 
d="M288 -133v124q-47 2 -87 16t-74 40.5t-53.5 71t-20.5 103.5h60q0 -48 16 -83t43.5 -54.5t56 -28.5t59.5 -12v302q-46 13 -69.5 21t-55.5 24t-47.5 33t-27 44.5t-11.5 63.5q0 82 59 136.5t152 60.5v103h49v-103q85 -7 138.5 -58.5t56.5 -142.5h-61q-12 129 -134 145v-271
q109 -33 159.5 -77t50.5 -125q0 -83 -56 -142t-154 -67v-124h-49zM337 45q67 7 109.5 45t42.5 104q0 50 -37.5 83.5t-114.5 54.5v-287zM288 416v259q-71 -3 -109 -42t-38 -93q0 -23 9.5 -41.5t21 -30t35 -22.5t38 -16t43.5 -14z" />
    <glyph glyph-name="cent.tf" horiz-adv-x="600" 
d="M289 -133v124q-99 9 -153 76t-54 171q0 110 57 176.5t150 74.5v127h49v-127q84 -8 127 -57.5t43 -121.5v-15h-58v17q0 117 -112 132v-410q53 5 89 37.5t40 89.5h51q-4 -67 -51 -115.5t-129 -54.5v-124h-49zM289 35v410q-68 -5 -102.5 -50t-34.5 -153q0 -103 33 -151
t104 -56z" />
    <glyph glyph-name="sterling.tf" horiz-adv-x="600" 
d="M71 329v49h103q-36 70 -36 143q0 52 20.5 97.5t71 78.5t123.5 33q184 0 184 -198v-56h-61v56q0 74 -31 110.5t-99 36.5q-71 0 -107 -43.5t-36 -107.5q0 -62 47 -150h202v-49h-175q44 -82 44 -142q0 -36 -11 -71q102 -69 151 -69q43 0 60 33.5t19 108.5h47
q0 -112 -32.5 -155.5t-102.5 -43.5q-18 0 -35.5 3.5t-30 8t-29.5 14t-24.5 14.5t-25.5 17.5t-23 15.5q-59 -73 -159 -73q-64 0 -92 28t-28 67q0 48 33 75t77 27q72 0 149 -47q2 16 2 27q0 56 -66 162h-129zM128 32q33 0 66 14.5t50 39.5q-77 53 -129 53q-59 0 -59 -52
q0 -22 16 -38.5t56 -16.5z" />
    <glyph glyph-name="yen.tf" horiz-adv-x="600" 
d="M269 0v149h-196v50h196v104h-196v50h169l-199 367h79l185 -349l179 349h71l-195 -367h165v-50h-190v-104h190v-50h-190v-149h-68z" />
    <glyph glyph-name="florin.tf" horiz-adv-x="600" 
d="M99 -200l9 51h20q68 0 78 63l65 446h-107l6 50h108l26 175q10 66 51.5 100.5t105.5 34.5h40l-10 -50h-41q-75 0 -87 -80l-27 -180h124l-6 -50h-125l-63 -433q-9 -66 -42.5 -96.5t-103.5 -30.5h-21z" />
    <glyph glyph-name="period.tf" horiz-adv-x="300" 
d="M112 0v96h76v-96h-76z" />
    <glyph glyph-name="colon.tf" horiz-adv-x="300" 
d="M112 384v96h76v-96h-76zM112 0v96h76v-96h-76z" />
    <glyph glyph-name="plus.tf" horiz-adv-x="600" 
d="M273 84v204h-200v52h200v203h52v-203h202v-52h-202v-204h-52z" />
    <glyph glyph-name="minus.tf" horiz-adv-x="600" 
d="M73 288v52h454v-52h-454z" />
    <glyph glyph-name="equal.tf" horiz-adv-x="600" 
d="M73 198v52h454v-52h-454zM73 378v52h454v-52h-454z" />
    <glyph glyph-name="multiply.tf" horiz-adv-x="600" 
d="M147 124l-37 36l153 153l-153 154l36 36l153 -153l154 154l37 -37l-154 -154l154 -154l-37 -37l-154 154z" />
    <glyph glyph-name="divide.tf" horiz-adv-x="600" 
d="M261 89v104h79v-104h-79zM73 288v52h454v-52h-454zM261 434v105h79v-105h-79z" />
    <glyph glyph-name="plusminus.tf" horiz-adv-x="600" 
d="M73 0v52h454v-52h-454zM273 147v204h-200v52h200v203h52v-203h202v-52h-202v-204h-52z" />
    <glyph glyph-name="approxequal.tf" horiz-adv-x="600" 
d="M115 147l-47 9q6 71 40.5 105.5t82.5 34.5q38 0 78.5 -21t77 -41.5t62.5 -20.5q69 0 72 93l51 -9q-6 -70 -40 -103t-84 -33q-42 0 -112 41.5t-105 41.5q-66 0 -76 -97zM115 330l-47 9q6 71 40.5 105.5t82.5 34.5q38 0 78.5 -20.5t77 -41.5t62.5 -21q69 0 72 93l51 -9
q-6 -70 -40 -103t-84 -33q-42 0 -112 41.5t-105 41.5q-66 0 -76 -97z" />
    <glyph glyph-name="notequal.tf" horiz-adv-x="600" 
d="M73 378v52h247l40 114h52l-40 -114h155v-52h-173l-45 -128h218v-52h-236l-46 -129h-52l46 129h-166v52h184l45 128h-229z" />
    <glyph glyph-name="lessequal.tf" horiz-adv-x="600" 
d="M73 0v52h454v-52h-454zM509 153l-443 207v42l445 203l23 -47l-393 -176l391 -183z" />
    <glyph glyph-name="greaterequal.tf" horiz-adv-x="600" 
d="M73 0v52h454v-52h-454zM91 153l-23 46l391 183l-393 176l23 47l445 -203v-42z" />
    <glyph glyph-name="less.tf" horiz-adv-x="600" 
d="M509 90l-443 207v42l445 203l23 -47l-393 -176l391 -183z" />
    <glyph glyph-name="greater.tf" horiz-adv-x="600" 
d="M91 90l-23 46l391 183l-393 176l23 47l445 -203v-42z" />
    <glyph glyph-name="a.superior" horiz-adv-x="282" 
d="M114 433q-83 0 -83 70q0 38 21.5 54.5t63.5 21.5l44 5q26 4 26 23v6q0 22 -13.5 29.5t-41.5 7.5q-47 0 -47 -33v-11h-41v11q0 69 94 69q92 0 92 -73v-111q0 -31 30 -31h10v-35h-16q-47 0 -58 39q-23 -42 -81 -42zM118 469q30 0 49 18t19 39v35q-6 -9 -31 -12l-36 -5
q-43 -6 -43 -36q0 -39 42 -39z" />
    <glyph glyph-name="b.superior" horiz-adv-x="309" 
d="M58 438v362h43v-158q26 44 77 44q41 0 69.5 -31.5t28.5 -91.5q0 -58 -27.5 -94t-76.5 -36q-53 0 -73 44v-39h-41zM170 468q58 0 58 95q0 86 -62 86q-19 0 -37.5 -13t-27.5 -36v-83q21 -49 69 -49z" />
    <glyph glyph-name="d.superior" horiz-adv-x="309" 
d="M129 433q-39 0 -67.5 30.5t-28.5 88.5q0 59 29 96.5t74 37.5q51 0 72 -38v152h43v-360h-40v41q-28 -48 -82 -48zM139 470q48 0 69 49v83q-21 49 -67 49q-29 0 -44.5 -25t-15.5 -70q0 -86 58 -86z" />
    <glyph glyph-name="e.superior" horiz-adv-x="295" 
d="M150 433q-58 0 -88.5 32.5t-30.5 91.5q0 60 32.5 94.5t84.5 34.5q59 0 87.5 -32t28.5 -86v-15h-185v-5q3 -81 73 -81q59 0 66 52h44q-6 -40 -36 -63t-76 -23zM81 586h134q0 66 -67 66q-31 0 -48 -19t-19 -47z" />
    <glyph glyph-name="egrave.superior" horiz-adv-x="295" 
d="M130 714l-72 83h55l51 -83h-34zM150 433q-58 0 -88.5 32.5t-30.5 91.5q0 60 32.5 94.5t84.5 34.5q59 0 87.5 -32t28.5 -86v-15h-185v-5q3 -81 73 -81q59 0 66 52h44q-6 -40 -36 -63t-76 -23zM81 586h134q0 66 -67 66q-31 0 -48 -19t-19 -47z" />
    <glyph glyph-name="h.superior" horiz-adv-x="307" 
d="M58 438v362h43v-164q13 20 37 35t50 15q68 0 68 -69v-179h-43v172q0 37 -34 37q-22 0 -46 -18.5t-32 -42.5v-148h-43z" />
    <glyph glyph-name="l.superior" horiz-adv-x="159" 
d="M58 438v362h43v-362h-43z" />
    <glyph glyph-name="m.superior" horiz-adv-x="450" 
d="M58 438v243h41v-47h1q35 52 84 52q56 0 64 -50q34 50 86 50q65 0 65 -68v-180h-43v172q0 37 -31 37q-21 0 -44.5 -20t-30.5 -41v-148h-43v172q0 37 -31 37q-20 0 -43 -19t-32 -42v-148h-43z" />
    <glyph glyph-name="o.superior" horiz-adv-x="302" 
d="M151 433q-57 0 -88.5 33.5t-31.5 89.5q0 60 32.5 95t85.5 35q60 0 91 -33t31 -94q0 -58 -33 -92t-87 -34zM151 467q37 0 54.5 21.5t17.5 72.5q0 91 -74 91q-70 0 -70 -92q0 -93 72 -93z" />
    <glyph glyph-name="r.superior" horiz-adv-x="217" 
d="M58 438v243h41v-56h2q12 27 39.5 43.5t56.5 16.5v-44q-78 -9 -96 -57v-146h-43z" />
    <glyph glyph-name="s.superior" horiz-adv-x="275" 
d="M146 433q-42 0 -71.5 20t-35.5 62h46q7 -50 63 -50t56 38q0 15 -10.5 23t-37.5 14l-28 6q-39 8 -59 22.5t-20 42.5q0 34 25 54.5t69 20.5q41 0 66.5 -19t29.5 -55h-44q-3 42 -54 42q-22 0 -35.5 -9t-13.5 -23q0 -26 45 -36l34 -8q37 -8 56.5 -21.5t19.5 -44.5
q0 -35 -27 -57t-74 -22z" />
    <glyph glyph-name="t.superior" horiz-adv-x="211" 
d="M111 509q0 -36 30 -36h34v-35h-39q-68 0 -68 72v140h-40v34h40v58l36 30h7v-88h66v-34h-66v-141z" />
    <glyph glyph-name="slash.case" horiz-adv-x="339" 
d="M81 -68h-63l259 788h62z" />
    <glyph glyph-name="backslash.case" horiz-adv-x="339" 
d="M341 -68h-63l-258 788h62z" />
    <glyph glyph-name="bar.case" horiz-adv-x="300" 
d="M120 -68v788h60v-788h-60z" />
    <glyph glyph-name="bracketleft.case" horiz-adv-x="298" 
d="M84 -106v826h184v-54h-120v-718h120v-54h-184z" />
    <glyph glyph-name="bracketright.case" horiz-adv-x="298" 
d="M30 -106v54h120v718h-120v54h184v-826h-184z" />
    <glyph glyph-name="braceleft.case" horiz-adv-x="298" 
d="M143 -106q-26 0 -42.5 17.5t-16.5 45.5v308q0 22 -8 31.5t-28 12.5v54q36 7 36 40v251q0 30 18 48t46 18h120v-54h-104q-16 0 -16 -19v-243q0 -44 -34 -61v-4q34 -16 34 -63v-308q0 -20 16 -20h104v-54h-125z" />
    <glyph glyph-name="braceright.case" horiz-adv-x="298" 
d="M155 -106h-125v54h104q16 0 16 20v308q0 47 34 63v4q-34 17 -34 61v243q0 19 -16 19h-104v54h120q28 0 46 -18t18 -48v-251q0 -33 36 -40v-54q-20 -3 -28 -12.5t-8 -31.5v-308q0 -28 -16.5 -45.5t-42.5 -17.5z" />
    <glyph glyph-name="parenleft.case" horiz-adv-x="298" 
d="M203 -108q-65 77 -99 199.5t-34 223.5q0 233 133 405h54q-62 -111 -90 -197t-28 -209q0 -222 119 -422h-55z" />
    <glyph glyph-name="parenright.case" horiz-adv-x="298" 
d="M95 -108h-55q119 200 119 422q0 122 -27.5 208t-90.5 198h54q133 -172 133 -405q0 -101 -34 -223.5t-99 -199.5z" />
    </font>
</defs>
</svg>
